<?xml version="1.0" encoding="utf-8"?><svg xmlns="http://www.w3.org/2000/svg" xmlns:xlink="http://www.w3.org/1999/xlink"><symbol fill="none" viewBox="0 0 24 26" id="archer-board-icon" xmlns="http://www.w3.org/2000/svg"><path d="M21 13c0-3.188-1.734-6.14-4.5-7.781-2.813-1.594-6.234-1.594-9 0C4.687 6.859 3 9.812 3 13a9.013 9.013 0 0 0 4.5 7.828c2.766 1.594 6.188 1.594 9 0C19.266 19.188 21 16.234 21 13ZM0 13A11.91 11.91 0 0 1 6 2.64c3.703-2.156 8.25-2.156 12 0 3.703 2.157 6 6.094 6 10.36 0 4.313-2.297 8.25-6 10.406-3.75 2.157-8.297 2.157-12 0C2.25 21.25 0 17.313 0 13Zm12 3.75c1.313 0 2.531-.703 3.234-1.875.657-1.125.657-2.578 0-3.75C14.531 10 13.313 9.25 12 9.25c-1.36 0-2.578.75-3.281 1.875-.656 1.172-.656 2.625 0 3.75.703 1.172 1.922 1.875 3.281 1.875Zm0-10.5c2.39 0 4.594 1.313 5.813 3.375 1.218 2.11 1.218 4.688 0 6.75A6.694 6.694 0 0 1 12 19.75a6.713 6.713 0 0 1-5.86-3.375c-1.218-2.063-1.218-4.64 0-6.75C7.36 7.562 9.564 6.25 12 6.25ZM10.5 13c0-.797.656-1.5 1.5-1.5.797 0 1.5.703 1.5 1.5 0 .844-.703 1.5-1.5 1.5a1.48 1.48 0 0 1-1.5-1.5Z" fill="#193154"/></symbol><symbol fill="none" viewBox="0 0 15 10" id="arrow-down-white" xmlns="http://www.w3.org/2000/svg"><path d="m7.5 9.438-.719-.72-6-6L.062 2 1.5.594l.688.719L7.5 6.593l5.281-5.28.719-.72L14.906 2l-.719.719-6 6-.687.719Z" fill="#F7F7F7"/></symbol><symbol fill="none" viewBox="0 0 12 12" id="cancel-icon" xmlns="http://www.w3.org/2000/svg"><path fill-rule="evenodd" clip-rule="evenodd" d="m7.18 6 4.41 4.41a.833.833 0 0 1-1.179 1.18l-4.41-4.412L1.59 11.59A.833.833 0 1 1 .41 10.411L4.822 6 .412 1.59A.833.833 0 0 1 1.59.41L6 4.822l4.411-4.41a.833.833 0 1 1 1.179 1.178L7.18 6Z" fill="#000"/></symbol><symbol fill="none" viewBox="0 0 17 16" id="cancel-white-icon" xmlns="http://www.w3.org/2000/svg"><path d="M15.672 2.422 10.047 8l5.578 5.578.797.797-1.547 1.594-.797-.797L8.5 9.594l-5.578 5.578-.797.797-1.594-1.594.797-.797L6.906 8 1.328 2.422l-.797-.797L2.125.031l.797.797L8.5 6.453 14.078.875l.797-.797 1.594 1.547-.797.797Z" fill="#52A0FC"/><path d="M15.672 2.422 10.047 8l5.578 5.578.797.797-1.547 1.594-.797-.797L8.5 9.594l-5.578 5.578-.797.797-1.594-1.594.797-.797L6.906 8 1.328 2.422l-.797-.797L2.125.031l.797.797L8.5 6.453 14.078.875l.797-.797 1.594 1.547-.797.797Z" fill="#fff" fill-opacity=".85"/></symbol><symbol fill="none" viewBox="0 0 20 20" id="facebook" xmlns="http://www.w3.org/2000/svg"><path fill-rule="evenodd" clip-rule="evenodd" d="M12.697 4.202c-.337 0-.714.438-.714 1.026v2.037h3.572v2.904h-3.572v8.72H8.611v-8.72H5.555V7.265H8.61V5.556c0-2.45 1.723-4.445 4.086-4.445h2.858v3.091h-2.858Z" fill="#4D6AFF"/></symbol><symbol fill="none" viewBox="0 0 15 16" id="faq-close-icon" xmlns="http://www.w3.org/2000/svg"><path d="M14.5 2.5v11c0 .281-.25.5-.5.5a.494.494 0 0 1-.5-.5v-11c0-.25.219-.5.5-.5.25 0 .5.25.5.5Zm-3.156 5.875-4 4a.53.53 0 0 1-.719 0 .53.53 0 0 1 0-.719L9.781 8.5H1A.494.494 0 0 1 .5 8c0-.25.219-.5.5-.5h8.781L6.625 4.375a.53.53 0 0 1 0-.719.53.53 0 0 1 .719 0l4 4a.53.53 0 0 1 0 .719Z" fill="#001650"/></symbol><symbol fill="none" viewBox="0 0 15 14" id="faq-open-icon" xmlns="http://www.w3.org/2000/svg"><path d="m14.344 7.375-5.5 5.5a.53.53 0 0 1-.719 0 .53.53 0 0 1 0-.719L12.781 7.5H1A.494.494 0 0 1 .5 7c0-.25.219-.5.5-.5h11.781L8.125 1.875a.53.53 0 0 1 0-.719.53.53 0 0 1 .719 0l5.5 5.5a.53.53 0 0 1 0 .719Z" fill="#4D6AFF"/></symbol><symbol fill="none" viewBox="0 0 279 67" id="footer-logo" xmlns="http://www.w3.org/2000/svg"><circle cx="30.485" cy="30.194" r="19.202" stroke="url(#aha)" stroke-width="5.566"/><circle cx="30.485" cy="30.194" r="19.202" stroke="#012077" stroke-width="5.566"/><path fill-rule="evenodd" clip-rule="evenodd" d="M20.58 13.353a19.823 19.823 0 0 0-4.9 3.985l1.226 2.747a17.09 17.09 0 0 0-2.043 3.442l-3.034.32a19.457 19.457 0 0 0-1.103 6.127l2.688 1.309c.066 1.412.303 2.78.69 4.081l-2.037 2.105a19.584 19.584 0 0 0 3.188 5.379l2.759-.682a17.174 17.174 0 0 0 3.235 2.7l-.19 2.728a19.712 19.712 0 0 0 6.02 2.08l1.605-2.192a17.27 17.27 0 0 0 4.09-.059l1.583 2.165a19.717 19.717 0 0 0 6.064-2.282l-.193-2.783a17.186 17.186 0 0 0 2.824-2.464l2.75.68a19.566 19.566 0 0 0 3.248-5.666l-2.067-2.135c.294-1.09.482-2.224.555-3.388l2.706-1.317a19.47 19.47 0 0 0-1.127-6.444l-3.04-.32a17.083 17.083 0 0 0-1.683-2.933l1.245-2.791a19.824 19.824 0 0 0-4.967-4.225l-2.5 1.674a16.96 16.96 0 0 0-3.348-1.269l-.84-2.904a20.057 20.057 0 0 0-6.44-.091l-.827 2.855c-1.264.285-2.475.71-3.615 1.257l-2.523-1.689Zm24.588 17.119c0 8.145-6.592 14.717-14.685 14.717-8.092 0-14.684-6.572-14.684-14.717 0-8.146 6.592-14.717 14.684-14.717 8.093 0 14.685 6.571 14.685 14.717Z" fill="url(#ahb)"/><path fill-rule="evenodd" clip-rule="evenodd" d="M20.58 13.353a19.823 19.823 0 0 0-4.9 3.985l1.226 2.747a17.09 17.09 0 0 0-2.043 3.442l-3.034.32a19.457 19.457 0 0 0-1.103 6.127l2.688 1.309c.066 1.412.303 2.78.69 4.081l-2.037 2.105a19.584 19.584 0 0 0 3.188 5.379l2.759-.682a17.174 17.174 0 0 0 3.235 2.7l-.19 2.728a19.712 19.712 0 0 0 6.02 2.08l1.605-2.192a17.27 17.27 0 0 0 4.09-.059l1.583 2.165a19.717 19.717 0 0 0 6.064-2.282l-.193-2.783a17.186 17.186 0 0 0 2.824-2.464l2.75.68a19.566 19.566 0 0 0 3.248-5.666l-2.067-2.135c.294-1.09.482-2.224.555-3.388l2.706-1.317a19.47 19.47 0 0 0-1.127-6.444l-3.04-.32a17.083 17.083 0 0 0-1.683-2.933l1.245-2.791a19.824 19.824 0 0 0-4.967-4.225l-2.5 1.674a16.96 16.96 0 0 0-3.348-1.269l-.84-2.904a20.057 20.057 0 0 0-6.44-.091l-.827 2.855c-1.264.285-2.475.71-3.615 1.257l-2.523-1.689Zm24.588 17.119c0 8.145-6.592 14.717-14.685 14.717-8.092 0-14.684-6.572-14.684-14.717 0-8.146 6.592-14.717 14.684-14.717 8.093 0 14.685 6.571 14.685 14.717Z" fill="#92BAE9"/><path d="M8.765 46.115 46.534 8.249l5.283 5.283-37.78 37.854s-6.5 2.544-7.2 1.843c-.702-.701 1.928-7.114 1.928-7.114Z" fill="#10255B"/><rect x="56.3" y="6.893" width="6.624" height="4.416" rx=".835" transform="rotate(135 56.3 6.893)" fill="#10255B"/><rect width="5.885" height="3.312" rx=".835" transform="scale(-1 1) rotate(-45 -22.112 73.432)" fill="#10255B"/><rect width="9.935" height="4.416" rx=".835" transform="scale(-1 1) rotate(-45 -11.772 72.012)" fill="#10255B"/><path d="M58.972 64.066 8.5 13.69l5.2-5.202 50.462 50.39s2.274 6.807 1.903 7.177c-.37.37-7.093-1.988-7.093-1.988Z" fill="#10255B"/><rect width="6.817" height="4.544" rx=".835" transform="scale(1 -1) rotate(-45 -6.4 -7.792)" fill="#10255B"/><rect x="1.473" y="5.757" width="6.057" height="3.408" rx=".835" transform="rotate(-45 1.473 5.757)" fill="#10255B"/><rect x="5.624" y="12.854" width="10.225" height="4.544" rx=".835" transform="rotate(-45 5.624 12.854)" fill="#10255B"/><path d="M64.234 48.647c-.349 0-.634-.11-.856-.33-.222-.22-.333-.503-.333-.85v-30.65c0-.346.11-.629.333-.849.222-.22.507-.33.856-.33h21.542c.349 0 .634.11.856.33.222.22.333.503.333.849v3.772c0 .315-.111.582-.333.802-.222.22-.507.33-.856.33H70.368v7.403H84.73c.349 0 .634.11.856.33.222.22.333.503.333.85v3.489c0 .314-.111.581-.333.801-.222.22-.507.33-.856.33H70.368v7.64h15.789c.348 0 .634.11.856.33.221.22.332.503.332.849v3.725c0 .346-.11.628-.332.849-.222.22-.508.33-.856.33H64.234ZM94.188 48.647c-.349 0-.634-.11-.856-.33-.222-.22-.333-.503-.333-.85v-30.65c0-.346.11-.629.333-.849.222-.22.507-.33.856-.33h4.327c.476 0 .825.11 1.046.33.222.22.365.393.428.519l12.698 19.664V16.817c0-.346.111-.629.332-.849.222-.22.492-.33.809-.33h4.851c.348 0 .634.11.855.33.222.22.333.503.333.849v30.65c0 .315-.111.598-.333.85-.221.22-.507.33-.855.33h-4.376c-.475 0-.824-.11-1.046-.33a5.404 5.404 0 0 0-.428-.52l-12.649-19.05v18.72c0 .347-.111.63-.333.85-.222.22-.507.33-.856.33h-4.803ZM124.951 48.647a.972.972 0 0 1-.714-.283c-.19-.22-.285-.456-.285-.708 0-.157.016-.298.047-.424l11.318-30.32a1.83 1.83 0 0 1 .571-.897c.285-.251.682-.377 1.189-.377h6.087c.507 0 .904.126 1.189.377.285.252.475.55.571.896l11.318 30.321c.031.126.047.267.047.424 0 .252-.095.488-.285.708a.972.972 0 0 1-.713.283h-4.946c-.476 0-.824-.11-1.046-.33-.222-.22-.365-.425-.428-.614l-2.045-5.28h-13.411l-2.045 5.28c-.063.19-.206.393-.428.614-.221.22-.57.33-1.046.33h-4.945Zm10.224-12.308h9.844l-4.898-13.58-4.946 13.58ZM189.531 48.647c-.349 0-.634-.11-.856-.33-.222-.22-.333-.503-.333-.85v-30.65c0-.346.111-.629.333-.849.222-.22.507-.33.856-.33h21.542c.349 0 .635.11.856.33.222.22.333.503.333.849v3.772c0 .315-.111.582-.333.802-.221.22-.507.33-.856.33h-15.407v7.403h14.361c.349 0 .634.11.856.33.222.22.333.503.333.85v3.489c0 .314-.111.581-.333.801-.222.22-.507.33-.856.33h-14.361v7.64h15.788c.349 0 .634.11.856.33.222.22.333.503.333.849v3.725c0 .346-.111.628-.333.849-.222.22-.507.33-.856.33h-21.923ZM231.238 49.118c-2.98 0-5.517-.487-7.609-1.462-2.061-1.006-3.662-2.452-4.803-4.338-1.141-1.917-1.775-4.244-1.902-6.979a167.779 167.779 0 0 1-.048-4.15c0-1.477.016-2.892.048-4.244.127-2.703.761-4.998 1.902-6.884 1.173-1.918 2.806-3.38 4.898-4.386 2.093-1.006 4.597-1.509 7.514-1.509 2.124 0 4.058.268 5.802.802 1.743.535 3.249 1.305 4.517 2.31 1.268 1.007 2.251 2.186 2.949 3.537.697 1.352 1.078 2.861 1.141 4.527a.89.89 0 0 1-.333.708.972.972 0 0 1-.713.282h-5.422c-.38 0-.681-.094-.903-.282-.222-.189-.396-.503-.523-.944-.476-1.854-1.268-3.128-2.378-3.82-1.11-.69-2.489-1.037-4.137-1.037-1.966 0-3.519.535-4.661 1.604-1.141 1.069-1.759 2.845-1.854 5.328a110.125 110.125 0 0 0 0 7.922c.095 2.484.713 4.26 1.854 5.329 1.142 1.069 2.695 1.603 4.661 1.603 1.648 0 3.027-.346 4.137-1.037 1.141-.723 1.934-1.996 2.378-3.82.127-.471.301-.786.523-.943.222-.188.523-.283.903-.283h5.422c.285 0 .523.095.713.283a.89.89 0 0 1 .333.707c-.063 1.667-.444 3.175-1.141 4.527-.698 1.352-1.681 2.531-2.949 3.537-1.268 1.006-2.774 1.776-4.517 2.31-1.744.535-3.678.802-5.802.802ZM252.179 48.647c-.349 0-.634-.11-.856-.33-.222-.22-.333-.503-.333-.85v-30.65c0-.346.111-.629.333-.849.222-.22.507-.33.856-.33h5.183c.349 0 .635.11.856.33.222.22.333.503.333.849v11.789h12.888v-11.79c0-.345.111-.628.333-.848.222-.22.507-.33.856-.33h5.183c.349 0 .634.11.856.33.222.22.333.503.333.849v30.65c0 .347-.111.63-.333.85-.222.22-.507.33-.856.33h-5.183c-.349 0-.634-.11-.856-.33-.222-.22-.333-.503-.333-.85V35.303h-12.888v12.166c0 .346-.111.628-.333.849-.221.22-.507.33-.856.33h-5.183ZM165.93 48.562c-.342 0-.622-.11-.839-.329-.218-.219-.327-.5-.327-.844V16.678h-9.877c-.311 0-.575-.11-.793-.329a1.091 1.091 0 0 1-.326-.797V9.938c0-.344.109-.625.326-.844.218-.219.482-.328.793-.328h28.328c.342 0 .621.11.839.328.217.219.326.5.326.844v5.614c0 .313-.109.579-.326.797-.218.22-.497.329-.839.329h-9.831v30.71c0 .345-.109.626-.326.845-.218.219-.498.329-.84.329h-6.288Z" fill="#10255B"/><defs><linearGradient id="aha" x1="16.29" y1="13.229" x2="45.892" y2="44.908" gradientUnits="userSpaceOnUse"><stop stop-color="#0056A6"/><stop offset="1" stop-color="#001971"/></linearGradient><linearGradient id="ahb" x1="17.727" y1="15.162" x2="43.929" y2="43.603" gradientUnits="userSpaceOnUse"><stop stop-color="#ACD7FF"/><stop offset="1" stop-color="#001971"/></linearGradient></defs></symbol><symbol fill="none" viewBox="0 0 21 18" id="hamgurger-white" xmlns="http://www.w3.org/2000/svg"><path d="M0 0h21v2.25H0V0Zm0 7.5h21v2.25H0V7.5ZM21 15v2.25H0V15h21Z" fill="#52A0FC"/><path d="M0 0h21v2.25H0V0Zm0 7.5h21v2.25H0V7.5ZM21 15v2.25H0V15h21Z" fill="#fff" fill-opacity=".85"/></symbol><symbol fill="none" viewBox="0 0 15 14" id="left-arrow-white" xmlns="http://www.w3.org/2000/svg"><path d="m1.125 6.656 5.5-5.5a.53.53 0 0 1 .719 0 .53.53 0 0 1 0 .719L2.687 6.5H14.5c.25 0 .5.25.5.5 0 .281-.25.5-.5.5H2.687l4.657 4.656a.53.53 0 0 1 0 .719.53.53 0 0 1-.719 0l-5.5-5.5a.53.53 0 0 1 0-.719Z" fill="#F7F7F7"/></symbol><symbol fill="none" viewBox="0 0 17 17" id="link" xmlns="http://www.w3.org/2000/svg"><path fill-rule="evenodd" clip-rule="evenodd" d="m6.3 12.956-.802.796a1.795 1.795 0 0 1-2.52 0 1.733 1.733 0 0 1-.518-1.239c0-.468.184-.908.518-1.239l2.95-2.927c.611-.606 1.762-1.499 2.601-.668a.981.981 0 1 0 1.383-1.393c-1.426-1.414-3.531-1.153-5.366.667l-2.95 2.928a3.685 3.685 0 0 0-1.098 2.632c0 .994.39 1.929 1.098 2.632a3.741 3.741 0 0 0 2.643 1.084c.957 0 1.914-.361 2.643-1.085l.802-.796A.981.981 0 1 0 6.3 12.956ZM15.24 1.584c-1.53-1.519-3.671-1.601-5.088-.195l-.999.992a.981.981 0 1 0 1.383 1.393l.999-.991c.733-.729 1.695-.427 2.322.195.334.332.518.772.518 1.239 0 .468-.184.908-.518 1.239l-3.147 3.123c-1.439 1.428-2.115.758-2.403.472a.982.982 0 0 0-1.383 1.393c.661.655 1.415.98 2.206.98.968 0 1.99-.487 2.963-1.453l3.147-3.123a3.687 3.687 0 0 0 1.099-2.633c0-.992-.391-1.927-1.099-2.631Z" fill="#4D6AFF"/></symbol><symbol fill="none" viewBox="0 0 20 20" id="linkedin" xmlns="http://www.w3.org/2000/svg"><g fill-rule="evenodd" clip-rule="evenodd" fill="#4D6AFF"><path d="M5.325 3.474c0 1.01-.762 1.828-2.017 1.828-1.18 0-1.94-.819-1.94-1.828 0-1.033.786-1.827 1.99-1.827 1.205 0 1.942.793 1.967 1.827Zm-3.86 15.032V6.745h3.737v11.76H1.464ZM7.438 10.497c0-1.467-.05-2.694-.098-3.752h3.245l.172 1.636h.074c.491-.77 1.697-1.9 3.712-1.9 2.46 0 4.303 1.612 4.303 5.074v6.95H15.11v-6.517c0-1.515-.541-2.55-1.893-2.55-1.033 0-1.647.698-1.917 1.373-.1.24-.123.577-.123.913v6.782H7.439v-8.009h-.001Z"/></g></symbol><symbol fill="none" viewBox="0 0 20 21" id="linkedin-blue" xmlns="http://www.w3.org/2000/svg"><path fill-rule="evenodd" clip-rule="evenodd" d="M7.857 7.974h3.095v1.542c.446-.887 1.59-1.683 3.307-1.683 3.293 0 4.074 1.765 4.074 5.003v5.998H15v-5.26c0-1.845-.446-2.884-1.581-2.884-1.574 0-2.228 1.12-2.228 2.883v5.26H7.857V7.975ZM2.141 18.692h3.334V7.832H2.142v10.86Zm3.811-14.4a2.108 2.108 0 0 1-.627 1.502 2.158 2.158 0 0 1-3.032 0 2.123 2.123 0 0 1-.626-1.502c0-.564.224-1.104.627-1.503a2.153 2.153 0 0 1 3.03 0c.402.399.628.939.628 1.503Z" fill="#4D6AFF"/></symbol><symbol fill="none" viewBox="0 0 18 21" id="login-icon" xmlns="http://www.w3.org/2000/svg"><path d="M12.125 5.5c0-1.094-.625-2.11-1.563-2.695-.976-.547-2.187-.547-3.124 0C6.46 3.39 5.875 4.406 5.875 5.5c0 1.133.586 2.148 1.563 2.734.937.547 2.148.547 3.125 0 .937-.586 1.562-1.601 1.562-2.734ZM4 5.5c0-1.758.938-3.398 2.5-4.297 1.523-.898 3.438-.898 5 0 1.523.899 2.5 2.54 2.5 4.297 0 1.797-.977 3.438-2.5 4.336-1.563.898-3.477.898-5 0A4.97 4.97 0 0 1 4 5.5ZM2.164 18.625h13.633c-.352-2.46-2.461-4.375-5.04-4.375H7.204c-2.578 0-4.687 1.914-5.039 4.375Zm-1.914.742c0-3.867 3.086-6.992 6.953-6.992h3.555a6.985 6.985 0 0 1 6.992 6.992c0 .625-.547 1.133-1.172 1.133H1.383A1.134 1.134 0 0 1 .25 19.367Z" fill="#F7F7F7"/></symbol><symbol fill="none" viewBox="0 0 18 20" id="meeting" xmlns="http://www.w3.org/2000/svg"><path fill-rule="evenodd" clip-rule="evenodd" d="M11.5 2.5v-.833a.833.833 0 1 1 1.667 0V2.5h1.666a2.5 2.5 0 0 1 2.5 2.5v11.667a2.5 2.5 0 0 1-2.5 2.5H3.166a2.5 2.5 0 0 1-2.5-2.5V5a2.5 2.5 0 0 1 2.5-2.5h1.666v-.833a.833.833 0 1 1 1.667 0V2.5H11.5ZM2.332 9.167v7.5c0 .46.373.833.833.833h11.667c.46 0 .833-.373.833-.833v-7.5H2.332ZM15.665 7.5H2.332V5c0-.46.373-.833.833-.833h1.667V5a.833.833 0 0 0 1.667 0v-.833H11.5V5a.833.833 0 1 0 1.667 0v-.833h1.665c.46 0 .833.373.833.833v2.5Z" fill="#F7F7F7"/></symbol><symbol fill="none" viewBox="0 0 20 16" id="message" xmlns="http://www.w3.org/2000/svg"><path fill-rule="evenodd" clip-rule="evenodd" d="M3.334.5h13.333a2.505 2.505 0 0 1 2.5 2.509V13c0 1.377-1.123 2.5-2.5 2.5H3.334a2.505 2.505 0 0 1-2.5-2.5V2.984A2.505 2.505 0 0 1 3.334.5ZM2.5 4.6V13c0 .456.377.833.833.833h13.334A.838.838 0 0 0 17.5 13V4.601L10.48 9.516c-.287.2-.67.2-.956 0L2.5 4.6Zm.09-1.972L10 7.816l7.411-5.187a.838.838 0 0 0-.744-.462H3.333a.838.838 0 0 0-.744.461Z" fill="#000"/></symbol><symbol fill="none" viewBox="0 0 77 20" id="nest-logo" xmlns="http://www.w3.org/2000/svg"><path fill-rule="evenodd" clip-rule="evenodd" d="m12.225 6.38-.826 1.577v-.002l-.85-1.577c-.025-.05-.092-.113-.184 0a2.15 2.15 0 0 1-.828.572 2.216 2.216 0 0 1-1.968-.184 2.11 2.11 0 0 1-.7-.716 2.03 2.03 0 0 1 .558-2.68c.273-.203.592-.34.931-.398l-.074.01c-.573-.424-1.007-.457-1.127-.402-1.657.718-2.012 2.847-.064 4.938a.054.054 0 0 1-.002.066.058.058 0 0 1-.065.017C4.342 6.248 4.786 3.517 5.001 2.2c.05-.308.087-.538.069-.655-.068-.44-.329-.85-.51-1.133a5.319 5.319 0 0 1-.114-.184.15.15 0 0 1 .004-.157A.163.163 0 0 1 4.596 0c.248.015.675.273 1.25.621 1.25.756 3.2 1.937 5.536 1.967 2.336-.03 4.287-1.211 5.537-1.967C17.494.274 17.92.016 18.168 0a.163.163 0 0 1 .085.017.156.156 0 0 1 .063.057.149.149 0 0 1-.001.16c-.03.051-.068.11-.111.178-.18.282-.444.696-.513 1.14-.018.115.02.344.07.651.213 1.313.658 4.047-2.024 5.4a.059.059 0 0 1-.065-.017.054.054 0 0 1-.002-.065c1.948-2.092 1.592-4.22-.064-4.939-.12-.052-.555-.022-1.127.401l-.03-.004c.337.064.653.204.922.41.27.206.484.47.625.773a2.022 2.022 0 0 1-.099 1.905c-.172.287-.413.53-.702.708a2.216 2.216 0 0 1-1.963.174 2.149 2.149 0 0 1-.824-.572l.007.007c-.093-.118-.165-.053-.19-.004Zm-2.75-2.462a1.607 1.607 0 0 0-1.871.25 1.472 1.472 0 0 0-.257 1.811c.158.272.4.49.691.624.292.134.62.178.937.124.319-.053.612-.2.84-.42.228-.222.38-.506.435-.814.055-.307.01-.624-.129-.906a1.534 1.534 0 0 0-.645-.669Zm5.902 2.058a1.472 1.472 0 0 0-.26-1.81 1.607 1.607 0 0 0-1.872-.246 1.534 1.534 0 0 0-.645.669 1.47 1.47 0 0 0-.128.907c.055.308.208.591.437.812.228.22.522.367.84.42.318.053.646.009.937-.126.291-.135.533-.353.69-.626Zm-8.25 13.13c.653.281 1.334.498 2.032.648.349-1.232.82-2.428 1.406-3.573a20.208 20.208 0 0 1 4.609-5.905h-3.01a22.106 22.106 0 0 0-3.875 5.727l-.037.083c-.45.979-.826 1.989-1.125 3.02Zm.063-4.394c.403-.796.852-1.57 1.345-2.317h-.004a3.937 3.937 0 0 1-1.509-2.119H4.198c.148.902.491 1.763 1.007 2.527a6.599 6.599 0 0 0 1.985 1.909Zm2.157-3.477.002.002h-.004l.002-.002Zm.76-.959c-.263.314-.517.633-.76.96a2.558 2.558 0 0 1-.791-.96h1.551Zm-7.498 0h-1.9c.12 1.635.636 3.219 1.505 4.625a10.64 10.64 0 0 0 3.497 3.473c.235-.768.51-1.525.824-2.266a8.144 8.144 0 0 1-2.654-2.48 7.831 7.831 0 0 1-1.272-3.352Zm9.36 6.58a17.95 17.95 0 0 0-1.248 3.118 11.12 11.12 0 0 0 2.257-.072 16.325 16.325 0 0 1 3.354-5.668 16.95 16.95 0 0 1 5.369-3.958h-4.073a18.78 18.78 0 0 0-5.659 6.58Zm10.085-5.054c-3.295 1.64-5.87 4.373-7.255 7.699a10.9 10.9 0 0 0 4.684-2.917 10.39 10.39 0 0 0 2.57-4.782Zm28.242 2.958c.743.206 1.51.308 2.3.308.916 0 1.692-.135 2.33-.406.639-.27 1.115-.635 1.43-1.092.324-.466.486-.98.486-1.54 0-.653-.177-1.171-.53-1.554a3.048 3.048 0 0 0-1.243-.84 16.561 16.561 0 0 0-1.872-.532c-.733-.159-1.281-.317-1.643-.476-.353-.168-.53-.42-.53-.756s.153-.607.458-.812c.315-.205.796-.308 1.444-.308.924 0 1.848.257 2.772.77l.715-1.722a5.596 5.596 0 0 0-1.6-.644 7.843 7.843 0 0 0-1.873-.224c-.915 0-1.691.135-2.33.406-.629.27-1.1.64-1.415 1.106-.314.457-.471.97-.471 1.54 0 .653.171 1.176.514 1.568.353.392.772.677 1.258.854.486.178 1.11.355 1.872.532.496.112.886.215 1.172.308.296.093.534.22.715.378.19.15.286.34.286.574 0 .317-.158.574-.472.77-.315.187-.8.28-1.458.28-.59 0-1.181-.093-1.772-.28a5.377 5.377 0 0 1-1.53-.742l-.785 1.708c.447.336 1.038.612 1.772.826ZM37.354 5.1v9.8h-1.9l-4.988-5.95v5.95h-2.287V5.1h1.915l4.974 5.95V5.1h2.286Zm10.114 7.98v1.82H39.72V5.1h7.56v1.82h-5.259v2.128h4.645v1.764h-4.645v2.268h5.446Zm12.888-6.132h-3.201V5.1h8.718v1.848h-3.201V14.9h-2.316V6.948ZM71.4 5h-3.36v.829h1.199V9h.953V5.829h1.208V5Zm3.904 1.716L75.312 9h.893l-.017-4h-.774l-1.378 2.41L72.624 5h-.783v4h.893V6.773l1.072 1.813h.425l1.072-1.87Z" fill="#010D2E"/></symbol><symbol fill="none" viewBox="0 0 24 24" id="phone" xmlns="http://www.w3.org/2000/svg"><path fill-rule="evenodd" clip-rule="evenodd" d="M6.62 10.79c1.44 2.83 3.76 5.14 6.59 6.59l2.2-2.2c.27-.27.67-.36 1.02-.24 1.12.37 2.33.57 3.57.57.55 0 1 .45 1 1V20c0 .55-.45 1-1 1-9.39 0-17-7.61-17-17 0-.55.45-1 1-1h3.5c.55 0 1 .45 1 1 0 1.25.2 2.45.57 3.57.11.35.03.74-.25 1.02l-2.2 2.2Z" fill="#F7F7F7"/></symbol><symbol fill="none" viewBox="0 0 40 40" id="plus-icon" xmlns="http://www.w3.org/2000/svg"><path d="M19.999 6.666v26.667M33.333 20H6.666" stroke="#0B609C" stroke-width="2" stroke-linecap="round"/></symbol><symbol fill="none" viewBox="0 0 22 25" id="profile-white-icon" xmlns="http://www.w3.org/2000/svg"><path d="M14.75 7c0-1.313-.75-2.531-1.875-3.234-1.172-.657-2.625-.657-3.75 0C7.953 4.469 7.25 5.687 7.25 7c0 1.36.703 2.578 1.875 3.281 1.125.656 2.578.656 3.75 0C14 9.578 14.75 8.36 14.75 7ZM5 7a5.946 5.946 0 0 1 3-5.156c1.828-1.078 4.125-1.078 6 0C15.828 2.922 17 4.89 17 7c0 2.156-1.172 4.125-3 5.203-1.875 1.078-4.172 1.078-6 0A5.965 5.965 0 0 1 5 7ZM2.797 22.75h16.36c-.423-2.953-2.954-5.25-6.048-5.25H8.844c-3.094 0-5.625 2.297-6.047 5.25ZM.5 23.64c0-4.64 3.703-8.39 8.344-8.39h4.265c4.641 0 8.391 3.75 8.391 8.39 0 .75-.656 1.36-1.406 1.36H1.859C1.11 25 .5 24.39.5 23.64Z" fill="#52A0FC"/><path d="M14.75 7c0-1.313-.75-2.531-1.875-3.234-1.172-.657-2.625-.657-3.75 0C7.953 4.469 7.25 5.687 7.25 7c0 1.36.703 2.578 1.875 3.281 1.125.656 2.578.656 3.75 0C14 9.578 14.75 8.36 14.75 7ZM5 7a5.946 5.946 0 0 1 3-5.156c1.828-1.078 4.125-1.078 6 0C15.828 2.922 17 4.89 17 7c0 2.156-1.172 4.125-3 5.203-1.875 1.078-4.172 1.078-6 0A5.965 5.965 0 0 1 5 7ZM2.797 22.75h16.36c-.423-2.953-2.954-5.25-6.048-5.25H8.844c-3.094 0-5.625 2.297-6.047 5.25ZM.5 23.64c0-4.64 3.703-8.39 8.344-8.39h4.265c4.641 0 8.391 3.75 8.391 8.39 0 .75-.656 1.36-1.406 1.36H1.859C1.11 25 .5 24.39.5 23.64Z" fill="#fff" fill-opacity=".85"/></symbol><symbol fill="none" viewBox="0 0 29 29" id="right-arrow-icon" xmlns="http://www.w3.org/2000/svg"><path fill-rule="evenodd" clip-rule="evenodd" d="M14.46 24.412c5.64 0 10.211-4.572 10.211-10.211 0-5.64-4.572-10.211-10.21-10.211C8.82 3.99 4.248 8.56 4.248 14.2c0 5.64 4.572 10.212 10.211 10.212Zm0 3.829c7.754 0 14.04-6.286 14.04-14.04S22.214.16 14.46.16.42 6.447.42 14.2s6.286 14.04 14.04 14.04Z" fill="#4D6AFF"/><path fill-rule="evenodd" clip-rule="evenodd" d="m15.311 7.44 5.84 6.048a.975.975 0 0 1 0 1.345l-5.84 6.05a.895.895 0 0 1-1.297 0 .975.975 0 0 1 0-1.345l4.273-4.427H7.42v-1.9h10.867l-4.273-4.428a.975.975 0 0 1 0-1.344.895.895 0 0 1 1.297 0Z" fill="#4D6AFF"/></symbol><symbol fill="none" viewBox="0 0 15 14" id="right-blue-arrow" xmlns="http://www.w3.org/2000/svg"><path d="m13.844 7.375-5.5 5.5a.53.53 0 0 1-.719 0 .53.53 0 0 1 0-.719L12.281 7.5H.5A.494.494 0 0 1 0 7c0-.25.219-.5.5-.5h11.781L7.625 1.875a.53.53 0 0 1 0-.719.53.53 0 0 1 .719 0l5.5 5.5a.53.53 0 0 1 0 .719Z" fill="#4D6AFF"/></symbol><symbol fill="none" viewBox="0 0 25 25" id="service-icon" xmlns="http://www.w3.org/2000/svg"><path d="m8.61 6.04 2.39-6h3l2.344 6H8.609Zm-1.172 3h10.078l1.78 4.5H5.657l1.782-4.5Zm-4.688 12 1.734-4.5H20.47l1.781 4.5h2.25v3H.5v-3h2.25Z" fill="#05315A"/></symbol><symbol fill="none" viewBox="0 0 28 25" id="sol-icon" xmlns="http://www.w3.org/2000/svg"><path d="M.5 1.7h21v9.61l-3 3V4.7h-8.25v5.391c-.89.328-1.5 1.172-1.5 2.11 0 1.265.984 2.25 2.25 2.25a2.25 2.25 0 0 0 2.25-2.25c0-.938-.656-1.782-1.5-2.11v-3.89H17v9.61l-2.438 2.39H5v-12h3V4.7H3.5v15h9.563l-.047.093-.422 2.907H.5v-21Zm23.672 9L27.5 14.03l-1.969 1.969-3.328-3.329 1.969-1.968Zm-3 3L24.5 17.03l-6.656 6.61L14 24.2l.516-3.89 6.656-6.61Z" fill="#05315A"/></symbol><symbol fill="none" viewBox="0 0 14 14" id="testimonials-right-arrow" xmlns="http://www.w3.org/2000/svg"><path fill-rule="evenodd" clip-rule="evenodd" d="m6.109 13.722-5.84-6.05a.975.975 0 0 1 0-1.344l5.84-6.05a.895.895 0 0 1 1.297 0 .975.975 0 0 1 0 1.345L3.133 6.049H14v1.902H3.133l4.273 4.426a.975.975 0 0 1 0 1.345.895.895 0 0 1-1.297 0Z" fill="#001038"/></symbol><symbol fill="none" viewBox="0 0 19 16" id="twitter" xmlns="http://www.w3.org/2000/svg"><path fill-rule="evenodd" clip-rule="evenodd" d="M18.694 2.519a7.512 7.512 0 0 1-2.147.589A3.75 3.75 0 0 0 18.19 1.04a7.481 7.481 0 0 1-2.374.907 3.73 3.73 0 0 0-2.73-1.18 3.737 3.737 0 0 0-3.64 4.589 10.613 10.613 0 0 1-7.703-3.905A3.737 3.737 0 0 0 2.9 6.441a3.733 3.733 0 0 1-1.693-.468v.047a3.74 3.74 0 0 0 2.998 3.665 3.715 3.715 0 0 1-1.687.065 3.745 3.745 0 0 0 3.492 2.596 7.502 7.502 0 0 1-5.534 1.547 10.573 10.573 0 0 0 5.729 1.68c6.875 0 10.634-5.695 10.634-10.635a9.73 9.73 0 0 0-.011-.483 7.595 7.595 0 0 0 1.865-1.936Z" fill="#4D6AFF"/></symbol><symbol fill="none" viewBox="0 0 31 25" id="vehicle-icon" xmlns="http://www.w3.org/2000/svg"><path d="M.5.12H20v4.5h3.61l.421.47 4.5 4.5.469.421V16.621h1.5v3h-3a4.501 4.501 0 0 1-9 0h-6a4.501 4.501 0 0 1-9 0h-3V.12ZM26 11.278 22.344 7.62H20v4.5h6v-.844ZM10.25 19.62c0-.797-.469-1.5-1.125-1.922-.703-.422-1.594-.422-2.25 0-.703.422-1.125 1.125-1.125 1.922 0 .843.422 1.547 1.125 1.968.656.422 1.547.422 2.25 0 .656-.421 1.125-1.125 1.125-1.968ZM23 21.87c.797 0 1.5-.422 1.922-1.125.422-.657.422-1.547 0-2.25-.422-.657-1.125-1.125-1.922-1.125-.844 0-1.547.468-1.969 1.125-.422.703-.422 1.593 0 2.25.422.703 1.125 1.125 1.969 1.125Z" fill="#05315A"/></symbol></svg>