<svg width="24" height="26" viewBox="0 0 24 26" fill="none" xmlns="http://www.w3.org/2000/svg">
<path d="M21 13C21 9.8125 19.2656 6.85938 16.5 5.21875C13.6875 3.625 10.2656 3.625 7.5 5.21875C4.6875 6.85938 3 9.8125 3 13C3 16.2344 4.6875 19.1875 7.5 20.8281C10.2656 22.4219 13.6875 22.4219 16.5 20.8281C19.2656 19.1875 21 16.2344 21 13ZM0 13C0 8.73438 2.25 4.79688 6 2.64062C9.70312 0.484375 14.25 0.484375 18 2.64062C21.7031 4.79688 24 8.73438 24 13C24 17.3125 21.7031 21.25 18 23.4062C14.25 25.5625 9.70312 25.5625 6 23.4062C2.25 21.25 0 17.3125 0 13ZM12 16.75C13.3125 16.75 14.5312 16.0469 15.2344 14.875C15.8906 13.75 15.8906 12.2969 15.2344 11.125C14.5312 10 13.3125 9.25 12 9.25C10.6406 9.25 9.42188 10 8.71875 11.125C8.0625 12.2969 8.0625 13.75 8.71875 14.875C9.42188 16.0469 10.6406 16.75 12 16.75ZM12 6.25C14.3906 6.25 16.5938 7.5625 17.8125 9.625C19.0312 11.7344 19.0312 14.3125 17.8125 16.375C16.5938 18.4844 14.3906 19.75 12 19.75C9.5625 19.75 7.35938 18.4844 6.14062 16.375C4.92188 14.3125 4.92188 11.7344 6.14062 9.625C7.35938 7.5625 9.5625 6.25 12 6.25ZM10.5 13C10.5 12.2031 11.1562 11.5 12 11.5C12.7969 11.5 13.5 12.2031 13.5 13C13.5 13.8438 12.7969 14.5 12 14.5C11.1562 14.5 10.5 13.8438 10.5 13Z" fill="#193154"/>
</svg>
