<svg width="17" height="16" viewBox="0 0 17 16" fill="none" xmlns="http://www.w3.org/2000/svg">
<path d="M15.6719 2.42188L10.0469 8L15.625 13.5781L16.4219 14.375L14.875 15.9688L14.0781 15.1719L8.5 9.59375L2.92188 15.1719L2.125 15.9688L0.53125 14.375L1.32812 13.5781L6.90625 8L1.32812 2.42188L0.53125 1.625L2.125 0.03125L2.92188 0.828125L8.5 6.45312L14.0781 0.875L14.875 0.078125L16.4688 1.625L15.6719 2.42188Z" fill="#52A0FC"/>
<path d="M15.6719 2.42188L10.0469 8L15.625 13.5781L16.4219 14.375L14.875 15.9688L14.0781 15.1719L8.5 9.59375L2.92188 15.1719L2.125 15.9688L0.53125 14.375L1.32812 13.5781L6.90625 8L1.32812 2.42188L0.53125 1.625L2.125 0.03125L2.92188 0.828125L8.5 6.45312L14.0781 0.875L14.875 0.078125L16.4688 1.625L15.6719 2.42188Z" fill="white" fill-opacity="0.85"/>
</svg>
