<svg width="15" height="16" viewBox="0 0 15 16" fill="none" xmlns="http://www.w3.org/2000/svg">
<path d="M14.5 2.5V13.5C14.5 13.7812 14.25 14 14 14C13.7188 14 13.5 13.7812 13.5 13.5V2.5C13.5 2.25 13.7188 2 14 2C14.25 2 14.5 2.25 14.5 2.5ZM11.3438 8.375L7.34375 12.375C7.15625 12.5625 6.8125 12.5625 6.625 12.375C6.4375 12.1875 6.4375 11.8438 6.625 11.6562L9.78125 8.5H6.5H1C0.71875 8.5 0.5 8.28125 0.5 8C0.5 7.75 0.71875 7.5 1 7.5H6.5H9.78125L6.625 4.375C6.4375 4.1875 6.4375 3.84375 6.625 3.65625C6.8125 3.46875 7.15625 3.46875 7.34375 3.65625L11.3438 7.65625C11.5312 7.84375 11.5312 8.1875 11.3438 8.375Z" fill="#001650"/>
</svg>
