<svg width="279" height="67" viewBox="0 0 279 67" fill="none" xmlns="http://www.w3.org/2000/svg">
<circle cx="30.4846" cy="30.1941" r="19.2022" stroke="url(#paint0_linear_2142_6210)" stroke-width="5.56585"/>
<circle cx="30.4846" cy="30.1941" r="19.2022" stroke="#012077" stroke-width="5.56585"/>
<path fill-rule="evenodd" clip-rule="evenodd" d="M20.5793 13.353C18.737 14.4149 17.0833 15.7638 15.6804 17.3383L16.906 20.0855C16.0976 21.1425 15.4097 22.2966 14.8628 23.5274L11.8293 23.8479C11.1509 25.771 10.7654 27.8307 10.7261 29.9745L13.4144 31.2828C13.4802 32.6948 13.7171 34.0621 14.1048 35.3643L12.067 37.4687C12.8395 39.4356 13.9223 41.2483 15.2555 42.8476L18.0139 42.1663C18.9752 43.1928 20.0615 44.1005 21.2486 44.8651L21.0598 47.5938C22.9081 48.5916 24.9346 49.305 27.0797 49.6748L28.6845 47.4818C29.2757 47.5437 29.8758 47.5754 30.4833 47.5754C31.2598 47.5754 32.0242 47.5236 32.7732 47.4232L34.3572 49.5879C36.5275 49.1594 38.5698 48.378 40.4209 47.3063L40.2283 44.5233C41.2579 43.8067 42.2049 42.9795 43.0524 42.0591L45.8017 42.7381C47.1817 41.0584 48.2872 39.1474 49.0502 37.0728L46.9827 34.9378C47.2766 33.8477 47.4654 32.7145 47.5378 31.5497L50.2436 30.2329C50.2315 27.9743 49.8353 25.8061 49.1166 23.7893L46.0774 23.4682C45.6121 22.4319 45.0468 21.4503 44.3936 20.5359L45.6388 17.7449C44.2336 16.0788 42.5551 14.6479 40.6717 13.5201L38.1726 15.1936C37.1148 14.6592 35.9939 14.2316 34.8241 13.925L33.9838 11.0209C32.8477 10.8191 31.6779 10.7139 30.4833 10.7139C29.4842 10.7139 28.5024 10.7875 27.5431 10.9296L26.717 13.7851C25.4531 14.0697 24.2423 14.4944 23.1016 15.0421L20.5793 13.353ZM45.1682 30.4719C45.1682 38.6174 38.5759 45.1889 30.4833 45.1889C22.3907 45.1889 15.7985 38.6174 15.7985 30.4719C15.7985 22.3263 22.3907 15.7548 30.4833 15.7548C38.5759 15.7548 45.1682 22.3263 45.1682 30.4719Z" fill="url(#paint1_linear_2142_6210)"/>
<path fill-rule="evenodd" clip-rule="evenodd" d="M20.5793 13.353C18.737 14.4149 17.0833 15.7638 15.6804 17.3383L16.906 20.0855C16.0976 21.1425 15.4097 22.2966 14.8628 23.5274L11.8293 23.8479C11.1509 25.771 10.7654 27.8307 10.7261 29.9745L13.4144 31.2828C13.4802 32.6948 13.7171 34.0621 14.1048 35.3643L12.067 37.4687C12.8395 39.4356 13.9223 41.2483 15.2555 42.8476L18.0139 42.1663C18.9752 43.1928 20.0615 44.1005 21.2486 44.8651L21.0598 47.5938C22.9081 48.5916 24.9346 49.305 27.0797 49.6748L28.6845 47.4818C29.2757 47.5437 29.8758 47.5754 30.4833 47.5754C31.2598 47.5754 32.0242 47.5236 32.7732 47.4232L34.3572 49.5879C36.5275 49.1594 38.5698 48.378 40.4209 47.3063L40.2283 44.5233C41.2579 43.8067 42.2049 42.9795 43.0524 42.0591L45.8017 42.7381C47.1817 41.0584 48.2872 39.1474 49.0502 37.0728L46.9827 34.9378C47.2766 33.8477 47.4654 32.7145 47.5378 31.5497L50.2436 30.2329C50.2315 27.9743 49.8353 25.8061 49.1166 23.7893L46.0774 23.4682C45.6121 22.4319 45.0468 21.4503 44.3936 20.5359L45.6388 17.7449C44.2336 16.0788 42.5551 14.6479 40.6717 13.5201L38.1726 15.1936C37.1148 14.6592 35.9939 14.2316 34.8241 13.925L33.9838 11.0209C32.8477 10.8191 31.6779 10.7139 30.4833 10.7139C29.4842 10.7139 28.5024 10.7875 27.5431 10.9296L26.717 13.7851C25.4531 14.0697 24.2423 14.4944 23.1016 15.0421L20.5793 13.353ZM45.1682 30.4719C45.1682 38.6174 38.5759 45.1889 30.4833 45.1889C22.3907 45.1889 15.7985 38.6174 15.7985 30.4719C15.7985 22.3263 22.3907 15.7548 30.4833 15.7548C38.5759 15.7548 45.1682 22.3263 45.1682 30.4719Z" fill="#92BAE9"/>
<path d="M8.7646 46.1146L46.5336 8.24862L51.8169 13.5319L14.0364 51.3864C14.0364 51.3864 7.53768 53.9303 6.83648 53.2291C6.13527 52.5278 8.7646 46.1146 8.7646 46.1146Z" fill="#10255B"/>
<rect x="56.2998" y="6.89307" width="6.62362" height="4.41575" rx="0.834878" transform="rotate(135 56.2998 6.89307)" fill="#10255B"/>
<rect width="5.88549" height="3.31181" rx="0.834878" transform="matrix(-0.707107 -0.707107 -0.707107 0.707107 58.4009 5.87207)" fill="#10255B"/>
<rect width="9.93543" height="4.41575" rx="0.834878" transform="matrix(-0.707107 -0.707107 -0.707107 0.707107 54.3682 12.7681)" fill="#10255B"/>
<path d="M58.9717 64.0664L8.49951 13.6886L13.7006 8.4873L64.1615 58.8765C64.1615 58.8765 66.4358 65.6838 66.0653 66.0544C65.6947 66.4249 58.9717 64.0664 58.9717 64.0664Z" fill="#10255B"/>
<rect width="6.81662" height="4.54441" rx="0.834878" transform="matrix(0.707107 0.707107 0.707107 -0.707107 3.63525 6.80811)" fill="#10255B"/>
<rect x="1.47314" y="5.75684" width="6.05698" height="3.40831" rx="0.834878" transform="rotate(-45 1.47314 5.75684)" fill="#10255B"/>
<rect x="5.62354" y="12.8535" width="10.2249" height="4.54441" rx="0.834878" transform="rotate(-45 5.62354 12.8535)" fill="#10255B"/>
<path d="M64.2338 48.6466C63.8851 48.6466 63.5997 48.5366 63.3778 48.3166C63.1559 48.0965 63.0449 47.8136 63.0449 47.4678V16.8169C63.0449 16.4711 63.1559 16.1882 63.3778 15.9681C63.5997 15.7481 63.8851 15.6381 64.2338 15.6381H85.7761C86.1249 15.6381 86.4102 15.7481 86.6321 15.9681C86.854 16.1882 86.965 16.4711 86.965 16.8169V20.5893C86.965 20.9037 86.854 21.1709 86.6321 21.391C86.4102 21.611 86.1249 21.7211 85.7761 21.7211H70.3684V29.1244H84.7299C85.0787 29.1244 85.364 29.2345 85.5859 29.4545C85.8078 29.6746 85.9188 29.9575 85.9188 30.3033V33.7928C85.9188 34.1071 85.8078 34.3744 85.5859 34.5944C85.364 34.8145 85.0787 34.9245 84.7299 34.9245H70.3684V42.5636H86.1566C86.5053 42.5636 86.7906 42.6737 87.0126 42.8937C87.2345 43.1138 87.3454 43.3967 87.3454 43.7425V47.4678C87.3454 47.8136 87.2345 48.0965 87.0126 48.3166C86.7906 48.5366 86.5053 48.6466 86.1566 48.6466H64.2338Z" fill="#10255B"/>
<path d="M94.1878 48.6466C93.839 48.6466 93.5537 48.5366 93.3318 48.3166C93.1098 48.0965 92.9989 47.8136 92.9989 47.4678V16.8169C92.9989 16.4711 93.1098 16.1882 93.3318 15.9681C93.5537 15.7481 93.839 15.6381 94.1878 15.6381H98.5153C98.9908 15.6381 99.3395 15.7481 99.5615 15.9681C99.7834 16.1882 99.926 16.3611 99.9894 16.4868L112.687 36.1505V16.8169C112.687 16.4711 112.798 16.1882 113.019 15.9681C113.241 15.7481 113.511 15.6381 113.828 15.6381H118.679C119.027 15.6381 119.313 15.7481 119.534 15.9681C119.756 16.1882 119.867 16.4711 119.867 16.8169V47.4678C119.867 47.7821 119.756 48.0651 119.534 48.3166C119.313 48.5366 119.027 48.6466 118.679 48.6466H114.303C113.828 48.6466 113.479 48.5366 113.257 48.3166C113.067 48.0651 112.924 47.8922 112.829 47.7979L100.18 28.7472V47.4678C100.18 47.8136 100.069 48.0965 99.8468 48.3166C99.6249 48.5366 99.3395 48.6466 98.9908 48.6466H94.1878Z" fill="#10255B"/>
<path d="M124.951 48.6466C124.665 48.6466 124.427 48.5523 124.237 48.3637C124.047 48.1437 123.952 47.9079 123.952 47.6564C123.952 47.4992 123.968 47.3577 123.999 47.232L135.317 16.9112C135.413 16.5654 135.603 16.2668 135.888 16.0153C136.173 15.7638 136.57 15.6381 137.077 15.6381H143.164C143.671 15.6381 144.068 15.7638 144.353 16.0153C144.638 16.2668 144.828 16.5654 144.924 16.9112L156.242 47.232C156.273 47.3577 156.289 47.4992 156.289 47.6564C156.289 47.9079 156.194 48.1437 156.004 48.3637C155.814 48.5523 155.576 48.6466 155.291 48.6466H150.345C149.869 48.6466 149.521 48.5366 149.299 48.3166C149.077 48.0965 148.934 47.8922 148.871 47.7035L146.826 42.4222H133.415L131.37 47.7035C131.307 47.8922 131.164 48.0965 130.942 48.3166C130.721 48.5366 130.372 48.6466 129.896 48.6466H124.951ZM135.175 36.3392H145.019L140.121 22.7585L135.175 36.3392Z" fill="#10255B"/>
<path d="M189.531 48.6466C189.182 48.6466 188.897 48.5366 188.675 48.3166C188.453 48.0965 188.342 47.8136 188.342 47.4678V16.8169C188.342 16.4711 188.453 16.1882 188.675 15.9681C188.897 15.7481 189.182 15.6381 189.531 15.6381H211.073C211.422 15.6381 211.708 15.7481 211.929 15.9681C212.151 16.1882 212.262 16.4711 212.262 16.8169V20.5893C212.262 20.9037 212.151 21.1709 211.929 21.391C211.708 21.611 211.422 21.7211 211.073 21.7211H195.666V29.1244H210.027C210.376 29.1244 210.661 29.2345 210.883 29.4545C211.105 29.6746 211.216 29.9575 211.216 30.3033V33.7928C211.216 34.1071 211.105 34.3744 210.883 34.5944C210.661 34.8145 210.376 34.9245 210.027 34.9245H195.666V42.5636H211.454C211.803 42.5636 212.088 42.6737 212.31 42.8937C212.532 43.1138 212.643 43.3967 212.643 43.7425V47.4678C212.643 47.8136 212.532 48.0965 212.31 48.3166C212.088 48.5366 211.803 48.6466 211.454 48.6466H189.531Z" fill="#10255B"/>
<path d="M231.238 49.1182C228.258 49.1182 225.721 48.6309 223.629 47.6564C221.568 46.6504 219.967 45.2043 218.826 43.3181C217.685 41.4005 217.051 39.0742 216.924 36.3392C216.892 35.0502 216.876 33.667 216.876 32.1895C216.876 30.712 216.892 29.2973 216.924 27.9455C217.051 25.242 217.685 22.9471 218.826 21.0609C219.999 19.1433 221.632 17.6814 223.724 16.6755C225.817 15.6695 228.321 15.1665 231.238 15.1665C233.362 15.1665 235.296 15.4337 237.04 15.9681C238.783 16.5026 240.289 17.2728 241.557 18.2787C242.825 19.2847 243.808 20.4636 244.506 21.8154C245.203 23.1672 245.584 24.6761 245.647 26.3423C245.647 26.6252 245.536 26.861 245.314 27.0496C245.124 27.2382 244.886 27.3325 244.601 27.3325H239.179C238.799 27.3325 238.498 27.2382 238.276 27.0496C238.054 26.861 237.88 26.5466 237.753 26.1065C237.277 24.2517 236.485 22.9785 235.375 22.2869C234.265 21.5953 232.886 21.2495 231.238 21.2495C229.272 21.2495 227.719 21.7839 226.577 22.8528C225.436 23.9216 224.818 25.6978 224.723 28.1813C224.628 30.7591 224.628 33.3998 224.723 36.1034C224.818 38.5869 225.436 40.3631 226.577 41.4319C227.719 42.5008 229.272 43.0352 231.238 43.0352C232.886 43.0352 234.265 42.6894 235.375 41.9978C236.516 41.2747 237.309 40.0015 237.753 38.1782C237.88 37.7067 238.054 37.3923 238.276 37.2351C238.498 37.0465 238.799 36.9522 239.179 36.9522H244.601C244.886 36.9522 245.124 37.0465 245.314 37.2351C245.536 37.4237 245.647 37.6595 245.647 37.9424C245.584 39.6086 245.203 41.1175 244.506 42.4693C243.808 43.8211 242.825 45 241.557 46.006C240.289 47.0119 238.783 47.7821 237.04 48.3166C235.296 48.851 233.362 49.1182 231.238 49.1182Z" fill="#10255B"/>
<path d="M252.179 48.6466C251.83 48.6466 251.545 48.5366 251.323 48.3166C251.101 48.0965 250.99 47.8136 250.99 47.4678V16.8169C250.99 16.4711 251.101 16.1882 251.323 15.9681C251.545 15.7481 251.83 15.6381 252.179 15.6381H257.362C257.711 15.6381 257.997 15.7481 258.218 15.9681C258.44 16.1882 258.551 16.4711 258.551 16.8169V28.6057H271.439V16.8169C271.439 16.4711 271.55 16.1882 271.772 15.9681C271.994 15.7481 272.279 15.6381 272.628 15.6381H277.811C278.16 15.6381 278.445 15.7481 278.667 15.9681C278.889 16.1882 279 16.4711 279 16.8169V47.4678C279 47.8136 278.889 48.0965 278.667 48.3166C278.445 48.5366 278.16 48.6466 277.811 48.6466H272.628C272.279 48.6466 271.994 48.5366 271.772 48.3166C271.55 48.0965 271.439 47.8136 271.439 47.4678V35.3017H258.551V47.4678C258.551 47.8136 258.44 48.0965 258.218 48.3166C257.997 48.5366 257.711 48.6466 257.362 48.6466H252.179Z" fill="#10255B"/>
<path d="M165.93 48.5615C165.588 48.5615 165.308 48.452 165.091 48.2331C164.873 48.0142 164.764 47.7327 164.764 47.3887V16.6779H154.887C154.576 16.6779 154.312 16.5684 154.094 16.3495C153.877 16.1306 153.768 15.8647 153.768 15.552V9.93843C153.768 9.59441 153.877 9.31293 154.094 9.09401C154.312 8.87509 154.576 8.76562 154.887 8.76562H183.215C183.557 8.76562 183.836 8.87509 184.054 9.09401C184.271 9.31293 184.38 9.59441 184.38 9.93843V15.552C184.38 15.8647 184.271 16.1306 184.054 16.3495C183.836 16.5684 183.557 16.6779 183.215 16.6779H173.384V47.3887C173.384 47.7327 173.275 48.0142 173.058 48.2331C172.84 48.452 172.56 48.5615 172.218 48.5615H165.93Z" fill="#10255B"/>
<defs>
<linearGradient id="paint0_linear_2142_6210" x1="16.2895" y1="13.2292" x2="45.8915" y2="44.9085" gradientUnits="userSpaceOnUse">
<stop stop-color="#0056A6"/>
<stop offset="1" stop-color="#001971"/>
</linearGradient>
<linearGradient id="paint1_linear_2142_6210" x1="17.7272" y1="15.1622" x2="43.929" y2="43.6033" gradientUnits="userSpaceOnUse">
<stop stop-color="#ACD7FF"/>
<stop offset="1" stop-color="#001971"/>
</linearGradient>
</defs>
</svg>
