<svg width="21" height="21" viewBox="0 0 21 21" fill="none" xmlns="http://www.w3.org/2000/svg">
<path d="M19.3158 9.92964L15.5613 13.6828C13.4891 15.7563 10.1273 15.7563 8.05503 13.6828C7.72844 13.3575 7.47315 12.9907 7.24891 12.6123L8.99332 10.8679C9.07626 10.7843 9.17866 10.7363 9.27649 10.68C9.397 11.0921 9.60759 11.4822 9.93161 11.8062C10.9664 12.8417 12.6506 12.8404 13.6848 11.8062L17.4379 8.05303C18.4734 7.01754 18.4734 5.33406 17.4379 4.29923C16.4037 3.2644 14.7203 3.2644 13.6848 4.29923L12.3499 5.63539C11.2671 5.21354 10.1001 5.10016 8.96413 5.26667L11.8081 2.42266C13.8817 0.349773 17.2422 0.349773 19.3157 2.42266C21.3881 4.49564 21.3881 7.85674 19.3158 9.92964ZM9.39053 16.1011L8.05503 17.4372C7.0202 18.4714 5.33604 18.4714 4.30121 17.4372C3.26638 16.4017 3.26638 14.7183 4.30121 13.6828L8.05503 9.92968C9.09053 8.89419 10.7734 8.89419 11.8082 9.92968C12.1315 10.253 12.3421 10.6431 12.464 11.0546C12.5625 10.9976 12.6636 10.9509 12.7465 10.868L14.4909 9.12423C14.268 8.74452 14.0114 8.37903 13.6848 8.05311C11.6125 5.98022 8.25078 5.98022 6.17783 8.05311L2.42467 11.8062C0.351769 13.8798 0.351769 17.2402 2.42467 19.3138C4.49758 21.3861 7.85871 21.3861 9.93165 19.3138L12.7763 16.4691C11.6397 16.6363 10.4727 16.5223 9.39053 16.1011Z" fill="white"/>
</svg>
