<svg width="20" height="20" viewBox="0 0 20 20" fill="none" xmlns="http://www.w3.org/2000/svg">
<g id="Group 15">
<g id="entypo/linkedin">
<g id="Group">
<path id="Shape" fill-rule="evenodd" clip-rule="evenodd" d="M5.32489 3.47406C5.32489 4.48434 4.56277 5.30178 3.30828 5.30178C2.12832 5.30178 1.36719 4.48338 1.36719 3.47406C1.36719 2.44075 2.15382 1.64729 3.3583 1.64729C4.56277 1.64729 5.30037 2.43979 5.32489 3.47406ZM1.46429 18.5055V6.74477H5.20228V18.5055H1.46429Z" fill="#4D6AFF"/>
<path id="Shape_2" fill-rule="evenodd" clip-rule="evenodd" d="M7.43793 10.4971C7.43793 9.03015 7.38889 7.80303 7.33984 6.74477H10.5845L10.7571 8.38061H10.8307C11.3221 7.61018 12.5275 6.48093 14.5432 6.48093C17.0021 6.48093 18.8461 8.09278 18.8461 11.5554V18.5055H15.1091V11.9881C15.1091 10.4731 14.5677 9.43887 13.2161 9.43887C12.1832 9.43887 11.5692 10.1364 11.2985 10.8109C11.1995 11.0507 11.1759 11.3884 11.1759 11.7242V18.5055H7.43891V10.4971H7.43793Z" fill="#4D6AFF"/>
</g>
</g>
</g>
</svg>
