<svg width="20" height="21" viewBox="0 0 20 21" fill="none" xmlns="http://www.w3.org/2000/svg">
<path fill-rule="evenodd" clip-rule="evenodd" d="M7.85734 7.97449H10.9523V9.51616C11.3982 8.62949 12.5415 7.83283 14.259 7.83283C17.5515 7.83283 18.3332 9.59783 18.3332 12.8362V18.8337H14.9998V13.5737C14.9998 11.7295 14.554 10.6895 13.419 10.6895C11.8448 10.6895 11.1907 11.8103 11.1907 13.5728V18.8337H7.85734V7.97449ZM2.1415 18.692H5.47484V7.83283H2.1415V18.692ZM5.95234 4.29199C5.95246 4.57139 5.89705 4.84802 5.78933 5.10581C5.6816 5.36361 5.52371 5.59742 5.32484 5.79366C4.92184 6.19418 4.37635 6.41837 3.80817 6.41699C3.241 6.41661 2.69676 6.19299 2.29317 5.79449C2.09501 5.59759 1.93766 5.36351 1.83012 5.10569C1.72259 4.84786 1.66699 4.57135 1.6665 4.29199C1.6665 3.72783 1.8915 3.18783 2.294 2.78949C2.69724 2.39046 3.2417 2.16674 3.809 2.16699C4.37734 2.16699 4.92234 2.39116 5.32484 2.78949C5.7265 3.18783 5.95234 3.72783 5.95234 4.29199Z" fill="#4D6AFF"/>
</svg>
