<svg width="17" height="17" viewBox="0 0 17 17" fill="none" xmlns="http://www.w3.org/2000/svg">
<path id="Mask" fill-rule="evenodd" clip-rule="evenodd" d="M6.29905 12.956L5.49805 13.752C4.80305 14.441 3.67305 14.441 2.97805 13.752C2.64405 13.421 2.46005 12.981 2.46005 12.513C2.46005 12.045 2.64405 11.605 2.97805 11.274L5.92805 8.347C6.53905 7.741 7.69005 6.848 8.52905 7.679C8.91405 8.061 9.53505 8.059 9.91705 7.674C10.299 7.289 10.297 6.668 9.91205 6.286C8.48605 4.872 6.38105 5.133 4.54605 6.953L1.59605 9.881C0.888047 10.584 0.498047 11.519 0.498047 12.513C0.498047 13.507 0.888047 14.442 1.59605 15.145C2.32505 15.868 3.28205 16.229 4.23905 16.229C5.19605 16.229 6.15305 15.868 6.88205 15.144L7.68405 14.348C8.06905 13.966 8.07105 13.345 7.68905 12.96C7.30705 12.575 6.68405 12.574 6.29905 12.956ZM15.241 1.584C13.711 0.0650025 11.57 -0.0169975 10.153 1.389L9.15405 2.381C8.76905 2.763 8.76605 3.384 9.14805 3.769C9.53105 4.154 10.152 4.156 10.537 3.774L11.536 2.783C12.269 2.054 13.231 2.356 13.858 2.978C14.192 3.31 14.376 3.75 14.376 4.217C14.376 4.685 14.192 5.125 13.858 5.456L10.711 8.579C9.27205 10.007 8.59605 9.337 8.30805 9.051C7.92305 8.669 7.30205 8.672 6.92005 9.056C6.53705 9.44 6.54005 10.062 6.92505 10.444C7.58605 11.099 8.34005 11.424 9.13105 11.424C10.099 11.424 11.121 10.937 12.094 9.971L15.241 6.848C15.949 6.145 16.34 5.21 16.34 4.215C16.34 3.223 15.949 2.288 15.241 1.584Z" fill="#4D6AFF"/>
</svg>
