<svg width="18" height="21" viewBox="0 0 18 21" fill="none" xmlns="http://www.w3.org/2000/svg">
<path d="M12.125 5.5C12.125 4.40625 11.5 3.39062 10.5625 2.80469C9.58594 2.25781 8.375 2.25781 7.4375 2.80469C6.46094 3.39062 5.875 4.40625 5.875 5.5C5.875 6.63281 6.46094 7.64844 7.4375 8.23438C8.375 8.78125 9.58594 8.78125 10.5625 8.23438C11.5 7.64844 12.125 6.63281 12.125 5.5ZM4 5.5C4 3.74219 4.9375 2.10156 6.5 1.20312C8.02344 0.304688 9.9375 0.304688 11.5 1.20312C13.0234 2.10156 14 3.74219 14 5.5C14 7.29688 13.0234 8.9375 11.5 9.83594C9.9375 10.7344 8.02344 10.7344 6.5 9.83594C4.9375 8.9375 4 7.29688 4 5.5ZM2.16406 18.625H15.7969C15.4453 16.1641 13.3359 14.25 10.7578 14.25H7.20312C4.625 14.25 2.51562 16.1641 2.16406 18.625ZM0.25 19.3672C0.25 15.5 3.33594 12.375 7.20312 12.375H10.7578C14.625 12.375 17.75 15.5 17.75 19.3672C17.75 19.9922 17.2031 20.5 16.5781 20.5H1.38281C0.757812 20.5 0.25 19.9922 0.25 19.3672Z" fill="#F7F7F7"/>
</svg>
