<svg width="18" height="20" viewBox="0 0 18 20" fill="none" xmlns="http://www.w3.org/2000/svg">
<path id="Combined Shape" fill-rule="evenodd" clip-rule="evenodd" d="M11.5 2.50001V1.66668C11.5 1.20644 11.8731 0.833344 12.3333 0.833344C12.7936 0.833344 13.1667 1.20644 13.1667 1.66668V2.50001H14.8327C16.2134 2.50001 17.3327 3.6193 17.3327 5.00001V8.33334V16.6667C17.3327 18.0474 16.2134 19.1667 14.8327 19.1667H3.16602C1.7853 19.1667 0.666016 18.0474 0.666016 16.6667V8.33334V5.00001C0.666016 3.6193 1.7853 2.50001 3.16602 2.50001H4.83203V1.66668C4.83203 1.20644 5.20513 0.833344 5.66536 0.833344C6.1256 0.833344 6.4987 1.20644 6.4987 1.66668V2.50001H11.5ZM2.33203 9.16668V16.6667C2.33203 17.1269 2.70513 17.5 3.16536 17.5H14.832C15.2923 17.5 15.6654 17.1269 15.6654 16.6667V9.16668H2.33203ZM15.6654 7.50001H2.33203V5C2.33203 4.53976 2.70513 4.16667 3.16536 4.16667H4.83203V5.00001C4.83203 5.46025 5.20513 5.83334 5.66536 5.83334C6.1256 5.83334 6.4987 5.46025 6.4987 5.00001V4.16667H11.5V5.00001C11.5 5.46025 11.8731 5.83334 12.3333 5.83334C12.7936 5.83334 13.1667 5.46025 13.1667 5.00001V4.16667H14.832C15.2923 4.16667 15.6654 4.53976 15.6654 5V7.50001Z" fill="#F7F7F7"/>
</svg>
