<svg width="20" height="16" viewBox="0 0 20 16" fill="none" xmlns="http://www.w3.org/2000/svg">
<path id="Combined Shape" fill-rule="evenodd" clip-rule="evenodd" d="M3.33407 0.5H16.6674C18.04 0.5 19.1604 1.61606 19.1674 2.98704C19.1675 2.99435 19.1675 3.00167 19.1674 3.00897V13C19.1674 14.3769 18.0443 15.5 16.6674 15.5H3.33407C1.95717 15.5 0.834073 14.3769 0.834073 13V3.01143C0.83394 3.00231 0.833957 2.99318 0.834123 2.98405C0.842756 1.61443 1.96249 0.5 3.33407 0.5ZM2.50009 4.6001V13C2.50009 13.4564 2.87699 13.8333 3.33342 13.8333H16.6668C17.1232 13.8333 17.5001 13.4564 17.5001 13V4.60099L10.4786 9.51603C10.1917 9.71688 9.80977 9.71688 9.52284 9.51603L2.50009 4.6001ZM2.58907 2.62796L10.0007 7.81612L17.4114 2.62862C17.2737 2.35592 16.9902 2.16666 16.6668 2.16666H3.33342C3.01025 2.16666 2.72694 2.35561 2.58907 2.62796Z" fill="black"/>
</svg>
