<svg width="77" height="20" viewBox="0 0 77 20" fill="none" xmlns="http://www.w3.org/2000/svg">
<path fill-rule="evenodd" clip-rule="evenodd" d="M12.2245 6.37982L11.3994 7.95682L11.3999 7.95462L10.5493 6.37763C10.5235 6.32768 10.4566 6.26538 10.3645 6.37833L10.3655 6.37708C10.1409 6.62941 9.85688 6.82585 9.53743 6.9499C9.21799 7.07395 8.87243 7.12197 8.52981 7.08993C8.1872 7.05788 7.85754 6.94671 7.56857 6.76576C7.27959 6.58481 7.03975 6.33937 6.8692 6.05008C6.69865 5.76079 6.60239 5.43611 6.5885 5.10334C6.57461 4.77056 6.64351 4.43943 6.7894 4.13777C6.93528 3.83612 7.1539 3.57277 7.42685 3.36987C7.69981 3.16696 8.01913 3.03044 8.35796 2.97177L8.28366 2.9811C7.71145 2.55804 7.27704 2.52512 7.15682 2.57999C5.50029 3.29771 5.14471 5.42671 7.09273 7.5184C7.09968 7.52808 7.10322 7.53966 7.10284 7.55144C7.10245 7.56322 7.09815 7.57457 7.09058 7.5838C7.08301 7.59303 7.07257 7.59966 7.0608 7.60271C7.04904 7.60575 7.03657 7.60505 7.02525 7.6007C4.34285 6.24811 4.78742 3.5166 5.00155 2.20095C5.05167 1.89302 5.08916 1.66264 5.07098 1.54567C5.00315 1.10515 4.74195 0.695747 4.56147 0.412871C4.51714 0.343398 4.47769 0.281556 4.44716 0.22876C4.43305 0.204688 4.42594 0.177365 4.4266 0.149697C4.42726 0.122029 4.43566 0.095051 4.4509 0.071633C4.46614 0.0482151 4.48766 0.0292332 4.51317 0.0167068C4.53867 0.00418035 4.56721 -0.00142206 4.59575 0.000495568C4.84367 0.0157153 5.27065 0.274065 5.84598 0.622175C7.09596 1.37849 9.04619 2.55851 11.3818 2.58932C13.718 2.5585 15.6691 1.37789 16.919 0.621602C17.4939 0.273781 17.9204 0.0157069 18.1678 0.000495568C18.1971 -0.00178555 18.2264 0.00383875 18.2525 0.0167406C18.2786 0.0296425 18.3005 0.0493143 18.3157 0.0735599C18.331 0.0978055 18.339 0.125671 18.3388 0.154045C18.3386 0.18242 18.3303 0.210187 18.3147 0.234247C18.2851 0.285175 18.2469 0.344897 18.204 0.412046C18.0237 0.694336 17.7596 1.10789 17.6909 1.55116C17.6729 1.66728 17.7102 1.89649 17.7602 2.20313C17.9741 3.51635 18.4194 6.2497 15.7372 7.6029C15.7259 7.60724 15.7134 7.60795 15.7016 7.6049C15.6899 7.60186 15.6794 7.59523 15.6719 7.586C15.6643 7.57676 15.66 7.56542 15.6596 7.55364C15.6592 7.54186 15.6628 7.53027 15.6697 7.52059C17.6177 5.42945 17.2622 3.30045 15.6056 2.58219C15.4854 2.53006 15.051 2.56024 14.4788 2.98329L14.4493 2.97945C14.786 3.04282 15.1021 3.18321 15.3713 3.38889C15.6404 3.59457 15.8548 3.85958 15.9965 4.16178C16.1383 4.46399 16.2032 4.79461 16.186 5.12605C16.1687 5.45749 16.0697 5.78012 15.8973 6.067C15.7249 6.35389 15.484 6.5967 15.1949 6.77515C14.9057 6.95361 14.5766 7.06253 14.235 7.09283C13.8935 7.12312 13.5494 7.07391 13.2315 6.9493C12.9136 6.82469 12.6311 6.6283 12.4077 6.37653L12.4151 6.38421C12.3215 6.26624 12.25 6.33099 12.2245 6.37982ZM9.47571 3.91799C9.1943 3.76488 8.8708 3.69982 8.54964 3.73174C8.19192 3.76729 7.85781 3.92105 7.60358 4.16713C7.34936 4.4132 7.19058 4.73654 7.15398 5.08267C7.12113 5.39342 7.1885 5.7064 7.34685 5.97862C7.5052 6.25084 7.74677 6.46896 8.03838 6.60302C8.32998 6.73708 8.65733 6.78051 8.97547 6.72735C9.29361 6.67419 9.58695 6.52704 9.81519 6.30611C10.0434 6.08518 10.1954 5.80131 10.2502 5.49347C10.305 5.18563 10.26 4.86891 10.1213 4.58682C9.98265 4.30473 9.75712 4.07109 9.47571 3.91799ZM15.3765 5.97635C15.5344 5.7038 15.6011 5.39066 15.5676 5.07992C15.5303 4.73408 15.3709 4.41123 15.1164 4.1657C14.8619 3.92017 14.5278 3.76692 14.1703 3.73174C13.849 3.70022 13.5256 3.76571 13.2443 3.91921C12.9631 4.07271 12.7379 4.30669 12.5996 4.58902C12.4614 4.87134 12.4168 5.18816 12.4721 5.49597C12.5274 5.80377 12.6799 6.08745 12.9085 6.30805C13.1372 6.52865 13.4308 6.67534 13.7491 6.72799C14.0674 6.78063 14.3947 6.73664 14.6861 6.60205C14.9775 6.46747 15.2187 6.24889 15.3765 5.97635ZM7.12697 19.1068C7.78037 19.3875 8.46106 19.6044 9.15893 19.7543C9.50789 18.5223 9.97889 17.3256 10.5654 16.1811C11.7112 13.9543 13.2737 11.9523 15.1737 10.2764H12.1646C10.574 11.9795 9.26651 13.9113 8.28898 16.0028L8.25155 16.0856C7.80142 17.065 7.42557 18.0747 7.12697 19.1068ZM7.19049 14.7117C7.59345 13.9157 8.04237 13.1422 8.53511 12.395H8.53057C7.79669 11.8722 7.26547 11.1262 7.02206 10.2764H4.19841C4.34633 11.1779 4.68932 12.0389 5.20494 12.8032C5.72055 13.5675 6.39716 14.2178 7.19049 14.7117ZM9.34656 11.2351L9.34948 11.2372H9.34494L9.34656 11.2351ZM10.1071 10.2764C9.84382 10.5896 9.5903 10.9091 9.34656 11.2351C9.00592 10.9828 8.73432 10.6537 8.55552 10.2764H10.1071ZM2.6088 10.2764H0.708984C0.829859 11.9106 1.34539 13.4946 2.21413 14.901C3.08286 16.3073 4.28056 17.4968 5.7109 18.3738C5.9457 17.6055 6.22092 16.8493 6.53548 16.1081C5.4688 15.4855 4.5615 14.6375 3.8815 13.6276C3.2015 12.6177 2.76641 11.4721 2.6088 10.2764ZM11.969 16.856C11.4557 17.8563 11.038 18.8999 10.7213 19.9738C10.9777 19.9917 11.2359 20.0007 11.496 20.0007C11.9919 20.0006 12.4872 19.9676 12.9784 19.9019C13.6935 17.8148 14.8338 15.8876 16.3319 14.2342C17.83 12.5808 19.6556 11.2348 21.7006 10.2759H17.6276C15.2389 12.0144 13.3015 14.2673 11.969 16.856ZM22.0539 11.8024C18.7586 13.4424 16.1834 16.1751 14.7988 19.5008V19.5014C16.5959 18.9397 18.2104 17.934 19.4828 16.5838C20.7551 15.2336 21.6414 13.5855 22.0539 11.8024ZM50.2959 14.7601C51.0391 14.9655 51.8061 15.0681 52.5969 15.0681C53.5115 15.0681 54.2881 14.9328 54.9264 14.6621C55.5648 14.3915 56.0412 14.0275 56.3556 13.5701C56.6796 13.1035 56.8415 12.5901 56.8415 12.0301C56.8415 11.3768 56.6653 10.8588 56.3127 10.4761C55.9697 10.0935 55.5553 9.81346 55.0694 9.63613C54.5834 9.4588 53.9594 9.28146 53.1971 9.10413C52.4635 8.94546 51.9156 8.7868 51.5536 8.62813C51.201 8.46013 51.0248 8.20813 51.0248 7.87213C51.0248 7.53613 51.1772 7.26546 51.4821 7.06013C51.7965 6.8548 52.2777 6.75213 52.9256 6.75213C53.8498 6.75213 54.774 7.0088 55.6982 7.52213L56.4128 5.80013C55.9554 5.52013 55.4219 5.30546 54.8121 5.15613C54.2023 5.0068 53.5782 4.93213 52.9399 4.93213C52.0252 4.93213 51.2487 5.06746 50.6103 5.33813C49.9815 5.6088 49.5098 5.97746 49.1954 6.44413C48.881 6.90146 48.7238 7.4148 48.7238 7.98413C48.7238 8.63746 48.8953 9.16013 49.2383 9.55213C49.5908 9.94413 50.0101 10.2288 50.496 10.4061C50.9819 10.5835 51.606 10.7608 52.3682 10.9381C52.8637 11.0501 53.2543 11.1528 53.5401 11.2461C53.8355 11.3395 54.0737 11.4655 54.2547 11.6241C54.4453 11.7735 54.5406 11.9648 54.5406 12.1981C54.5406 12.5155 54.3833 12.7721 54.0689 12.9681C53.7545 13.1548 53.2686 13.2481 52.6112 13.2481C52.0204 13.2481 51.4297 13.1548 50.839 12.9681C50.2483 12.7815 49.7385 12.5341 49.3098 12.2261L48.5237 13.9341C48.9715 14.2701 49.5622 14.5455 50.2959 14.7601ZM37.3544 5.10013V14.9001H35.4536L30.4658 8.95013V14.9001H28.1791V5.10013H30.0942L35.0678 11.0501V5.10013H37.3544ZM47.4676 13.0801V14.9001H39.7214V5.10013H47.2818V6.92013H42.0224V9.04813H46.6672V10.8121H42.0224V13.0801H47.4676ZM60.3563 6.94813H57.1549V5.10013H65.873V6.94813H62.6716V14.9001H60.3563V6.94813ZM71.3986 5H68.0383V5.82892H69.2378V9H70.1906V5.82892H71.3986V5ZM75.3033 6.71566L75.3118 9H76.2051L76.1881 5H75.4139L74.0358 7.40964L72.6236 5H71.841V9H72.7342V6.77349L73.8061 8.58554H74.2315L75.3033 6.71566Z" fill="#010D2E"/>
</svg>
