<svg width="29" height="29" viewBox="0 0 29 29" fill="none" xmlns="http://www.w3.org/2000/svg">
<path fill-rule="evenodd" clip-rule="evenodd" d="M14.4601 24.4119C20.0995 24.4119 24.6711 19.8402 24.6711 14.2008C24.6711 8.56142 20.0995 3.98978 14.4601 3.98978C8.8207 3.98978 4.24906 8.56142 4.24906 14.2008C4.24906 19.8402 8.8207 24.4119 14.4601 24.4119ZM14.4601 28.241C22.2143 28.241 28.5003 21.955 28.5003 14.2008C28.5003 6.44664 22.2143 0.160645 14.4601 0.160645C6.70592 0.160645 0.419922 6.44664 0.419922 14.2008C0.419922 21.955 6.70592 28.241 14.4601 28.241Z" fill="#4D6AFF"/>
<path fill-rule="evenodd" clip-rule="evenodd" d="M15.3113 7.43906L21.1511 13.4885C21.5095 13.8597 21.5095 14.4616 21.1511 14.8328L15.3113 20.8822C14.9529 21.2534 14.3719 21.2534 14.0136 20.8822C13.6552 20.511 13.6552 19.9091 14.0136 19.5379L18.2869 15.1112L7.41992 15.1112L7.41992 13.2101L18.2869 13.2101L14.0136 8.78338C13.6552 8.41216 13.6552 7.81028 14.0136 7.43906C14.3719 7.06784 14.9529 7.06784 15.3113 7.43906Z" fill="#4D6AFF"/>
</svg>
