<svg width="28" height="25" viewBox="0 0 28 25" fill="none" xmlns="http://www.w3.org/2000/svg">
<path d="M0.5 1.70068H21.5V11.3101L18.5 14.3101V5.45068V4.70068H17.75H11H10.25V5.45068V10.0913C9.35938 10.4194 8.75 11.2632 8.75 12.2007C8.75 13.4663 9.73438 14.4507 11 14.4507C12.2188 14.4507 13.25 13.4663 13.25 12.2007C13.25 11.2632 12.5938 10.4194 11.75 10.0913V6.20068H17V15.8101L14.5625 18.2007H5V6.20068H7.25H8V4.70068H7.25H4.25H3.5V5.45068V18.9507V19.7007H4.25H13.0625L13.0156 19.7944L12.5938 22.7007H0.5V1.70068ZM24.1719 10.7007L27.5 14.0288L25.5312 15.9976L22.2031 12.6694L24.1719 10.7007ZM21.1719 13.7007L24.5 17.0288L17.8438 23.6382L14 24.2007L14.5156 20.3101L21.1719 13.7007Z" fill="#05315A"/>
</svg>
