<svg width="19" height="16" viewBox="0 0 19 16" fill="none" xmlns="http://www.w3.org/2000/svg">
<path id="Mask" fill-rule="evenodd" clip-rule="evenodd" d="M18.6936 2.519C18.0226 2.816 17.3026 3.017 16.5466 3.108C17.3186 2.645 17.9116 1.913 18.1906 1.04C17.4676 1.469 16.6686 1.779 15.8166 1.947C15.1346 1.22 14.1636 0.766998 13.0876 0.766998C11.0236 0.766998 9.35056 2.44 9.35056 4.504C9.35056 4.797 9.38356 5.082 9.44756 5.356C6.34156 5.2 3.58656 3.712 1.74356 1.451C1.42256 2.003 1.23756 2.645 1.23756 3.33C1.23756 4.627 1.89756 5.77 2.90056 6.441C2.28856 6.421 1.71156 6.253 1.20756 5.973C1.20756 5.989 1.20756 6.004 1.20756 6.02C1.20756 7.832 2.49656 9.341 4.20556 9.685C3.89256 9.771 3.56156 9.816 3.22156 9.816C2.98056 9.816 2.74656 9.793 2.51856 9.75C2.99456 11.234 4.37456 12.315 6.01056 12.346C4.73156 13.348 3.11956 13.946 1.36856 13.946C1.06656 13.946 0.769563 13.928 0.476562 13.893C2.13056 14.954 4.09456 15.573 6.20556 15.573C13.0806 15.573 16.8396 9.878 16.8396 4.938C16.8396 4.777 16.8366 4.616 16.8286 4.455C17.5596 3.927 18.1926 3.269 18.6936 2.519Z" fill="#4D6AFF"/>
</svg>
