<svg width="31" height="25" viewBox="0 0 31 25" fill="none" xmlns="http://www.w3.org/2000/svg">
<path d="M0.5 0.120605H20V4.62061H23H23.6094L24.0312 5.08936L28.5312 9.58936L29 10.0112V10.6206V12.1206V13.6206V16.6206H30.5V19.6206H29H27.5C27.5 22.105 25.4844 24.1206 23 24.1206C20.5156 24.1206 18.5 22.105 18.5 19.6206H12.5C12.5 22.105 10.4844 24.1206 8 24.1206C5.51562 24.1206 3.5 22.105 3.5 19.6206H0.5V0.120605ZM26 11.2769L22.3438 7.62061H22.25H20V12.1206H26V11.3706V11.2769ZM10.25 19.6206C10.25 18.8237 9.78125 18.1206 9.125 17.6987C8.42188 17.2769 7.53125 17.2769 6.875 17.6987C6.17188 18.1206 5.75 18.8237 5.75 19.6206C5.75 20.4644 6.17188 21.1675 6.875 21.5894C7.53125 22.0112 8.42188 22.0112 9.125 21.5894C9.78125 21.1675 10.25 20.4644 10.25 19.6206ZM23 21.8706C23.7969 21.8706 24.5 21.4487 24.9219 20.7456C25.3438 20.0894 25.3438 19.1987 24.9219 18.4956C24.5 17.8394 23.7969 17.3706 23 17.3706C22.1562 17.3706 21.4531 17.8394 21.0312 18.4956C20.6094 19.1987 20.6094 20.0894 21.0312 20.7456C21.4531 21.4487 22.1562 21.8706 23 21.8706Z" fill="#05315A"/>
</svg>
