<?xml version="1.0" standalone="no"?>
<!DOCTYPE svg PUBLIC "-//W3C//DTD SVG 20010904//EN"
 "http://www.w3.org/TR/2001/REC-SVG-20010904/DTD/svg10.dtd">
<svg version="1.0" xmlns="http://www.w3.org/2000/svg"
 width="435.000000pt" height="116.000000pt" viewBox="0 0 435.000000 116.000000"
 preserveAspectRatio="xMidYMid meet">

<g transform="translate(0.000000,116.000000) scale(0.100000,-0.100000)"
fill="#000000" stroke="none">
<path d="M735 1150 c-264 -5 -283 -7 -340 -29 -267 -106 -416 -376 -361 -654
42 -211 207 -388 412 -442 75 -19 203 -19 278 0 159 42 312 171 375 318 44
102 51 170 51 495 l0 310 -31 6 c-17 3 -48 5 -68 4 -20 -1 -162 -5 -316 -8z
m275 -350 l0 -210 -210 0 -210 0 0 210 0 210 210 0 210 0 0 -210z m-430 -440
l0 -210 -29 0 c-53 0 -159 40 -212 80 -95 71 -160 179 -175 288 l-7 52 212 0
211 0 0 -210z m430 188 c0 -38 -25 -120 -53 -175 -56 -110 -194 -208 -310
-220 l-57 -6 0 212 0 211 210 0 210 0 0 -22z"/>
<path d="M1680 810 c-21 -5 -25 -12 -25 -40 0 -29 5 -36 28 -44 30 -11 53 -2
71 27 22 34 -25 70 -74 57z"/>
<path d="M4000 560 l0 -250 45 0 45 0 0 75 c0 98 15 98 71 4 23 -39 48 -73 55
-76 6 -2 30 -3 52 -1 l40 3 -44 75 c-24 41 -54 83 -66 93 l-22 19 21 16 c18
15 93 125 93 137 0 3 -21 5 -47 5 l-48 0 -40 -72 c-22 -39 -46 -73 -52 -76
-10 -3 -13 31 -13 147 l0 151 -45 0 -45 0 0 -250z"/>
<path d="M3125 741 c-13 -5 -22 -20 -25 -42 -4 -26 -10 -35 -27 -37 -19 -3
-23 -10 -23 -37 0 -27 4 -34 23 -37 21 -3 22 -7 25 -123 2 -107 5 -122 25
-143 20 -21 29 -23 84 -20 34 2 65 7 69 10 3 4 4 22 0 41 -6 31 -8 33 -41 29
-30 -4 -36 -1 -45 23 -5 14 -10 62 -10 106 l0 79 45 0 c45 0 45 0 45 34 0 34
-1 35 -42 38 -43 3 -43 3 -46 46 -3 44 -13 50 -57 33z"/>
<path d="M1886 659 c-22 -5 -41 -11 -43 -13 -2 -1 2 -17 8 -35 8 -24 16 -31
28 -26 9 4 39 9 67 12 57 6 84 -11 84 -53 0 -20 -5 -24 -30 -24 -55 0 -129
-21 -154 -45 -20 -19 -26 -34 -26 -67 0 -24 7 -53 15 -65 33 -46 133 -54 170
-13 23 25 32 25 40 0 5 -15 15 -20 42 -20 32 0 35 2 29 23 -3 12 -6 79 -6 149
0 119 -1 129 -24 155 -21 24 -31 27 -92 30 -38 1 -87 -2 -108 -8z m142 -217
c7 -44 -47 -79 -94 -62 -20 8 -25 16 -22 37 6 52 109 74 116 25z"/>
<path d="M2310 644 c-31 -27 -31 -27 -37 -5 -4 16 -13 21 -39 21 l-34 0 0
-175 0 -175 45 0 44 0 3 126 c3 125 3 127 30 147 25 19 28 19 52 3 26 -16 26
-18 26 -146 l0 -130 45 0 45 0 0 119 c0 99 3 122 18 139 24 28 54 35 78 18 17
-13 19 -29 22 -145 l4 -131 44 0 44 0 0 118 c-1 204 -19 242 -110 242 -38 0
-55 -6 -79 -26 l-31 -26 -21 26 c-29 37 -104 37 -149 0z"/>
<path d="M2808 654 c-37 -20 -54 -80 -35 -126 17 -41 31 -52 91 -75 27 -10 54
-25 59 -35 25 -39 -44 -62 -109 -38 -31 12 -40 6 -49 -32 -6 -24 -3 -27 32
-37 107 -30 193 -3 214 69 19 64 -4 103 -85 139 -69 32 -79 41 -70 65 7 18 67
22 107 7 22 -9 25 -6 34 24 10 32 9 34 -20 44 -43 16 -137 13 -169 -5z"/>
<path d="M3378 658 c-29 -7 -38 -15 -38 -31 0 -41 11 -45 72 -34 74 13 108 0
108 -41 0 -28 -2 -29 -60 -35 -123 -13 -177 -76 -139 -161 26 -57 126 -71 175
-25 23 22 44 19 44 -7 0 -9 11 -14 33 -14 l32 0 0 150 0 150 -27 27 c-24 24
-37 28 -95 30 -38 1 -85 -3 -105 -9z m142 -216 c0 -52 -62 -85 -100 -54 -43
34 -3 79 73 81 23 1 27 -3 27 -27z"/>
<path d="M3747 652 c-46 -27 -68 -82 -68 -167 0 -129 44 -185 147 -185 54 0
114 16 114 30 0 5 -4 20 -9 33 -9 22 -13 23 -64 19 -49 -4 -56 -2 -75 23 -24
30 -31 120 -12 155 14 26 63 41 102 30 17 -6 32 -9 33 -7 1 1 7 17 13 35 10
31 9 33 -14 42 -41 16 -136 11 -167 -8z"/>
<path d="M1660 475 c0 -192 -8 -235 -42 -235 -14 0 -18 -8 -18 -40 0 -39 1
-40 35 -40 19 0 45 5 58 11 45 21 51 49 55 277 l4 212 -46 0 -46 0 0 -185z"/>
</g>
</svg>
