<svg width="91" height="89" viewBox="0 0 91 89" fill="none" xmlns="http://www.w3.org/2000/svg">
<path d="M44.7228 43.0152C44.8799 43.0147 45.037 43.0141 45.1941 43.0134C45.624 43.0118 46.0539 43.0122 46.4837 43.0131C46.9481 43.0136 47.4124 43.0122 47.8767 43.0111C48.7857 43.0092 49.6947 43.0091 50.6036 43.0097C51.3426 43.0101 52.0816 43.01 52.8205 43.0094C52.9258 43.0093 53.031 43.0092 53.1395 43.0091C53.3533 43.0089 53.5671 43.0088 53.781 43.0086C55.7854 43.0071 57.7898 43.0077 59.7943 43.009C61.627 43.0101 63.4598 43.0086 65.2925 43.006C67.1755 43.0033 69.0586 43.0023 70.9416 43.003C71.9983 43.0034 73.055 43.0031 74.1117 43.0012C75.0113 42.9996 75.9109 42.9995 76.8104 43.0014C77.2691 43.0024 77.7278 43.0026 78.1865 43.0009C78.607 42.9994 79.0274 42.9999 79.4479 43.0021C79.5994 43.0025 79.751 43.0021 79.9025 43.001C81.1069 42.9925 82.2854 43.1643 83.1932 44.0465C83.4684 44.36 83.7093 44.6896 83.9444 45.0353C84.0255 45.1515 84.0255 45.1515 84.1082 45.2701C85.9227 48.0936 86.0245 51.8037 85.9966 55.0605C85.9955 55.2833 85.9945 55.5062 85.9936 55.7291C85.9913 56.2661 85.9876 56.8031 85.9832 57.3402C85.8088 57.3408 85.8088 57.3408 85.631 57.3415C85.1932 57.3439 84.7554 57.3499 84.3176 57.3569C84.1294 57.3594 83.9412 57.361 83.7529 57.3616C82.4297 57.3667 81.0775 57.3771 80.0747 58.3976C79.3852 59.3225 79.214 60.4433 79.2009 61.5772C79.1998 61.6577 79.1988 61.7381 79.1977 61.821C79.1943 62.0849 79.1916 62.3489 79.189 62.6128C79.1868 62.7966 79.1845 62.9804 79.1822 63.1642C79.1763 63.6464 79.171 64.1287 79.1658 64.6109C79.1604 65.1036 79.1544 65.5963 79.1485 66.089C79.137 67.0546 79.1261 68.0202 79.1156 68.9858C74.702 68.9883 70.2884 68.9903 65.8748 68.9914C65.3543 68.9916 64.8339 68.9917 64.3134 68.9919C64.2097 68.9919 64.1061 68.9919 63.9994 68.9919C62.3192 68.9924 60.639 68.9933 58.9588 68.9943C57.2361 68.9953 55.5134 68.9959 53.7907 68.9962C52.7269 68.9963 51.663 68.9968 50.5991 68.9977C49.8706 68.9983 49.1421 68.9984 48.4136 68.9983C47.9926 68.9982 47.5716 68.9983 47.1507 68.9989C46.6954 68.9995 46.2401 68.9993 45.7848 68.999C45.6502 68.9994 45.5157 68.9997 45.3771 69C45.1957 68.9997 45.1957 68.9997 45.0106 68.9993C44.9053 68.9994 44.8001 68.9994 44.6916 68.9995C44.4561 68.9858 44.4561 68.9858 44.3488 68.876C44.3372 68.6342 44.3331 68.392 44.3319 68.1499C44.3313 68.074 44.3308 67.998 44.3302 67.9198C44.329 67.7541 44.3281 67.5884 44.3274 67.4227C44.3261 67.1592 44.324 66.8958 44.3217 66.6323C44.3151 65.8829 44.3093 65.1335 44.3057 64.3841C44.3034 63.9259 44.2996 63.4678 44.2949 63.0096C44.2934 62.836 44.2924 62.6624 44.2921 62.4888C44.289 61.0828 44.2394 59.7103 43.383 58.5487C43.3211 58.449 43.2591 58.3493 43.1952 58.2465C42.5854 57.6222 41.7233 57.4388 40.8911 57.4191C40.7782 57.4161 40.7782 57.4161 40.6631 57.413C40.3414 57.4044 40.0197 57.3969 39.698 57.3894C39.463 57.3837 39.2281 57.3774 38.9932 57.3711C38.8525 57.3677 38.7118 57.3644 38.5668 57.361C38.2324 57.3402 38.2324 57.3402 38.0178 57.2303C37.9396 52.8323 37.9847 47.5821 41.1024 44.174C42.1524 43.1437 43.3187 43.0085 44.7228 43.0152Z" fill="#96989A"/>
<path d="M17.7685 0.351907C18.3145 0.808611 18.6191 1.38916 18.7414 2.08875C18.7468 2.59677 18.6167 3.03643 18.4171 3.49994C18.3772 3.68005 18.34 3.86085 18.309 4.0427C18.3803 4.0427 18.4517 4.0427 18.5252 4.0427C18.49 4.09731 18.4547 4.15192 18.4184 4.20818C18.27 4.57272 18.2822 4.91578 18.2879 5.30293C18.2882 5.38183 18.2885 5.46072 18.2888 5.54201C18.29 5.79308 18.2927 6.04411 18.2955 6.29517C18.2966 6.46577 18.2976 6.63637 18.2984 6.80698C18.3008 7.22438 18.3045 7.64176 18.309 8.05915C18.4036 8.07246 18.4982 8.08577 18.5957 8.09949C18.7208 8.1178 18.846 8.13611 18.9749 8.15498C19.0985 8.17277 19.2221 8.19056 19.3494 8.20889C20.129 8.35285 20.8118 8.66514 21.4438 9.14468C21.5009 9.18512 21.558 9.22556 21.6169 9.26722C22.4273 9.88964 23.0078 10.8643 23.4976 11.7499C23.4976 11.8216 23.4976 11.8932 23.4976 11.967C23.5689 11.967 23.6403 11.967 23.7138 11.967C23.8208 12.182 23.9278 12.3969 24.0381 12.6184C23.999 12.5096 23.96 12.4009 23.9198 12.2889C23.8691 12.1432 23.8184 11.9975 23.7678 11.8517C23.742 11.7804 23.7163 11.7091 23.6897 11.6357C23.5239 11.1528 23.4708 10.7475 23.4976 10.2302C23.9792 10.2993 24.3823 10.4862 24.815 10.6983C26.0088 11.2825 26.0088 11.2825 27.2809 11.6414C27.3318 11.58 27.3827 11.5185 27.4351 11.4552C27.5024 11.3756 27.5697 11.296 27.639 11.214C27.7387 11.095 27.7387 11.095 27.8404 10.9735C28.0376 10.773 28.0376 10.773 28.3619 10.6644C28.3903 10.6028 28.4187 10.5413 28.448 10.4778C28.639 10.1142 28.9423 9.8899 29.2537 9.63316C29.3446 9.55613 29.3446 9.55613 29.4374 9.47754C30.4832 8.60191 30.4832 8.60191 30.8481 8.60191C30.8481 8.53027 30.8481 8.45862 30.8481 8.38481C33.5646 6.87167 33.5646 6.87167 34.9878 7.25815C36.3223 7.8425 37.1238 9.54132 37.6294 10.8226C37.7703 11.2188 37.9003 11.6175 38.0291 12.0178C38.3062 12.8776 38.5989 13.7131 38.9823 14.5316C39.0179 14.608 39.0534 14.6845 39.0901 14.7632C39.2604 15.1155 39.4219 15.3957 39.7119 15.6578C39.7677 15.7653 39.8234 15.8728 39.8808 15.9835C40.0881 16.3627 40.3495 16.6527 40.6443 16.9673C42.0323 18.4682 43.041 20.0112 42.9987 22.1193C42.9625 22.7471 42.7489 23.1416 42.3062 23.5822C42.2222 23.6691 42.2222 23.6691 42.1365 23.7577C41.2211 24.6148 40.1254 25.1315 38.9553 25.5361C38.8319 25.5806 38.7086 25.6251 38.5816 25.671C37.6911 25.9829 36.7938 26.2259 35.8773 26.4468C35.7887 26.4681 35.7002 26.4894 35.6089 26.5114C35.5298 26.5301 35.4507 26.5488 35.3692 26.5681C35.1635 26.6169 35.1635 26.6169 34.9557 26.7302C34.8612 26.9679 34.7772 27.2099 34.6982 27.4532C34.6745 27.5253 34.6508 27.5975 34.6264 27.6718C34.5507 27.9027 34.4762 28.134 34.4017 28.3653C34.3507 28.5217 34.2996 28.6781 34.2485 28.8345C34.123 29.2183 33.9986 29.6025 33.8748 29.9868C33.3355 29.8257 33.1183 29.6936 32.7938 29.2269C32.7018 29.1153 32.7018 29.1153 32.608 29.0013C30.5797 26.5178 28.8409 23.7043 27.4752 20.8031C27.0865 19.9896 26.7417 19.511 25.9416 19.0726C24.727 18.3915 24.1869 16.9751 23.6665 15.7528C23.589 15.574 23.589 15.574 23.5099 15.3916C23.2875 14.878 23.0677 14.3635 22.8545 13.8459C22.2372 12.3577 21.4021 10.6002 19.8899 9.85705C19.5186 9.71781 19.1544 9.63614 18.7642 9.56829C18.6583 9.54967 18.5525 9.53105 18.4434 9.51186C18.3234 9.49131 18.3234 9.49131 18.2009 9.47034C18.2125 11.917 18.2247 14.3637 18.2376 16.8104C18.2436 17.9463 18.2493 19.0823 18.2547 20.2182C18.2593 21.208 18.2643 22.1977 18.2697 23.1874C18.2726 23.7118 18.2753 24.2362 18.2775 24.7606C18.2797 25.2535 18.2823 25.7465 18.2853 26.2395C18.2863 26.421 18.2871 26.6025 18.2877 26.7839C18.2886 27.0306 18.2902 27.2773 18.2919 27.524C18.2926 27.6623 18.2933 27.8007 18.294 27.9433C18.2742 28.2393 18.2742 28.2393 18.4171 28.3585C18.6463 28.3913 18.8762 28.4199 19.1062 28.4467C20.5917 28.6542 21.8861 29.2352 22.849 30.421C23.784 31.7373 24.4607 33.1511 25.0582 34.6478C26.0884 37.2177 26.0884 37.2177 28.2192 38.8822C28.839 39.0799 29.4492 39.0482 30.0914 38.9967C29.854 38.7578 29.6158 38.5201 29.3753 38.2843C28.9906 37.8878 28.8708 37.6628 28.8686 37.1174C28.8839 36.5035 28.9698 36.1224 29.3989 35.665C29.815 35.296 30.1417 35.1523 30.6995 35.1363C31.1876 35.1701 31.5403 35.2052 31.929 35.523C32.3832 36.1423 32.6816 36.7477 32.6262 37.527C32.4466 38.5464 32.0407 39.3881 31.1943 40.0071C30.3037 40.5474 29.4282 40.632 28.4113 40.4736C27.0828 40.1363 25.7674 39.2125 25.0515 38.0468C25.0116 37.985 24.9718 37.9231 24.9307 37.8594C24.4679 37.123 24.157 36.3225 23.8447 35.5132C22.9187 32.988 22.9187 32.988 21.2559 30.9451C21.1348 30.8469 21.1348 30.8469 21.0114 30.7467C21.0114 30.675 21.0114 30.6034 21.0114 30.5296C20.9378 30.5005 20.8642 30.4713 20.7884 30.4414C20.4709 30.3125 20.4709 30.3125 20.1466 30.1428C19.5695 29.9129 19.5695 29.9129 18.309 29.8782C18.309 47.0372 18.309 64.1961 18.309 81.875C19.3256 82.1974 19.3256 82.1974 20.3628 82.5263C21.9495 83.2285 23.7961 84.307 24.4704 86C19.2624 86 14.0544 86 8.68848 86C8.68848 85.5401 8.94538 85.3363 9.24247 85.0162C9.30005 84.9539 9.35762 84.8916 9.41694 84.8274C10.4794 83.7141 11.7892 82.8643 13.2488 82.3906C13.3345 82.3615 13.4203 82.3324 13.5087 82.3024C13.9151 82.1681 14.1977 82.0921 14.6337 82.0921C14.6356 77.1157 14.6373 72.1394 14.6383 67.163C14.6383 67.0894 14.6384 67.0158 14.6384 66.94C14.6387 65.3408 14.639 63.7416 14.6393 62.1424C14.6394 61.3583 14.6395 60.5741 14.6397 59.7899C14.6397 59.6728 14.6397 59.6728 14.6397 59.5534C14.6402 57.0217 14.641 54.49 14.642 51.9583C14.643 49.3577 14.6437 46.7572 14.6439 44.1566C14.6439 43.7897 14.644 43.4228 14.644 43.0559C14.644 42.9837 14.644 42.9115 14.644 42.8371C14.6441 41.7446 14.6446 40.652 14.6452 39.5595C14.6458 38.3177 14.6462 37.0759 14.646 35.8341C14.6459 35.1998 14.6461 34.5655 14.6466 33.9313C14.6472 33.3516 14.6472 32.772 14.6468 32.1923C14.6468 31.9816 14.6469 31.771 14.6472 31.5603C14.6477 31.2759 14.6474 30.9915 14.647 30.707C14.6473 30.6236 14.6476 30.5401 14.6479 30.4541C14.6803 30.0805 14.6803 30.0805 14.5256 29.7697C13.511 29.6369 12.4098 29.9031 11.5733 30.4956C11.437 30.6116 11.3041 30.7316 11.1747 30.8552C11.0687 30.9551 11.0687 30.9551 10.9606 31.0571C9.97753 32.0729 9.45681 33.3827 8.96624 34.6869C8.34367 36.3399 7.58756 38.1663 6.20228 39.3223C6.14515 39.3719 6.08802 39.4214 6.02916 39.4724C5.21672 40.1182 4.32899 40.3374 3.31072 40.3468C3.2341 40.3479 3.15748 40.349 3.07854 40.3501C2.15674 40.3348 1.39803 39.8878 0.689404 39.3223C-0.0368127 38.4434 -0.0540769 37.3771 0.0408301 36.2829C0.172151 35.8004 0.417398 35.5647 0.817768 35.2652C1.409 34.9715 1.96365 34.9232 2.60135 35.0752C3.14657 35.4264 3.48016 35.8934 3.68357 36.5131C3.78216 37.0592 3.65861 37.4378 3.3918 37.9111C3.10599 38.2412 2.94091 38.4239 2.52703 38.5625C2.49136 38.6341 2.45569 38.7058 2.41893 38.7796C2.38326 38.8154 2.34759 38.8512 2.31084 38.8881C3.41629 38.9414 4.36093 38.966 5.26869 38.2533C6.5261 37.084 7.13403 35.3917 7.739 33.8183C8.50658 31.8313 9.54369 29.8364 11.5327 28.8606C12.5484 28.4269 13.5399 28.2635 14.6337 28.1414C14.6337 21.9799 14.6337 15.8185 14.6337 9.47034C13.7267 9.28815 12.9519 9.55882 12.1678 10.0335C10.6879 11.0597 10.0417 12.6567 9.39786 14.2806C8.12731 17.4816 8.12731 17.4816 6.85086 18.6973C6.78523 18.7615 6.7196 18.8258 6.65198 18.8919C5.72483 19.747 4.66125 20.049 3.41544 20.0275C2.62664 19.965 2.0026 19.6519 1.33798 19.2401C1.33798 19.1684 1.33798 19.0968 1.33798 19.023C1.23096 18.9872 1.12395 18.9513 1.01369 18.9144C0.891239 18.7016 0.891239 18.7016 0.783988 18.4395C0.748037 18.3536 0.712087 18.2677 0.675048 18.1791C0.488206 17.6974 0.446366 17.2757 0.439433 16.7637C0.43473 16.6499 0.43473 16.6499 0.429932 16.5337C0.42317 15.9753 0.541458 15.6669 0.905595 15.2236C1.50489 14.7692 1.99246 14.6035 2.74322 14.6809C3.38851 14.9096 3.73 15.3255 4.0809 15.9021C4.21225 16.4825 4.19655 17.0288 3.88287 17.5456C3.52919 17.9759 3.30849 18.1917 2.74322 18.2631C2.74322 18.3347 2.74322 18.4064 2.74322 18.4802C4.17305 18.5896 4.17305 18.5896 5.44561 18.046C5.51445 17.9995 5.58328 17.9531 5.6542 17.9052C7.04708 16.8493 7.61496 14.9094 8.24127 13.3539C9.10417 11.2387 10.0925 9.34629 12.2692 8.40516C13.0793 8.08889 13.7649 7.94064 14.6337 7.9506C14.6418 7.5142 14.6477 7.07784 14.6516 6.64139C14.6532 6.49315 14.6554 6.34491 14.6582 6.19669C14.6622 5.98275 14.6638 5.76877 14.6654 5.5548C14.6671 5.42633 14.6688 5.29786 14.6706 5.16549C14.6296 4.76169 14.5028 4.50405 14.3095 4.15125C14.3095 4.07961 14.3095 4.00796 14.3095 3.93415C14.3808 3.89832 14.4521 3.8625 14.5256 3.82559C14.5022 3.75605 14.4788 3.6865 14.4547 3.61485C14.1935 2.80006 14.0773 2.13688 14.4138 1.32761C14.6921 0.790684 15.0296 0.379501 15.5931 0.141586C16.3453 -0.0896115 17.0806 -0.0499734 17.7685 0.351907Z" fill="#96989A"/>
<path d="M44.0134 70.0141C48.4532 70.0116 52.893 70.0097 57.3328 70.0085C57.8564 70.0084 58.3799 70.0083 58.9035 70.0081C59.0078 70.0081 59.112 70.0081 59.2194 70.008C60.9096 70.0075 62.5997 70.0067 64.2899 70.0057C66.0228 70.0047 67.7557 70.0041 69.4886 70.0038C70.5588 70.0037 71.629 70.0032 72.6992 70.0023C73.432 70.0017 74.1648 70.0016 74.8977 70.0017C75.3211 70.0018 75.7446 70.0017 76.1681 70.0011C76.626 70.0005 77.084 70.0007 77.542 70.001C77.6774 70.0006 77.8127 70.0003 77.9522 70C78.1347 70.0003 78.1347 70.0003 78.3208 70.0007C78.4267 70.0006 78.5326 70.0006 78.6417 70.0005C78.8786 70.0141 78.8786 70.0141 78.9866 70.1235C78.997 70.3284 78.9997 70.5337 78.9996 70.7389C78.9998 70.9393 78.9998 70.9393 79 71.1438C78.9996 71.2932 78.9992 71.4426 78.9988 71.5921C78.9988 71.7483 78.9988 71.9046 78.9989 72.0609C78.9989 72.4865 78.9983 72.9121 78.9975 73.3377C78.9968 73.782 78.9968 74.2263 78.9966 74.6705C78.9963 75.5124 78.9954 76.3543 78.9943 77.1962C78.9931 78.1544 78.9925 79.1127 78.992 80.0709C78.9909 82.0425 78.989 84.0142 78.9866 85.9859C74.5468 85.9884 70.107 85.9903 65.6672 85.9915C65.1436 85.9916 64.6201 85.9917 64.0965 85.9919C63.9922 85.9919 63.888 85.9919 63.7806 85.992C62.0904 85.9925 60.4003 85.9933 58.7101 85.9943C56.9772 85.9953 55.2443 85.996 53.5114 85.9962C52.4412 85.9963 51.371 85.9968 50.3008 85.9977C49.568 85.9983 48.8352 85.9984 48.1023 85.9983C47.6789 85.9982 47.2554 85.9983 46.8319 85.9989C46.374 85.9995 45.916 85.9993 45.458 85.999C45.3226 85.9994 45.1873 85.9997 45.0478 86C44.8653 85.9997 44.8653 85.9997 44.6792 85.9993C44.5733 85.9994 44.4674 85.9994 44.3583 85.9995C44.1214 85.9859 44.1214 85.9859 44.0134 85.8765C44.003 85.6716 44.0003 85.4663 44.0004 85.2611C44.0003 85.1275 44.0002 84.9939 44 84.8562C44.0004 84.7068 44.0008 84.5574 44.0012 84.4079C44.0012 84.2517 44.0012 84.0954 44.0011 83.9391C44.0011 83.5135 44.0017 83.0879 44.0025 82.6623C44.0032 82.218 44.0032 81.7738 44.0034 81.3295C44.0037 80.4876 44.0046 79.6457 44.0057 78.8038C44.0069 77.8456 44.0075 76.8873 44.008 75.9291C44.0091 73.9575 44.011 71.9858 44.0134 70.0141Z" fill="#96989A"/>
<path d="M36.0307 58.0105C36.1601 58.01 36.2896 58.0094 36.4229 58.0088C36.6959 58.0081 36.9688 58.0082 37.2417 58.0092C37.6572 58.0101 38.0725 58.007 38.4879 58.0035C38.754 58.0033 39.0201 58.0034 39.2862 58.0037C39.4709 58.0019 39.4709 58.0019 39.6593 58C40.4773 58.0071 41.2696 58.0977 41.9178 58.6637C42.5509 59.3383 42.9999 60.3954 42.9994 61.3397C42.9996 61.4279 42.9998 61.5162 43 61.6071C42.9997 61.7035 42.9994 61.7999 42.9991 61.8991C42.9992 62.002 42.9993 62.1048 42.9993 62.2107C42.9995 62.5561 42.9989 62.9015 42.9984 63.2469C42.9983 63.4941 42.9983 63.7414 42.9984 63.9886C42.9984 64.6607 42.9978 65.3328 42.9971 66.0048C42.9964 66.7069 42.9964 67.4089 42.9962 68.111C42.996 69.2896 42.9953 70.4682 42.9944 71.6468C42.9934 72.8607 42.9926 74.0747 42.9922 75.2887C42.9922 75.3635 42.9921 75.4383 42.9921 75.5154C42.992 75.8908 42.9918 76.2662 42.9917 76.6416C42.9906 79.7559 42.9887 82.8702 42.9864 85.9844C42.3266 85.9844 41.6669 85.9844 40.9871 85.9844C41.0036 86.6013 41.0036 86.6013 41.025 87.2179C41.0329 87.8033 40.9604 88.1519 40.5662 88.6025C40.0237 88.9618 39.5629 88.9808 38.9397 88.9809C38.8447 88.9818 38.7497 88.9826 38.6519 88.9835C38.4516 88.9846 38.2513 88.985 38.051 88.9845C37.7468 88.9844 37.4428 88.9889 37.1387 88.9937C36.9432 88.9943 36.7478 88.9946 36.5523 88.9946C36.4625 88.9964 36.3727 88.9982 36.2802 89C35.6343 88.9924 35.0607 88.8412 34.5682 88.3844C34.4507 88.0045 34.4494 87.6628 34.463 87.2662C34.4632 87.0679 34.4632 86.8696 34.463 86.6713C34.4651 86.584 34.4673 86.4966 34.4695 86.4066C34.4853 86.201 34.4853 86.201 34.3577 86.0935C34.2037 86.0791 34.0491 86.0713 33.8945 86.0667C33.8008 86.0631 33.7072 86.0595 33.6107 86.0558C33.412 86.0491 33.2133 86.0429 33.0146 86.0371C32.9208 86.0333 32.827 86.0296 32.7304 86.0258C32.644 86.023 32.5576 86.0203 32.4686 86.0175C32.2532 85.9844 32.2532 85.9844 32.0427 85.7662C32.0217 85.454 32.0139 85.1523 32.0153 84.8399C32.0149 84.7429 32.0145 84.6458 32.0141 84.5459C32.013 84.2187 32.0134 83.8915 32.0138 83.5644C32.0134 83.3306 32.0128 83.0967 32.0122 82.8629C32.0108 82.2259 32.0107 81.5889 32.011 80.9518C32.0111 80.4198 32.0106 79.8877 32.0101 79.3556C32.0089 78.0991 32.0089 76.8426 32.0095 75.586C32.0101 74.2919 32.0088 72.9979 32.0066 71.7038C32.0047 70.592 32.0041 69.4803 32.0045 68.3686C32.0046 67.705 32.0044 67.0414 32.0029 66.3778C32.0016 65.7523 32.0018 65.1269 32.0032 64.5015C32.0034 64.273 32.0031 64.0444 32.0023 63.8159C31.9896 60.2435 31.9896 60.2435 33.1883 58.9314C34.0477 58.0878 34.8885 58.0076 36.0307 58.0105Z" fill="#96989A"/>
<path d="M83.0621 58.0233C83.1785 58.022 83.2949 58.0206 83.4149 58.0191C83.5393 58.0189 83.6638 58.0186 83.792 58.0184C83.9215 58.0177 84.051 58.0169 84.1844 58.0162C84.4582 58.0151 84.7319 58.0146 85.0056 58.0146C85.4222 58.0141 85.8387 58.0102 86.2552 58.006C86.5218 58.0054 86.7884 58.005 87.055 58.0048C87.2404 58.0024 87.2404 58.0024 87.4295 58C88.2466 58.0047 89.0373 58.0922 89.6861 58.6573C91.1616 60.2357 90.9977 62.5299 90.9919 64.5591C90.992 64.7925 90.9922 65.0258 90.9925 65.2592C90.993 65.8878 90.9922 66.5165 90.9912 67.1452C90.9902 67.8041 90.9904 68.463 90.9905 69.1219C90.9904 70.2264 90.9895 71.3309 90.988 72.4354C90.9864 73.7137 90.9858 74.992 90.9859 76.2702C90.9859 77.5008 90.9854 78.7313 90.9845 79.9619C90.9842 80.4856 90.984 81.0093 90.9839 81.5331C90.9838 82.148 90.9832 82.763 90.9821 83.3779C90.9818 83.6041 90.9817 83.8304 90.9817 84.0566C90.9818 84.364 90.9812 84.6713 90.9804 84.9787C90.9806 85.0694 90.9808 85.1601 90.9809 85.2535C90.9784 85.8672 90.9784 85.8672 90.8613 85.9888C90.6896 85.9983 90.5175 86.0005 90.3455 85.9995C90.2416 85.9991 90.1377 85.9988 90.0306 85.9984C89.8666 85.997 89.8666 85.997 89.6993 85.9956C89.5895 85.9951 89.4798 85.9947 89.3667 85.9941C89.0945 85.9929 88.8224 85.9911 88.5503 85.9888C88.5505 86.0887 88.5505 86.0887 88.5507 86.1905C88.5494 86.4939 88.5433 86.7971 88.5372 87.1004C88.5376 87.2575 88.5376 87.2575 88.538 87.4178C88.5177 88.1804 88.5177 88.1804 88.3062 88.4719C87.5685 89.1192 86.6746 88.9673 85.7617 88.9732C85.5563 88.975 85.3509 88.9779 85.1456 88.9821C82.8281 89.0291 82.8281 89.0291 82.1424 88.3894C82.0455 88.0876 82.025 87.9111 82.0271 87.6004C82.0274 87.5129 82.0278 87.4253 82.0281 87.3351C82.029 87.2441 82.0299 87.1532 82.0308 87.0595C82.0312 86.9673 82.0317 86.8751 82.0322 86.7801C82.0334 86.5527 82.0353 86.3253 82.0373 86.0979C81.9021 86.0913 81.7668 86.0847 81.6274 86.0779C81.4511 86.0687 81.2748 86.0595 81.0985 86.0502C80.9645 86.0438 80.9645 86.0438 80.8279 86.0372C80.7429 86.0326 80.6579 86.0281 80.5704 86.0233C80.4917 86.0193 80.413 86.0153 80.332 86.0112C80.1465 85.9888 80.1465 85.9888 80.0414 85.8797C80.0304 85.5624 80.0264 85.2476 80.0267 84.9302C80.0264 84.8293 80.0261 84.7285 80.0257 84.6246C80.0248 84.2839 80.0247 83.9433 80.0245 83.6026C80.024 83.3594 80.0235 83.1162 80.0229 82.8731C80.0215 82.2102 80.0209 81.5473 80.0204 80.8845C80.0201 80.4704 80.0197 80.0563 80.0192 79.6422C80.0179 78.4953 80.0168 77.3485 80.0165 76.2017C80.0165 76.1282 80.0164 76.0547 80.0164 75.979C80.0164 75.9054 80.0164 75.8317 80.0163 75.7559C80.0163 75.6066 80.0162 75.4574 80.0162 75.3082C80.0162 75.2341 80.0161 75.1601 80.0161 75.0838C80.0157 73.8865 80.0139 72.6892 80.0114 71.4919C80.0089 70.2622 80.0077 69.0325 80.0075 67.8028C80.0074 67.1126 80.0068 66.4224 80.0049 65.7322C80.0032 65.0821 80.0029 64.4321 80.0039 63.7821C80.0039 63.544 80.0035 63.3059 80.0024 63.0678C79.9897 59.9756 79.9897 59.9756 80.9869 58.8189C81.5975 58.3011 82.2709 58.0298 83.0621 58.0233Z" fill="#96989A"/>
<path d="M7.11673 86.0141C9.56145 86.0114 12.0062 86.0094 14.4509 86.0081C15.586 86.0075 16.721 86.0067 17.856 86.0054C18.845 86.0043 19.8339 86.0036 20.8228 86.0033C21.3468 86.0032 21.8708 86.0028 22.3947 86.002C22.8873 86.0012 23.3799 86.001 23.8725 86.0011C24.0538 86.0011 24.2351 86.0009 24.4165 86.0004C24.6629 85.9999 24.9094 86 25.1559 86.0003C25.2942 86.0002 25.4324 86.0001 25.5749 86C25.8808 86.0141 25.8808 86.0141 25.9857 86.1283C25.9961 86.3303 25.9994 86.5328 25.9996 86.7352C25.9997 86.858 25.9999 86.9808 26 87.1074C25.9996 87.2367 25.9992 87.366 25.9988 87.4992C25.9992 87.6285 25.9996 87.7578 26 87.891C25.9998 88.0752 25.9998 88.0752 25.9996 88.2631C25.9995 88.3767 25.9994 88.4902 25.9992 88.6072C25.9857 88.87 25.9857 88.87 25.8808 88.9843C25.6412 88.9956 25.4012 88.9987 25.1613 88.9988C25.0471 88.9991 25.0471 88.9991 24.9305 88.9993C24.6735 88.9998 24.4165 88.9994 24.1594 88.9991C23.9759 88.9992 23.7924 88.9994 23.6089 88.9997C23.109 89.0002 22.6091 89 22.1093 88.9996C21.5872 88.9993 21.0652 88.9996 20.5432 88.9998C19.6662 89 18.7893 88.9997 17.9123 88.9992C16.8973 88.9986 15.8822 88.9988 14.8671 88.9994C13.9971 88.9999 13.127 89 12.257 88.9997C11.7367 88.9995 11.2164 88.9995 10.6961 88.9999C10.207 89.0002 9.71787 89 9.22873 88.9993C9.04879 88.9991 8.86885 88.9992 8.68891 88.9994C8.44408 88.9997 8.19927 88.9994 7.95444 88.9988C7.81717 88.9987 7.6799 88.9987 7.53847 88.9987C7.22156 88.9843 7.22156 88.9843 7.0119 88.87C7.00887 88.4369 7.007 88.0037 7.00535 87.5706C7.00447 87.4472 7.00359 87.3238 7.00269 87.1966C7.00235 87.0788 7.00201 86.961 7.00166 86.8396C7.00111 86.7307 7.00057 86.6219 7 86.5097C7.0119 86.2425 7.0119 86.2425 7.11673 86.0141Z" fill="#96989A"/>
</svg>
