<svg width="72" height="63" viewBox="0 0 72 63" fill="none" xmlns="http://www.w3.org/2000/svg">
<path d="M2.90233 27.0024C3.01887 27.0021 3.13541 27.0018 3.25548 27.0015C3.64756 27.0008 4.03961 27.0015 4.43169 27.0022C4.715 27.002 4.99831 27.0017 5.28161 27.0013C5.97956 27.0005 6.6775 27.0007 7.37545 27.0013C8.21142 27.0019 9.04739 27.0014 9.88336 27.0008C11.5213 26.9998 13.1592 26.9999 14.7971 27.0004C16.2304 27.0009 17.6636 27.0011 19.0969 27.0008C19.2394 27.0008 19.2394 27.0008 19.3848 27.0008C19.7705 27.0007 20.1562 27.0007 20.5419 27.0006C24.1609 27 27.7799 27.0005 31.3989 27.0016C34.6155 27.0026 37.8321 27.0025 41.0486 27.0015C44.6611 27.0004 48.2737 27 51.8862 27.0006C52.2711 27.0007 52.6561 27.0008 53.041 27.0008C53.1832 27.0009 53.1832 27.0009 53.3282 27.0009C54.7608 27.0011 56.1934 27.0008 57.626 27.0003C59.2545 26.9998 60.8831 26.9999 62.5116 27.001C63.343 27.0015 64.1744 27.0018 65.0059 27.0011C65.7662 27.0005 66.5265 27.0008 67.2868 27.0019C67.5626 27.0021 67.8384 27.002 68.1143 27.0015C68.4877 27.0009 68.8612 27.0015 69.2346 27.0024C69.3429 27.002 69.4513 27.0015 69.5629 27.001C70.0865 27.0037 70.515 27.0122 70.9842 27.2289C71.933 28.0358 72.0057 28.7749 71.998 29.8697C71.9983 30.006 71.9988 30.1423 71.9994 30.2786C72.0007 30.6521 71.9997 31.0256 71.9984 31.3991C71.9973 31.8023 71.9983 32.2055 71.9991 32.6087C72.0002 33.3981 71.9994 34.1876 71.9979 34.977C71.9963 35.8962 71.9965 36.8154 71.9967 37.7345C71.9971 39.3744 71.9957 41.0142 71.9934 42.6541C71.9911 44.2457 71.9902 45.8372 71.9909 47.4288C71.9916 49.1619 71.9916 50.8949 71.9902 52.6279C71.9901 52.8127 71.9899 52.9974 71.9898 53.1822C71.9897 53.3185 71.9897 53.3185 71.9895 53.4576C71.9891 54.0985 71.9891 54.7394 71.9894 55.3803C71.9896 56.161 71.989 56.9418 71.9872 57.7226C71.9863 58.121 71.9858 58.5194 71.9864 58.9179C71.9869 59.2825 71.9863 59.647 71.9848 60.0116C71.9842 60.2063 71.9849 60.4009 71.9856 60.5956C71.9849 60.711 71.9842 60.8265 71.9835 60.9455C71.9834 61.0451 71.9832 61.1447 71.9831 61.2474C71.9506 61.5391 71.8571 61.7582 71.7106 62.0233C71.6307 62.0233 71.5508 62.0233 71.4685 62.0233C71.4511 62.1144 71.4511 62.1144 71.4334 62.2074C71.2926 62.5646 71.0289 62.6603 70.6377 62.8266C69.7788 63.0567 68.8447 62.994 67.9513 62.987C67.7168 62.9871 67.4823 62.9873 67.2477 62.9878C66.613 62.9883 65.9782 62.9858 65.3435 62.9827C64.678 62.9799 64.0126 62.9799 63.3472 62.9796C62.2299 62.9786 61.1126 62.9759 59.9953 62.9718C58.4214 62.9661 56.8476 62.9639 55.2737 62.9622C54.1815 62.961 53.0892 62.9589 51.997 62.9567C51.7327 62.9561 51.4685 62.9556 51.2042 62.9551C50.4505 62.9537 49.6969 62.9517 48.9433 62.9489C48.7153 62.9482 48.4874 62.9476 48.2595 62.9471C47.9474 62.9465 47.6354 62.9452 47.3233 62.9438C47.234 62.9438 47.1446 62.9437 47.0526 62.9437C45.4562 62.9341 45.4562 62.9341 44.9581 62.7272C44.9581 62.6609 44.9581 62.5945 44.9581 62.5261C44.8233 62.4919 44.8233 62.4919 44.6858 62.457C44.2854 62.2982 44.117 62.1243 43.8687 61.8222C43.7226 61.4581 43.7295 61.1247 43.7293 60.7456C43.7285 60.626 43.7285 60.626 43.7277 60.5041C43.7262 60.2361 43.7254 59.9681 43.7247 59.7002C43.7237 59.5084 43.7227 59.3166 43.7217 59.1249C43.7195 58.7115 43.7177 58.2982 43.7161 57.8848C43.7137 57.2317 43.7103 56.5785 43.7068 55.9253C43.6989 54.4209 43.6922 52.9164 43.6855 51.412C43.6794 50.0334 43.673 48.6548 43.6656 47.2762C43.6622 46.6264 43.6593 45.9767 43.6569 45.3269C43.6553 44.9232 43.6532 44.5196 43.6509 44.1159C43.65 43.9282 43.6493 43.7406 43.6487 43.5529C43.648 43.2974 43.6466 43.0419 43.6449 42.7864C43.6449 42.7115 43.6448 42.6367 43.6448 42.5596C43.6421 42.2488 43.6248 42.007 43.5055 41.7098C40.5759 41.2961 37.5632 41.3956 34.6026 41.4324C34.1046 41.4386 33.6065 41.4433 33.1085 41.4476C32.7183 41.4512 32.3281 41.4556 31.9379 41.4603C31.7542 41.4624 31.5705 41.4642 31.3868 41.4657C31.1305 41.4679 30.8743 41.4713 30.6181 41.475C30.4013 41.4775 30.4013 41.4775 30.1801 41.48C29.5678 41.517 28.9756 41.6104 28.3741 41.7098C28.3739 41.8118 28.3737 41.9137 28.3735 42.0188C28.3691 44.4997 28.3619 46.9807 28.3518 49.4616C28.347 50.6614 28.3431 51.8612 28.3413 53.0609C28.3397 54.1067 28.3364 55.1523 28.3312 56.198C28.3284 56.7517 28.3265 57.3054 28.3266 57.8591C28.3267 58.3804 28.3246 58.9016 28.3207 59.4229C28.3196 59.6141 28.3194 59.8053 28.3201 59.9965C28.3209 60.2579 28.3187 60.5191 28.3158 60.7805C28.3168 60.8559 28.3177 60.9313 28.3187 61.0091C28.3058 61.6675 28.017 62.0317 27.5721 62.5575C26.5629 63.1532 24.9279 62.9567 23.748 62.9544C23.5129 62.9547 23.2777 62.955 23.0426 62.9555C22.4068 62.9564 21.7711 62.956 21.1354 62.9554C20.4692 62.9549 19.8029 62.9553 19.1367 62.9557C18.0186 62.956 16.9005 62.9555 15.7823 62.9546C14.49 62.9535 13.1977 62.9538 11.9054 62.955C10.7947 62.9559 9.68395 62.956 8.57323 62.9555C7.91031 62.9552 7.2474 62.9551 6.58449 62.9558C5.9617 62.9564 5.33893 62.956 4.71614 62.9548C4.48767 62.9545 4.25919 62.9546 4.03072 62.955C3.7188 62.9556 3.40692 62.9549 3.095 62.9539C3.00469 62.9544 2.91437 62.9548 2.82131 62.9553C2.04313 62.9504 1.45224 62.796 0.804578 62.4444C0.712824 62.3961 0.621071 62.3477 0.526537 62.2979C0.163526 62.0307 0.0618777 61.7452 0.0175184 61.3482C0.0174134 61.2486 0.0173085 61.1491 0.0172004 61.0466C0.0164944 60.9313 0.0157884 60.8159 0.015061 60.6971C0.0155185 60.5708 0.0159759 60.4446 0.0164473 60.3145C0.0160816 60.1786 0.015611 60.0428 0.0150442 59.9069C0.0137977 59.5338 0.0140643 59.1606 0.0145817 58.7874C0.01488 58.3848 0.0137896 57.9823 0.0128824 57.5798C0.0113379 56.7911 0.0111224 56.0025 0.0114056 55.2138C0.0116214 54.5727 0.0114098 53.9316 0.0108942 53.2905C0.0108222 53.1993 0.0107502 53.1081 0.010676 53.0141C0.0105293 52.8288 0.0103823 52.6435 0.010235 52.4582C0.00891793 50.7199 0.00918056 48.9815 0.00991847 47.2431C0.010544 45.6531 0.00918235 44.0632 0.00688022 42.4732C0.00453443 40.8406 0.00353512 39.2079 0.00398997 37.5753C0.00422146 36.6587 0.00391986 35.7422 0.00220867 34.8256C0.000766347 34.0452 0.000596629 33.2647 0.00206229 32.4843C0.00277509 32.0862 0.00290851 31.6881 0.0014569 31.29C0.000142288 30.9253 0.000518017 30.5605 0.00221467 30.1958C0.0026863 30.002 0.00137967 29.8083 0 29.6145C0.00610448 28.8001 0.0696893 28.092 0.691092 27.4363C1.37942 26.9974 2.07112 26.9988 2.90233 27.0024Z" fill="#96989A"/>
<path d="M38.6466 1.10791C38.8156 1.22908 38.9846 1.35019 39.1537 1.47123C39.2339 1.52887 39.3141 1.58652 39.3967 1.64591C39.8167 1.94602 40.2474 2.23352 40.6787 2.52104C40.7974 2.60106 40.9161 2.68107 41.0385 2.76352C41.6462 3.17263 42.256 3.57683 42.8808 3.96628C43.4377 4.31499 43.9653 4.68839 44.4935 5.06909C44.8015 5.28516 45.1155 5.48777 45.4375 5.68773C46.0483 6.06814 46.633 6.47224 47.2177 6.88194C47.8839 7.34827 48.5597 7.8027 49.2395 8.25395C49.559 8.4663 49.8776 8.67968 50.1963 8.89297C50.5789 9.14895 50.9617 9.40482 51.3449 9.66015C53.9281 11.3822 53.9281 11.3822 54.6226 11.9183C54.9342 12.145 55.2297 12.2995 55.585 12.4655C55.8707 12.6255 56.1033 12.8152 56.3517 13.0167C56.9535 13.5022 57.5991 13.9068 58.2716 14.313C58.6064 14.5188 58.9331 14.7211 59.241 14.9566C59.241 15.0244 59.241 15.0922 59.241 15.1621C59.3253 15.1877 59.4095 15.2133 59.4964 15.2396C59.8697 15.382 60.1516 15.5567 60.475 15.7723C60.5357 15.8126 60.5965 15.8529 60.6591 15.8944C61.2061 16.2586 61.7469 16.6298 62.2872 17.0014C62.8582 17.3934 63.4396 17.7714 64.0266 18.1454C64.3249 18.3481 64.3249 18.3481 64.5641 18.5605C64.8216 18.7794 65.0797 18.9064 65.389 19.0675C65.7518 19.3011 66.1058 19.5441 66.4605 19.7869C66.649 19.9154 66.8376 20.0439 67.0262 20.1723C67.1506 20.2574 67.1506 20.2574 67.2775 20.3441C67.443 20.4562 67.6123 20.5641 67.7843 20.6685C67.8522 20.7167 67.9201 20.765 67.9901 20.8146C67.9901 20.8825 67.9901 20.9503 67.9901 21.0202C68.073 21.0435 68.1559 21.0668 68.2413 21.0908C68.6689 21.2605 68.9463 21.4612 69.2906 21.7396C69.2906 21.8074 69.2906 21.8753 69.2906 21.9451C69.4077 21.9451 69.5247 21.9451 69.6453 21.9451C69.8596 22.1764 69.8596 22.1764 70 22.459C69.9155 22.6793 69.833 22.8097 69.6453 22.9729C69.2933 22.9832 68.9441 22.9868 68.592 22.9861C68.4796 22.9863 68.3671 22.9865 68.2513 22.9866C67.8695 22.9871 67.4877 22.9869 67.1059 22.9866C66.8315 22.9868 66.557 22.987 66.2825 22.9873C65.604 22.9879 64.9255 22.988 64.247 22.9878C63.4348 22.9877 62.6226 22.9882 61.8104 22.9887C60.126 22.9897 58.4416 22.99 56.7572 22.99C55.4564 22.9901 54.1556 22.9903 52.8548 22.9906C52.4809 22.9907 52.1069 22.9908 51.7329 22.9909C51.6399 22.9909 51.547 22.9909 51.4512 22.991C48.8347 22.9916 46.2182 22.992 43.6017 22.992C43.503 22.992 43.4043 22.992 43.3025 22.992C42.8021 22.992 42.3016 22.9919 41.8012 22.9919C41.7018 22.9919 41.6024 22.9919 41.5 22.9919C41.299 22.9919 41.098 22.9919 40.897 22.9919C37.7705 22.9918 34.6441 22.9926 31.5176 22.994C28.0074 22.9956 24.4971 22.9965 20.9869 22.9964C20.6127 22.9964 20.2384 22.9964 19.8642 22.9964C19.7721 22.9964 19.6799 22.9964 19.585 22.9964C18.1009 22.9964 16.6169 22.997 15.1328 22.9979C13.6414 22.9988 12.1499 22.9989 10.6585 22.9982C9.85023 22.9979 9.04198 22.9978 8.23372 22.9988C7.49413 22.9996 6.75455 22.9994 6.01496 22.9985C5.74706 22.9984 5.47916 22.9986 5.21126 22.9991C4.84764 22.9998 4.48406 22.9993 4.12044 22.9985C4.01598 22.999 3.91152 22.9995 3.80389 23C3.16999 22.9968 2.62645 22.9212 2.01714 22.7673C1.97828 22.4389 1.99242 22.2873 2.1991 22.0046C2.87088 21.3528 2.87088 21.3528 3.37679 21.2193C3.47434 21.2214 3.57188 21.2235 3.67237 21.2257C3.71139 21.124 3.75041 21.0222 3.7906 20.9174C3.99148 20.7634 3.99148 20.7634 4.25198 20.6015C4.347 20.5417 4.44201 20.4819 4.53991 20.4203C4.69207 20.3262 4.69207 20.3262 4.84729 20.2301C5.0531 20.1007 5.25877 19.9712 5.46431 19.8415C5.56338 19.7791 5.66244 19.7167 5.76451 19.6524C6.18471 19.3844 6.59013 19.1028 6.99346 18.8158C7.65619 18.3481 7.65619 18.3481 7.92869 18.3481C7.96771 18.2463 8.00672 18.1446 8.04692 18.0398C8.13715 17.9783 8.22737 17.9168 8.32033 17.8535C8.67969 17.5992 8.88769 17.3643 9.111 17.012C9.15086 16.7291 9.15086 16.7291 9.111 16.4982C9.22805 16.4643 9.3451 16.4303 9.46569 16.3954C9.46587 16.3194 9.46604 16.2433 9.46622 16.165C9.4706 14.313 9.47758 12.461 9.48744 10.609C9.49214 9.71341 9.49597 8.81781 9.49773 7.92219C9.49927 7.14139 9.50247 6.36061 9.50762 5.57982C9.51029 5.16655 9.51215 4.75331 9.51203 4.34004C9.51194 3.95064 9.51407 3.56129 9.51785 3.17191C9.51886 3.0294 9.51907 2.88688 9.5184 2.74437C9.51491 1.87985 9.52949 1.17648 10.2287 0.506438C10.9422 -0.0540487 11.8313 0.00794019 12.7351 0.00992195C12.8786 0.00938323 13.0221 0.00884451 13.17 0.00828946C13.4728 0.00763093 13.7756 0.00776536 14.0784 0.00864231C14.5403 0.00951679 15.002 0.00655903 15.4638 0.00329791C15.7587 0.00313221 16.0536 0.00319164 16.3485 0.00349864C16.4858 0.00234409 16.6232 0.00118954 16.7647 0C17.5212 0.0056182 18.2161 0.0122784 18.8059 0.465576C19.5242 1.20902 19.478 2.12091 19.467 3.03906C19.464 3.29615 19.4646 3.55307 19.4661 3.81017C19.4685 4.35468 19.4662 4.89914 19.4636 5.44365C19.4611 6.07748 19.4606 6.71126 19.4637 7.34509C19.4641 7.59831 19.4616 7.85141 19.4589 8.10462C19.4592 8.2592 19.4596 8.41378 19.4602 8.56836C19.4591 8.77082 19.4591 8.77082 19.458 8.97737C19.4799 9.30952 19.4799 9.30952 19.7335 9.5051C20.0992 9.65908 20.3115 9.60403 20.6976 9.5096C21.7994 9.04769 22.739 8.28388 23.6733 7.60991C24.7544 6.8323 25.8716 6.10437 27.0096 5.39146C27.3162 5.19465 27.6135 4.99049 27.9097 4.78204C28.1997 4.58041 28.4897 4.37881 28.7798 4.17745C28.9715 4.04389 29.1625 3.90968 29.3525 3.77439C30.111 3.23726 30.8983 2.73709 31.688 2.23555C32.2193 1.89667 32.7387 1.55176 33.2449 1.18499C35.2016 -0.224552 36.6425 -0.350904 38.6466 1.10791Z" fill="#96989A"/>
<path d="M59.8011 44.0388C60.2294 44.0263 60.6572 44.0213 61.0856 44.018C61.2318 44.0147 61.378 44.0114 61.5286 44.008C61.6694 44.007 61.8101 44.0061 61.9551 44.0051C62.1449 44.0026 62.1449 44.0026 62.3386 44C62.8992 44.0867 63.1785 44.3998 63.5315 44.8127C64.0712 45.7922 64.0134 46.8642 63.9796 47.9483C63.9767 48.0577 63.9738 48.1671 63.9708 48.2798C63.9606 48.649 63.9483 49.0181 63.9355 49.3873C63.9319 49.5073 63.9283 49.6273 63.9246 49.7509C63.92 49.8649 63.9154 49.979 63.9107 50.0965C63.907 50.1984 63.9033 50.3004 63.8995 50.4054C63.8581 50.7285 63.776 50.979 63.627 51.2701C63.3846 51.3417 63.3846 51.3417 63.1569 51.3846C63.0988 51.5547 63.0988 51.5547 63.0394 51.7283C62.2528 52.0163 61.47 51.996 60.6434 51.9935C60.3958 51.9931 60.1484 51.9958 59.9008 51.9987C59.7412 51.999 59.5816 51.9991 59.422 51.999C59.2789 51.9993 59.1358 51.9996 58.9884 52C58.5051 51.9503 58.186 51.8191 57.751 51.6137C57.751 51.5381 57.751 51.4625 57.751 51.3846C57.6735 51.3846 57.5959 51.3846 57.516 51.3846C57.0077 50.3293 57.0174 49.2759 57.0112 48.1258C57.0099 47.951 57.0075 47.7762 57.004 47.6014C56.9828 46.5338 57.0315 45.6101 57.516 44.6266C57.6323 44.6266 57.7487 44.6266 57.8685 44.6266C57.8959 44.5527 57.9232 44.4788 57.9513 44.4027C58.1036 44.1684 58.1036 44.1684 58.3499 44.0998C58.4519 44.0948 58.5539 44.0898 58.659 44.0847C58.8332 44.0753 58.8332 44.0753 59.0108 44.0657C59.2742 44.0576 59.5377 44.0486 59.8011 44.0388Z" fill="#2F3034"/>
<path d="M20.6347 44.004C20.7226 44.0036 20.8105 44.0031 20.9011 44.0027C22.2108 44.0049 22.2108 44.0049 22.5124 44.3633C22.6938 44.8065 22.8049 45.2548 22.9047 45.7431C22.9266 45.8483 22.9266 45.8483 22.949 45.9556C22.9914 46.2219 22.9992 46.4601 22.9995 46.7325C22.9996 46.8352 22.9998 46.9379 23 47.0438C22.9996 47.1528 22.9992 47.2619 22.9988 47.3743C22.9985 47.4864 22.9982 47.5985 22.998 47.714C22.9943 48.4207 22.9835 49.1262 22.957 49.8319C22.9544 49.9104 22.9518 49.9889 22.9492 50.0698C22.9206 50.7151 22.8394 51.17 22.4862 51.6069C21.8978 52.0299 21.2978 52.0046 20.6497 51.9968C20.4671 51.9949 20.2847 51.9968 20.1022 51.999C19.9848 51.9987 19.8675 51.9983 19.7501 51.9976C19.6448 51.9972 19.5395 51.9968 19.431 51.9964C19.0592 51.9396 18.7742 51.7833 18.4991 51.4304C17.7686 50.118 18.0444 48.1088 18.0823 46.5335C18.0849 46.4066 18.0874 46.2798 18.0901 46.1491C18.0934 46.029 18.0966 45.909 18.0999 45.7853C18.1026 45.6775 18.1052 45.5697 18.1079 45.4587C18.1357 45.1559 18.1837 44.9652 18.302 44.7083C18.4837 44.5416 18.4837 44.5416 18.6995 44.3993C18.7698 44.3514 18.8401 44.3035 18.9126 44.2542C19.4701 43.9565 20.0454 44.0011 20.6347 44.004Z" fill="#2F3034"/>
<path d="M51.2243 44.0044C51.3193 44.0029 51.4144 44.0015 51.5123 44.0001C52.1794 43.9985 52.7471 44.0131 53.2878 44.5074C54.4085 46.1171 53.8912 48.8889 53.8131 50.8093C53.7141 50.8472 53.615 50.8852 53.513 50.9243C53.5088 51.012 53.5047 51.0997 53.5005 51.1901C53.4129 51.4991 53.4129 51.4991 53.1315 51.7003C52.4434 52.0104 51.7778 51.9844 51.0473 51.9866C50.8255 51.9878 50.6038 51.9913 50.382 51.9949C50.2399 51.9957 50.0977 51.9963 49.9556 51.9967C49.7629 51.9984 49.7629 51.9984 49.5664 52C49.1026 51.9466 48.7482 51.8049 48.4458 51.3864C48.1817 50.8129 48.0226 50.3145 48.0101 49.6596C48.0073 49.5532 48.0046 49.4467 48.0018 49.3371C47.9969 48.9077 48.0026 48.4792 48.0101 48.05C48.0113 47.9454 48.0126 47.8408 48.0139 47.733C48.0187 47.3835 48.0266 47.0341 48.0351 46.6847C48.0365 46.5726 48.0379 46.4605 48.0393 46.3451C48.0602 45.6492 48.1388 45.0556 48.5103 44.4858C49.3072 43.9292 50.319 44.0051 51.2243 44.0044Z" fill="#2F3034"/>
<path d="M11.6129 44.003C11.7159 44.0021 11.819 44.0012 11.9251 44.0003C13.7402 44.0055 13.7402 44.0055 14.2629 44.4625C15.1094 45.4574 15.0135 46.5996 14.9772 47.8218C14.9743 47.933 14.9714 48.0442 14.9684 48.1587C14.9582 48.5274 14.9459 48.896 14.933 49.2646C14.9293 49.3835 14.9257 49.5023 14.922 49.6248C14.8937 50.3236 14.8657 50.9404 14.4313 51.5257C13.6471 52.0879 12.5965 51.9956 11.6676 51.9926C11.4285 51.9923 11.1896 51.995 10.9505 51.9979C9.5279 51.9986 9.5279 51.9986 8.83883 51.6118C8.83883 51.536 8.83883 51.4602 8.83883 51.3821C8.72197 51.3442 8.6051 51.3063 8.4847 51.2673C7.94221 50.4553 7.99146 49.4752 8.01021 48.5382C8.01187 48.447 8.01354 48.3558 8.01526 48.2618C8.01913 48.0708 8.02342 47.8798 8.0281 47.6888C8.03466 47.3978 8.03801 47.1068 8.04133 46.8157C8.04552 46.629 8.04989 46.4423 8.05447 46.2556C8.05499 46.1694 8.0555 46.0833 8.05604 45.9945C8.07563 45.4035 8.22234 45.0634 8.60274 44.6059C9.40392 43.964 10.6247 43.9945 11.6129 44.003Z" fill="#2F3034"/>
<path d="M20.6782 35.005C20.7798 35.0039 20.8815 35.0028 20.9863 35.0016C21.0847 35.0015 21.1831 35.0013 21.2846 35.0011C21.3737 35.0007 21.4629 35.0004 21.5548 35C21.9382 35.0325 22.225 35.104 22.5 35.3981C22.8084 35.9101 22.9986 36.425 22.9994 37.0335C22.9996 37.1097 22.9998 37.1859 23 37.2645C22.9994 37.3859 22.9994 37.3859 22.9988 37.5098C22.9984 37.5933 22.9981 37.6768 22.9977 37.7628C22.9938 38.3003 22.9848 38.8374 22.962 39.3744C22.9547 39.5522 22.9547 39.5522 22.9473 39.7335C22.8924 40.1429 22.8354 40.4423 22.5165 40.705C21.9467 41.0359 21.3172 41.0041 20.6871 40.9945C20.4994 40.9919 20.3119 40.9927 20.1242 40.9939C19.5311 40.9911 19.0695 40.972 18.536 40.683C18.3897 40.5184 18.3897 40.5184 18.2945 40.3404C18.2455 40.2534 18.2455 40.2534 18.1954 40.1646C17.9548 39.5572 18.0106 38.8582 18.0072 38.2101C18.0062 38.081 18.0045 37.952 18.002 37.823C17.9848 36.928 18.0722 36.194 18.452 35.3813C19.1803 34.9994 19.8782 35.0054 20.6782 35.005Z" fill="#2F3034"/>
<path d="M11.8244 35.0025C12.0098 35.0026 12.0098 35.0026 12.199 35.0027C12.7832 35.0052 13.3418 35.0149 13.9156 35.1095C13.9156 35.1689 13.9156 35.2284 13.9156 35.2896C13.9861 35.3101 14.0565 35.3305 14.1291 35.3516C14.522 35.5318 14.6736 35.7536 14.8069 36.0864C14.9868 36.656 15.0078 37.1996 14.998 37.7838C14.9972 37.8785 14.9963 37.9733 14.9955 38.0709C14.9695 39.9837 14.9695 39.9837 14.7403 40.3342C14.6237 40.3639 14.507 40.3936 14.3869 40.4243C14.3504 40.4819 14.314 40.5395 14.2764 40.5988C14.1133 40.8408 14.0141 40.8709 13.68 40.9648C13.3693 40.9831 13.0715 40.9922 12.7609 40.9919C12.672 40.9922 12.5831 40.9926 12.4915 40.993C12.3037 40.9935 12.1158 40.9936 11.928 40.9932C11.6425 40.9929 11.3572 40.995 11.0717 40.9973C10.8886 40.9975 10.7055 40.9976 10.5225 40.9975C10.3958 40.9987 10.3958 40.9987 10.2665 41C9.58971 40.9953 9.07662 40.8764 8.51823 40.5819C7.83607 39.8133 8.01011 38.6471 8.04691 37.7633C8.05434 37.5752 8.05921 37.3871 8.06399 37.1989C8.06859 37.0774 8.07334 36.9559 8.07826 36.8344C8.0821 36.7259 8.08593 36.6173 8.08988 36.5055C8.16858 36.036 8.32696 35.6766 8.79803 35.3516C9.75432 34.9926 10.7777 34.993 11.8244 35.0025Z" fill="#2F3034"/>
<path d="M60.6514 35.0034C60.7753 35.0023 60.8991 35.0012 61.0267 35C61.7353 34.999 62.345 35.0423 63.0235 35.2001C63.0235 35.2595 63.0235 35.3189 63.0235 35.3801C63.1402 35.4098 63.2569 35.4394 63.3771 35.47C64.1425 36.2799 64.0028 37.4085 63.9662 38.3629C63.959 38.57 63.9563 38.7769 63.9538 38.984C63.9495 39.117 63.945 39.25 63.9402 39.383C63.9399 39.4442 63.9396 39.5054 63.9393 39.5684C63.9209 39.9152 63.86 40.0482 63.5551 40.3125C63.4574 40.377 63.3598 40.4414 63.2592 40.5079C63.2228 40.5747 63.1863 40.6415 63.1487 40.7103C63.0867 40.7882 63.0867 40.7882 63.0235 40.8677C62.2463 41.0035 61.446 40.981 60.6529 40.9842C60.4755 40.9853 60.2982 40.9871 60.1208 40.9898C58.2573 41.0176 58.2573 41.0176 57.4838 40.5978C57.0093 39.967 56.995 39.3156 57.0008 38.6081C57.001 38.531 57.0011 38.4539 57.0013 38.3745C57.0019 38.1298 57.0034 37.8851 57.0049 37.6403C57.0055 37.4738 57.0061 37.3072 57.0065 37.1406C57.0078 36.7337 57.0099 36.3268 57.0123 35.9198C57.1679 35.8605 57.3235 35.8011 57.4838 35.7399C57.4838 35.6509 57.4838 35.5618 57.4838 35.47C57.6453 35.4111 57.8075 35.3532 57.97 35.2957C58.0602 35.2634 58.1505 35.231 58.2434 35.1977C59.0204 34.9719 59.8318 35.0037 60.6514 35.0034Z" fill="#2F3034"/>
<path d="M51.3803 35.0065C51.4969 35.0047 51.6134 35.0028 51.7334 35.0009C52.8146 34.9965 52.8146 34.9965 53.2865 35.2987C53.9363 35.894 54.0077 36.758 53.9994 37.5471C53.9929 37.8079 53.9831 38.0685 53.9711 38.3292C53.9618 38.5314 53.9543 38.7335 53.9471 38.9357C53.9026 40.068 53.9026 40.068 53.7915 40.3332C53.6915 40.3777 53.6915 40.3777 53.5895 40.4231C53.5562 40.5121 53.5228 40.6011 53.4885 40.6928C52.9791 40.9395 52.5435 41.0028 51.9642 40.9983C51.8505 40.9987 51.8505 40.9987 51.7346 40.9991C51.5753 40.9993 51.4161 40.9988 51.2569 40.9977C51.0149 40.9962 50.773 40.9977 50.531 40.9994C50.3754 40.9992 50.2199 40.9989 50.0643 40.9983C49.9929 40.9989 49.9214 40.9994 49.8478 41C49.3336 40.9936 48.987 40.9049 48.54 40.6928C47.8745 39.8042 47.9944 38.6572 48.0351 37.6362C48.0377 37.5639 48.0403 37.4917 48.043 37.4172C48.0514 37.2092 48.0616 37.0013 48.0729 36.7933C48.076 36.7308 48.0791 36.6684 48.0823 36.604C48.1142 36.128 48.1772 35.7902 48.5779 35.4617C49.4247 34.9412 50.3814 35.0105 51.3803 35.0065Z" fill="#2F3034"/>
</svg>
