<svg width="243" height="59" viewBox="0 0 243 59" fill="none" xmlns="http://www.w3.org/2000/svg">
<circle cx="26.5198" cy="27.0182" r="16.7047" stroke="url(#paint0_linear_2145_7204)" stroke-width="4.84195"/>
<path fill-rule="evenodd" clip-rule="evenodd" d="M17.9023 12.3674C16.2996 13.2911 14.861 14.4646 13.6405 15.8343L14.7067 18.2242C14.0035 19.1437 13.4051 20.1477 12.9292 21.2184L10.2903 21.4973C9.70012 23.1702 9.3648 24.9621 9.33057 26.827L11.6692 27.9652C11.7265 29.1935 11.9326 30.383 12.2699 31.5158L10.4971 33.3465C11.1691 35.0576 12.1111 36.6346 13.2709 38.0258L15.6705 37.4332C16.5068 38.3261 17.4518 39.1158 18.4845 39.781L18.3203 42.1547C19.9282 43.0227 21.6911 43.6434 23.5573 43.9651L24.9533 42.0573C25.4676 42.1112 25.9897 42.1388 26.5182 42.1388C27.1937 42.1388 27.8586 42.0937 28.5102 42.0063L29.8882 43.8895C31.7763 43.5168 33.553 42.8369 35.1632 41.9046L34.9957 39.4836C35.8914 38.8602 36.7153 38.1406 37.4525 37.3399L39.8442 37.9306C41.0448 36.4693 42.0065 34.8069 42.6702 33.0021L40.8717 31.1448C41.1273 30.1965 41.2916 29.2107 41.3545 28.1973L43.7084 27.0518C43.6979 25.087 43.3532 23.2008 42.728 21.4463L40.0841 21.1669C39.6793 20.2654 39.1875 19.4115 38.6193 18.616L39.7025 16.188C38.4801 14.7386 37.0199 13.4938 35.3815 12.5127L33.2074 13.9686C32.2872 13.5037 31.312 13.1317 30.2944 12.8649L29.5634 10.3385C28.575 10.163 27.5574 10.0714 26.5182 10.0714C25.649 10.0714 24.7949 10.1355 23.9604 10.2591L23.2417 12.7433C22.1422 12.9908 21.0889 13.3603 20.0966 13.8368L17.9023 12.3674ZM39.2931 27.2597C39.2931 34.3458 33.5583 40.0626 26.5182 40.0626C19.4781 40.0626 13.7433 34.3458 13.7433 27.2597C13.7433 20.1736 19.4781 14.4568 26.5182 14.4568C33.5583 14.4568 39.2931 20.1736 39.2931 27.2597Z" fill="url(#paint1_linear_2145_7204)"/>
<path d="M7.62484 40.8679L40.4816 7.92673L45.0777 12.5229L12.211 45.454C12.211 45.454 6.5575 47.667 5.94749 47.057C5.33748 46.447 7.62484 40.8679 7.62484 40.8679Z" fill="url(#paint2_linear_2145_7204)"/>
<path d="M7.62484 40.8679L40.4816 7.92673L45.0777 12.5229L12.211 45.454C12.211 45.454 6.5575 47.667 5.94749 47.057C5.33748 46.447 7.62484 40.8679 7.62484 40.8679Z" fill="url(#paint3_linear_2145_7204)" fill-opacity="0.4"/>
<rect x="48.9771" y="6.7478" width="5.76215" height="3.84143" transform="rotate(135 48.9771 6.7478)" fill="url(#paint4_linear_2145_7204)"/>
<rect x="48.9771" y="6.7478" width="5.76215" height="3.84143" transform="rotate(135 48.9771 6.7478)" fill="url(#paint5_linear_2145_7204)" fill-opacity="0.7"/>
<rect width="5.12002" height="2.88107" rx="0.484195" transform="matrix(-0.707107 -0.707107 -0.707107 0.707107 50.8047 5.85925)" fill="url(#paint6_linear_2145_7204)"/>
<rect width="5.12002" height="2.88107" rx="0.484195" transform="matrix(-0.707107 -0.707107 -0.707107 0.707107 50.8047 5.85925)" fill="url(#paint7_linear_2145_7204)" fill-opacity="0.2"/>
<rect width="8.64322" height="3.84143" rx="0.726293" transform="matrix(-0.707107 -0.707107 -0.707107 0.707107 47.2969 11.8584)" fill="url(#paint8_linear_2145_7204)"/>
<rect width="8.64322" height="3.84143" rx="0.726293" transform="matrix(-0.707107 -0.707107 -0.707107 0.707107 47.2969 11.8584)" fill="url(#paint9_linear_2145_7204)" fill-opacity="0.2"/>
<path d="M51.3018 56.485L7.39404 12.6593L11.9187 8.13455L55.8166 51.9701C55.8166 51.9701 57.7951 57.8921 57.4728 58.2144C57.1504 58.5368 51.3018 56.485 51.3018 56.485Z" fill="url(#paint10_linear_2145_7204)"/>
<rect width="5.93005" height="3.95336" transform="matrix(0.707107 0.707107 0.707107 -0.707107 3.1626 6.67349)" fill="url(#paint11_linear_2145_7204)"/>
<rect width="5.93005" height="3.95336" transform="matrix(0.707107 0.707107 0.707107 -0.707107 3.1626 6.67349)" fill="url(#paint12_linear_2145_7204)" fill-opacity="0.7"/>
<rect x="1.28174" y="5.75906" width="5.26921" height="2.96502" rx="0.484195" transform="rotate(-45 1.28174 5.75906)" fill="url(#paint13_linear_2145_7204)"/>
<rect x="1.28174" y="5.75906" width="5.26921" height="2.96502" rx="0.484195" transform="rotate(-45 1.28174 5.75906)" fill="url(#paint14_linear_2145_7204)" fill-opacity="0.2"/>
<rect x="4.8916" y="11.933" width="8.89507" height="3.95336" rx="0.726293" transform="rotate(-45 4.8916 11.933)" fill="url(#paint15_linear_2145_7204)"/>
<rect x="4.8916" y="11.933" width="8.89507" height="3.95336" rx="0.726293" transform="rotate(-45 4.8916 11.933)" fill="url(#paint16_linear_2145_7204)" fill-opacity="0.2"/>
<path d="M55.8795 43.0706C55.5761 43.0706 55.3279 42.9749 55.1348 42.7834C54.9417 42.592 54.8452 42.3459 54.8452 42.045V15.3807C54.8452 15.0798 54.9417 14.8337 55.1348 14.6423C55.3279 14.4508 55.5761 14.3551 55.8795 14.3551H74.62C74.9234 14.3551 75.1716 14.4508 75.3647 14.6423C75.5577 14.8337 75.6542 15.0798 75.6542 15.3807V18.6624C75.6542 18.9359 75.5577 19.1684 75.3647 19.3598C75.1716 19.5513 74.9234 19.647 74.62 19.647H61.2162V26.0874H73.7099C74.0132 26.0874 74.2615 26.1832 74.4545 26.3746C74.6476 26.566 74.7441 26.8122 74.7441 27.113V30.1486C74.7441 30.4221 74.6476 30.6546 74.4545 30.846C74.2615 31.0374 74.0132 31.1332 73.7099 31.1332H61.2162V37.7787H74.9509C75.2543 37.7787 75.5026 37.8745 75.6956 38.0659C75.8887 38.2573 75.9852 38.5035 75.9852 38.8043V42.045C75.9852 42.3459 75.8887 42.592 75.6956 42.7834C75.5026 42.9749 75.2543 43.0706 74.9509 43.0706H55.8795Z" fill="url(#paint17_linear_2145_7204)"/>
<path d="M81.9376 43.0706C81.6342 43.0706 81.386 42.9749 81.1929 42.7834C80.9999 42.592 80.9034 42.3459 80.9034 42.045V15.3807C80.9034 15.0798 80.9999 14.8337 81.1929 14.6423C81.386 14.4508 81.6342 14.3551 81.9376 14.3551H85.7023C86.116 14.3551 86.4193 14.4508 86.6124 14.6423C86.8055 14.8337 86.9296 14.9841 86.9847 15.0935L98.0305 32.1997V15.3807C98.0305 15.0798 98.127 14.8337 98.3201 14.6423C98.5131 14.4508 98.7476 14.3551 99.0234 14.3551H103.243C103.546 14.3551 103.795 14.4508 103.988 14.6423C104.181 14.8337 104.277 15.0798 104.277 15.3807V42.045C104.277 42.3185 104.181 42.5647 103.988 42.7834C103.795 42.9749 103.546 43.0706 103.243 43.0706H99.437C99.0233 43.0706 98.72 42.9749 98.5269 42.7834C98.3614 42.5647 98.2373 42.4142 98.1546 42.3322L87.1502 25.7593V42.045C87.1502 42.3459 87.0537 42.592 86.8606 42.7834C86.6676 42.9749 86.4193 43.0706 86.116 43.0706H81.9376Z" fill="url(#paint18_linear_2145_7204)"/>
<path d="M108.699 43.0706C108.451 43.0706 108.244 42.9885 108.079 42.8245C107.913 42.633 107.831 42.4279 107.831 42.2091C107.831 42.0724 107.844 41.9493 107.872 41.8399L117.718 15.4627C117.801 15.1619 117.966 14.9021 118.214 14.6833C118.463 14.4645 118.807 14.3551 119.249 14.3551H124.544C124.985 14.3551 125.33 14.4645 125.578 14.6833C125.826 14.9021 125.992 15.1619 126.075 15.4627L135.921 41.8399C135.948 41.9493 135.962 42.0724 135.962 42.2091C135.962 42.4279 135.879 42.633 135.714 42.8245C135.548 42.9885 135.342 43.0706 135.093 43.0706H130.791C130.377 43.0706 130.074 42.9749 129.881 42.7834C129.688 42.592 129.564 42.4142 129.508 42.2501L127.729 37.6557H116.063L114.284 42.2501C114.229 42.4142 114.105 42.592 113.912 42.7834C113.719 42.9749 113.416 43.0706 113.002 43.0706H108.699ZM117.594 32.3638H126.157L121.896 20.5495L117.594 32.3638Z" fill="url(#paint19_linear_2145_7204)"/>
<path d="M164.881 43.0706C164.577 43.0706 164.329 42.9749 164.136 42.7834C163.943 42.592 163.846 42.3459 163.846 42.045V15.3807C163.846 15.0798 163.943 14.8337 164.136 14.6423C164.329 14.4508 164.577 14.3551 164.881 14.3551H183.621C183.924 14.3551 184.173 14.4508 184.366 14.6423C184.559 14.8337 184.655 15.0798 184.655 15.3807V18.6624C184.655 18.9359 184.559 19.1684 184.366 19.3598C184.173 19.5513 183.924 19.647 183.621 19.647H170.217V26.0874H182.711C183.014 26.0874 183.263 26.1832 183.456 26.3746C183.649 26.566 183.745 26.8122 183.745 27.113V30.1486C183.745 30.4221 183.649 30.6546 183.456 30.846C183.263 31.0374 183.014 31.1332 182.711 31.1332H170.217V37.7787H183.952C184.255 37.7787 184.504 37.8745 184.697 38.0659C184.89 38.2573 184.986 38.5035 184.986 38.8043V42.045C184.986 42.3459 184.89 42.592 184.697 42.7834C184.504 42.9749 184.255 43.0706 183.952 43.0706H164.881Z" fill="url(#paint20_linear_2145_7204)"/>
<path d="M201.163 43.4808C198.57 43.4808 196.364 43.0569 194.544 42.2091C192.751 41.334 191.358 40.076 190.365 38.4351C189.372 36.7669 188.821 34.7431 188.711 32.3638C188.683 31.2425 188.669 30.0392 188.669 28.7539C188.669 27.4685 188.683 26.2379 188.711 25.0619C188.821 22.71 189.372 20.7135 190.365 19.0727C191.386 17.4044 192.806 16.1327 194.626 15.2576C196.447 14.3825 198.626 13.9449 201.163 13.9449C203.011 13.9449 204.693 14.1774 206.21 14.6423C207.727 15.1072 209.037 15.7772 210.14 16.6524C211.243 17.5275 212.098 18.553 212.705 19.729C213.312 20.905 213.643 22.2177 213.698 23.6671C213.698 23.9133 213.601 24.1184 213.408 24.2825C213.243 24.4466 213.036 24.5286 212.788 24.5286H208.072C207.741 24.5286 207.479 24.4466 207.286 24.2825C207.093 24.1184 206.941 23.8449 206.831 23.462C206.417 21.8485 205.727 20.7409 204.762 20.1392C203.797 19.5376 202.597 19.2367 201.163 19.2367C199.453 19.2367 198.102 19.7017 197.109 20.6315C196.116 21.5613 195.578 23.1065 195.495 25.267C195.412 27.5095 195.412 29.8068 195.495 32.1587C195.578 34.3192 196.116 35.8644 197.109 36.7942C198.102 37.724 199.453 38.189 201.163 38.189C202.597 38.189 203.797 37.8881 204.762 37.2865C205.755 36.6575 206.444 35.5499 206.831 33.9637C206.941 33.5535 207.093 33.28 207.286 33.1432C207.479 32.9792 207.741 32.8971 208.072 32.8971H212.788C213.036 32.8971 213.243 32.9792 213.408 33.1432C213.601 33.3073 213.698 33.5124 213.698 33.7586C213.643 35.208 213.312 36.5207 212.705 37.6967C212.098 38.8727 211.243 39.8982 210.14 40.7734C209.037 41.6485 207.727 42.3185 206.21 42.7834C204.693 43.2484 203.011 43.4808 201.163 43.4808Z" fill="url(#paint21_linear_2145_7204)"/>
<path d="M219.38 43.0706C219.077 43.0706 218.829 42.9749 218.636 42.7834C218.443 42.592 218.346 42.3459 218.346 42.045V15.3807C218.346 15.0798 218.443 14.8337 218.636 14.6423C218.829 14.4508 219.077 14.3551 219.38 14.3551H223.89C224.193 14.3551 224.441 14.4508 224.634 14.6423C224.827 14.8337 224.924 15.0798 224.924 15.3807V25.6362H236.135V15.3807C236.135 15.0798 236.232 14.8337 236.425 14.6423C236.618 14.4508 236.866 14.3551 237.169 14.3551H241.679C241.982 14.3551 242.23 14.4508 242.423 14.6423C242.617 14.8337 242.713 15.0798 242.713 15.3807V42.045C242.713 42.3459 242.617 42.592 242.423 42.7834C242.23 42.9749 241.982 43.0706 241.679 43.0706H237.169C236.866 43.0706 236.618 42.9749 236.425 42.7834C236.232 42.592 236.135 42.3459 236.135 42.045V31.4613H224.924V42.045C224.924 42.3459 224.827 42.592 224.634 42.7834C224.441 42.9749 224.193 43.0706 223.89 43.0706H219.38Z" fill="url(#paint22_linear_2145_7204)"/>
<path d="M144.349 42.9966C144.052 42.9966 143.808 42.9014 143.619 42.7109C143.43 42.5205 143.335 42.2756 143.335 41.9764V15.2598H134.743C134.472 15.2598 134.242 15.1646 134.053 14.9742C133.864 14.7837 133.769 14.5524 133.769 14.2804V9.39692C133.769 9.09764 133.864 8.85277 134.053 8.66232C134.242 8.47187 134.472 8.37665 134.743 8.37665H159.386C159.683 8.37665 159.927 8.47187 160.116 8.66232C160.305 8.85277 160.4 9.09764 160.4 9.39692V14.2804C160.4 14.5524 160.305 14.7837 160.116 14.9742C159.927 15.1646 159.683 15.2598 159.386 15.2598H150.834V41.9764C150.834 42.2756 150.739 42.5205 150.55 42.7109C150.361 42.9014 150.117 42.9966 149.82 42.9966H144.349Z" fill="url(#paint23_linear_2145_7204)"/>
<defs>
<linearGradient id="paint0_linear_2145_7204" x1="14.1709" y1="12.2597" x2="39.9228" y2="39.8189" gradientUnits="userSpaceOnUse">
<stop stop-color="#0056A6"/>
<stop offset="1" stop-color="#001971"/>
</linearGradient>
<linearGradient id="paint1_linear_2145_7204" x1="15.4211" y1="13.9412" x2="38.2151" y2="38.6832" gradientUnits="userSpaceOnUse">
<stop stop-color="#ACD7FF"/>
<stop offset="1" stop-color="#001971"/>
</linearGradient>
<linearGradient id="paint2_linear_2145_7204" x1="12.3231" y1="40.7318" x2="39.6655" y2="13.1303" gradientUnits="userSpaceOnUse">
<stop stop-color="white"/>
<stop offset="0.318294" stop-color="white"/>
<stop offset="0.577353" stop-color="#787D85"/>
<stop offset="0.787474" stop-color="white"/>
<stop offset="1" stop-color="white"/>
</linearGradient>
<linearGradient id="paint3_linear_2145_7204" x1="29.6875" y1="27.5142" x2="25.2816" y2="23.1083" gradientUnits="userSpaceOnUse">
<stop stop-color="white"/>
<stop offset="0.473958" stop-color="#798292"/>
<stop offset="0.5" stop-color="white"/>
<stop offset="1" stop-color="white"/>
</linearGradient>
<linearGradient id="paint4_linear_2145_7204" x1="52.092" y1="6.85111" x2="52.092" y2="10.0743" gradientUnits="userSpaceOnUse">
<stop offset="0.0520833" stop-color="#334150"/>
<stop offset="0.682292" stop-color="#6D849B"/>
<stop offset="1" stop-color="#3B4B5C"/>
</linearGradient>
<linearGradient id="paint5_linear_2145_7204" x1="51.8638" y1="6.67248" x2="51.8511" y2="10.5892" gradientUnits="userSpaceOnUse">
<stop/>
<stop offset="0.177083" stop-opacity="0"/>
<stop offset="0.833333" stop-opacity="0.01"/>
<stop offset="1"/>
</linearGradient>
<linearGradient id="paint6_linear_2145_7204" x1="-0.0181865" y1="0.9389" x2="5.03591" y2="0.9389" gradientUnits="userSpaceOnUse">
<stop offset="0.0520833" stop-color="#4C6178"/>
<stop offset="0.682292" stop-color="#CCCCCC"/>
<stop offset="1" stop-color="#496079"/>
</linearGradient>
<linearGradient id="paint7_linear_2145_7204" x1="2.56502" y1="-0.0564925" x2="2.55699" y2="2.88107" gradientUnits="userSpaceOnUse">
<stop/>
<stop offset="0.177083" stop-opacity="0"/>
<stop offset="0.833333" stop-opacity="0.01"/>
<stop offset="1"/>
</linearGradient>
<linearGradient id="paint8_linear_2145_7204" x1="-0.030701" y1="1.25187" x2="8.50123" y2="1.25187" gradientUnits="userSpaceOnUse">
<stop offset="0.0520833" stop-color="#5F7895"/>
<stop offset="0.682292" stop-color="#CCCCCC"/>
<stop offset="1" stop-color="#5C7591"/>
</linearGradient>
<linearGradient id="paint9_linear_2145_7204" x1="4.33007" y1="-0.0753233" x2="4.32161" y2="3.84143" gradientUnits="userSpaceOnUse">
<stop/>
<stop offset="0.177083" stop-opacity="0"/>
<stop offset="0.833333" stop-opacity="0.01"/>
<stop offset="1"/>
</linearGradient>
<linearGradient id="paint10_linear_2145_7204" x1="33.4662" y1="29.627" x2="28.888" y2="34.2051" gradientUnits="userSpaceOnUse">
<stop stop-color="white"/>
<stop offset="0.479167" stop-color="white"/>
<stop offset="0.53125" stop-color="#B4BBC7"/>
<stop offset="0.9999" stop-color="white"/>
<stop offset="1" stop-color="white"/>
</linearGradient>
<linearGradient id="paint11_linear_2145_7204" x1="3.20571" y1="0.106315" x2="3.20571" y2="3.42341" gradientUnits="userSpaceOnUse">
<stop offset="0.0520833" stop-color="#334150"/>
<stop offset="0.682292" stop-color="#6D849B"/>
<stop offset="1" stop-color="#3B4B5C"/>
</linearGradient>
<linearGradient id="paint12_linear_2145_7204" x1="2.97082" y1="-0.0775181" x2="2.95777" y2="3.95334" gradientUnits="userSpaceOnUse">
<stop/>
<stop offset="0.177083" stop-opacity="0"/>
<stop offset="0.833333" stop-opacity="0.01"/>
<stop offset="1"/>
</linearGradient>
<linearGradient id="paint13_linear_2145_7204" x1="1.26302" y1="6.72532" x2="6.46439" y2="6.72532" gradientUnits="userSpaceOnUse">
<stop offset="0.0520833" stop-color="#4C6178"/>
<stop offset="0.682292" stop-color="#CCCCCC"/>
<stop offset="1" stop-color="#496079"/>
</linearGradient>
<linearGradient id="paint14_linear_2145_7204" x1="3.9215" y1="5.70093" x2="3.91324" y2="8.72408" gradientUnits="userSpaceOnUse">
<stop/>
<stop offset="0.177083" stop-opacity="0"/>
<stop offset="0.833333" stop-opacity="0.01"/>
<stop offset="1"/>
</linearGradient>
<linearGradient id="paint15_linear_2145_7204" x1="4.86001" y1="13.2213" x2="13.6405" y2="13.2213" gradientUnits="userSpaceOnUse">
<stop offset="0.0520833" stop-color="#5F7895"/>
<stop offset="0.682292" stop-color="#CCCCCC"/>
<stop offset="1" stop-color="#5C7591"/>
</linearGradient>
<linearGradient id="paint16_linear_2145_7204" x1="9.34784" y1="11.8554" x2="9.33914" y2="15.8863" gradientUnits="userSpaceOnUse">
<stop/>
<stop offset="0.177083" stop-opacity="0"/>
<stop offset="0.833333" stop-opacity="0.01"/>
<stop offset="1"/>
</linearGradient>
<linearGradient id="paint17_linear_2145_7204" x1="91.6417" y1="18.7868" x2="91.6417" y2="42.3914" gradientUnits="userSpaceOnUse">
<stop stop-color="white"/>
<stop offset="0.385411" stop-color="white"/>
<stop offset="0.432292" stop-color="#B4BBC7"/>
<stop offset="0.9999" stop-color="white"/>
<stop offset="1" stop-color="white"/>
</linearGradient>
<linearGradient id="paint18_linear_2145_7204" x1="91.6417" y1="18.7868" x2="91.6417" y2="42.3914" gradientUnits="userSpaceOnUse">
<stop stop-color="white"/>
<stop offset="0.385411" stop-color="white"/>
<stop offset="0.432292" stop-color="#B4BBC7"/>
<stop offset="0.9999" stop-color="white"/>
<stop offset="1" stop-color="white"/>
</linearGradient>
<linearGradient id="paint19_linear_2145_7204" x1="91.6417" y1="18.7868" x2="91.6417" y2="42.3914" gradientUnits="userSpaceOnUse">
<stop stop-color="white"/>
<stop offset="0.385411" stop-color="white"/>
<stop offset="0.432292" stop-color="#B4BBC7"/>
<stop offset="0.9999" stop-color="white"/>
<stop offset="1" stop-color="white"/>
</linearGradient>
<linearGradient id="paint20_linear_2145_7204" x1="91.6417" y1="18.7868" x2="91.6417" y2="42.3914" gradientUnits="userSpaceOnUse">
<stop stop-color="white"/>
<stop offset="0.385411" stop-color="white"/>
<stop offset="0.432292" stop-color="#B4BBC7"/>
<stop offset="0.9999" stop-color="white"/>
<stop offset="1" stop-color="white"/>
</linearGradient>
<linearGradient id="paint21_linear_2145_7204" x1="91.6417" y1="18.7868" x2="91.6417" y2="42.3914" gradientUnits="userSpaceOnUse">
<stop stop-color="white"/>
<stop offset="0.385411" stop-color="white"/>
<stop offset="0.432292" stop-color="#B4BBC7"/>
<stop offset="0.9999" stop-color="white"/>
<stop offset="1" stop-color="white"/>
</linearGradient>
<linearGradient id="paint22_linear_2145_7204" x1="91.6417" y1="18.7868" x2="91.6417" y2="42.3914" gradientUnits="userSpaceOnUse">
<stop stop-color="white"/>
<stop offset="0.385411" stop-color="white"/>
<stop offset="0.432292" stop-color="#B4BBC7"/>
<stop offset="0.9999" stop-color="white"/>
<stop offset="1" stop-color="white"/>
</linearGradient>
<linearGradient id="paint23_linear_2145_7204" x1="91.6417" y1="18.7868" x2="91.6417" y2="42.3914" gradientUnits="userSpaceOnUse">
<stop stop-color="white"/>
<stop offset="0.385411" stop-color="white"/>
<stop offset="0.432292" stop-color="#B4BBC7"/>
<stop offset="0.9999" stop-color="white"/>
<stop offset="1" stop-color="white"/>
</linearGradient>
</defs>
</svg>
