<svg width="82" height="49" viewBox="0 0 82 49" fill="none" xmlns="http://www.w3.org/2000/svg">
<path d="M32.4983 14.0357C32.6449 14.0353 32.7915 14.0348 32.9426 14.0343C33.4325 14.033 33.9224 14.0328 34.4122 14.0325C34.7641 14.0318 35.1159 14.0311 35.4678 14.0302C36.4229 14.0282 37.378 14.0272 38.3332 14.0265C38.9305 14.0261 39.5279 14.0255 40.1253 14.0248C41.7819 14.0229 43.4386 14.0213 45.0953 14.0208C45.2012 14.0208 45.3071 14.0207 45.4162 14.0207C45.5223 14.0207 45.6285 14.0206 45.7378 14.0206C45.9529 14.0205 46.168 14.0205 46.383 14.0204C46.4897 14.0204 46.5964 14.0203 46.7063 14.0203C48.4326 14.0197 50.1588 14.017 51.885 14.0134C53.6609 14.0098 55.4368 14.0079 57.2127 14.0077C58.2083 14.0075 59.2039 14.0066 60.1996 14.0039C61.1371 14.0013 62.0745 14.001 63.012 14.0024C63.3547 14.0025 63.6973 14.0018 64.04 14.0003C68.0746 13.9834 71.5204 14.7158 74.5597 17.6132C76.0067 19.1697 78 21.6834 78 23.8934C77.8775 23.8973 77.755 23.9013 77.6288 23.9054C76.6209 23.947 76.6209 23.947 75.7077 24.3352C75.2382 24.8747 75.0824 25.1856 75.0721 25.8947C75.069 26.0516 75.066 26.2085 75.0629 26.3702C75.0612 26.5392 75.0594 26.7083 75.0576 26.8825C75.0547 27.0558 75.0517 27.2291 75.0487 27.4077C75.0397 27.9621 75.0326 28.5164 75.0256 29.0708C75.0199 29.4463 75.0139 29.8218 75.0079 30.1973C74.9933 31.1185 74.9804 32.0397 74.9688 32.961C68.3707 32.968 61.7726 32.9735 55.1746 32.9767C54.3963 32.9771 53.6181 32.9775 52.8399 32.9779C52.685 32.978 52.5301 32.978 52.3704 32.9781C49.8587 32.9795 47.347 32.9819 44.8353 32.9847C42.2599 32.9876 39.6844 32.9893 37.109 32.9899C35.5186 32.9903 33.9282 32.9917 32.3378 32.9942C31.2486 32.9958 30.1594 32.9963 29.0702 32.9959C28.4409 32.9957 27.8116 32.996 27.1823 32.9976C26.607 32.9991 26.0317 32.9992 25.4564 32.9982C25.2475 32.998 25.0386 32.9984 24.8298 32.9994C24.5473 33.0006 24.2648 32.9998 23.9824 32.9988C23.825 32.9989 23.6677 32.9991 23.5056 32.9992C23.1356 32.961 23.1356 32.961 22.8325 32.6536C22.7943 32.3428 22.7943 32.3428 22.7938 31.9562C22.7927 31.8115 22.7917 31.6668 22.7906 31.5177C22.7907 31.3608 22.7909 31.2039 22.791 31.0423C22.788 30.7113 22.7848 30.3803 22.7816 30.0493C22.7781 29.5266 22.7756 29.0038 22.7747 28.4811C22.7733 27.9772 22.7682 27.4734 22.7626 26.9696C22.7634 26.8139 22.7641 26.6583 22.7649 26.4979C22.7524 25.5828 22.6801 25.049 22.0747 24.3544C21.5954 24.0304 21.3917 23.9951 20.8338 23.951C20.6972 23.9395 20.5607 23.928 20.42 23.9162C20.2638 23.9049 20.2638 23.9049 20.1044 23.8934C19.82 23.137 20.1764 22.5409 20.4614 21.8306C21.1671 20.2736 22.0959 18.9559 23.2871 17.7458C23.3911 17.6387 23.495 17.5315 23.6021 17.4211C25.971 15.1301 29.2747 14.0326 32.4983 14.0357Z" fill="#EBAA70"/>
<path d="M23.1879 42.0559C29.7403 42.0458 36.2927 42.0381 42.8451 42.0334C43.6179 42.0329 44.3907 42.0323 45.1635 42.0317C45.3174 42.0316 45.4713 42.0315 45.6298 42.0314C48.1241 42.0294 50.6184 42.026 53.1127 42.0219C55.6703 42.0178 58.2279 42.0153 60.7855 42.0145C62.3649 42.0138 63.9443 42.0119 65.5236 42.0084C66.6053 42.006 67.687 42.0053 68.7686 42.0059C69.3936 42.0062 70.0185 42.0057 70.6434 42.0034C71.2147 42.0012 71.786 42.0011 72.3574 42.0026C72.5648 42.0028 72.7723 42.0023 72.9797 42.0009C73.2602 41.9991 73.5407 42.0003 73.8212 42.0017C74.0556 42.0014 74.0556 42.0014 74.2947 42.0012C74.4765 42.0283 74.4765 42.0283 74.662 42.0559C74.9725 42.512 74.9996 42.6083 74.9986 43.1245C74.9991 43.2504 74.9995 43.3764 75 43.5062C74.9984 43.7095 74.9984 43.7095 74.9967 43.9168C74.9967 44.056 74.9966 44.1953 74.9965 44.3388C74.9961 44.633 74.9949 44.9272 74.993 45.2214C74.9903 45.6735 74.99 46.1256 74.99 46.5777C74.9893 46.8632 74.9884 47.1486 74.9874 47.4341C74.9872 47.5702 74.987 47.7062 74.9869 47.8464C74.9859 47.9715 74.9849 48.0965 74.984 48.2254C74.9834 48.336 74.9828 48.4466 74.9822 48.5605C74.9622 48.8151 74.9622 48.8151 74.8121 48.962C74.5386 48.9766 74.2645 48.9807 73.9906 48.9809C73.7214 48.9816 73.7214 48.9816 73.4469 48.9824C73.2452 48.9821 73.0436 48.9819 72.8419 48.9817C72.6297 48.9819 72.4174 48.9823 72.2052 48.9827C71.6192 48.9836 71.0333 48.9836 70.4473 48.9834C69.8164 48.9834 69.1855 48.9842 68.5547 48.9849C67.3176 48.9861 66.0806 48.9865 64.8436 48.9866C63.8386 48.9866 62.8337 48.9869 61.8287 48.9874C58.9826 48.9887 56.1366 48.9894 53.2906 48.9893C53.0602 48.9893 53.0602 48.9893 52.8251 48.9893C52.5945 48.9892 52.5945 48.9892 52.3592 48.9892C49.8658 48.9892 47.3725 48.9906 44.8792 48.9927C42.3223 48.9948 39.7653 48.9958 37.2084 48.9956C35.7715 48.9956 34.3347 48.996 32.8979 48.9976C31.6748 48.9989 30.4516 48.9992 29.2284 48.9982C28.6038 48.9978 27.9792 48.9978 27.3546 48.999C26.7835 49.0002 26.2125 49 25.6415 48.9987C25.4341 48.9985 25.2268 48.9987 25.0195 48.9996C24.7391 49.0006 24.4588 48.9996 24.1784 48.9986C24.0222 48.9986 23.8661 48.9987 23.7052 48.9987C23.338 48.962 23.338 48.962 23.0379 48.6681C23.0008 48.3949 23.0008 48.3949 23.0014 48.0594C23.0007 47.8712 23.0007 47.8712 23 47.6791C23.0011 47.5433 23.0022 47.4075 23.0033 47.2676C23.0033 47.1285 23.0034 46.9894 23.0035 46.846C23.0039 46.5516 23.0051 46.2571 23.007 45.9626C23.0097 45.5108 23.01 45.0591 23.01 44.6073C23.0107 44.3216 23.0116 44.036 23.0126 43.7503C23.0128 43.6145 23.013 43.4788 23.0132 43.3389C23.0146 43.1506 23.0146 43.1506 23.0161 42.9585C23.0166 42.8478 23.0172 42.7371 23.0178 42.623C23.0379 42.3498 23.0379 42.3498 23.1879 42.0559Z" fill="#EBAA70"/>
<path d="M7.19494 0.0451153C7.33387 0.0431969 7.4728 0.0412784 7.61594 0.0393017C7.76532 0.0381976 7.9147 0.0370935 8.06861 0.0359559C8.30143 0.0341462 8.30143 0.0341462 8.53896 0.0322999C8.86777 0.0302333 9.19659 0.0286297 9.5254 0.0274533C9.85961 0.0257356 10.1938 0.0226854 10.528 0.0182573C11.0128 0.011836 11.4974 0.00945534 11.9822 0.00793014C12.1295 0.00531319 12.2767 0.00269625 12.4285 0C13.631 0.00369678 14.7858 0.23382 15.7539 0.980073C17.5291 3.16813 18.0619 5.96109 18.8141 8.62118C19.018 9.34029 19.2325 10.0549 19.4568 10.7679C20.0908 12.8094 20.0908 12.8094 19.8558 13.5239C19.4962 14.0645 19.0946 14.5754 18.5044 14.8692C18.2998 14.8899 18.0945 14.9028 17.889 14.9112C17.7687 14.9168 17.6484 14.9224 17.5245 14.9281C17.2699 14.9387 17.0153 14.9492 16.7608 14.9597C16.1572 14.9286 16.1572 14.9286 15.6513 15.1681C15.6361 15.5993 15.6304 16.0261 15.6325 16.4573C15.6319 16.5762 15.6313 16.6951 15.6307 16.8175C15.6317 17.3763 15.656 17.8874 15.7463 18.4413C15.8014 18.9049 15.8014 18.9049 15.5011 19.3533C15.2533 19.2546 15.0056 19.156 14.7503 19.0543C14.7751 18.8848 14.7998 18.7152 14.8254 18.5405C14.9073 17.8146 14.9174 17.0935 14.9192 16.3639C14.9199 16.2493 14.9206 16.1348 14.9213 16.0168C14.9712 15.4731 14.9712 15.4731 14.7503 15.0186C13.4123 15.0186 12.0744 15.0186 10.6959 15.0186C10.6959 25.6236 10.6959 36.2285 10.6959 47.1548C11.3401 47.1548 11.9843 47.1548 12.648 47.1548C12.8967 47.4024 12.8581 47.7122 12.892 48.0517C12.9063 48.1873 12.9207 48.3229 12.9354 48.4627C12.9397 48.5737 12.9439 48.6847 12.9483 48.799C12.645 49.1009 12.0277 48.973 11.6115 48.9736C11.4329 48.9743 11.4329 48.9743 11.2507 48.9751C10.9984 48.9758 10.746 48.9762 10.4937 48.9762C10.1068 48.9765 9.71989 48.9792 9.33297 48.9821C9.08827 48.9825 8.84357 48.9828 8.59887 48.9829C8.42453 48.9845 8.42453 48.9845 8.24667 48.9862C7.42665 48.9827 7.42665 48.9827 7.09196 48.6495C7.05735 48.3693 7.05735 48.3693 7.0638 48.0517C7.06477 47.9468 7.06574 47.842 7.06674 47.734C7.09196 47.4538 7.09196 47.4538 7.24212 47.1548C7.93588 47.1055 8.62963 47.0562 9.34441 47.0054C9.34441 36.4991 9.34441 25.9928 9.34441 15.1681C8.99078 14.9921 8.78009 15 8.38594 14.9998C8.1813 14.999 8.1813 14.999 7.97252 14.9981C7.75034 14.9979 7.75034 14.9979 7.52368 14.9976C7.20986 14.9949 6.89604 14.992 6.58222 14.9889C6.08764 14.9845 5.59316 14.9813 5.09856 14.9812C4.62107 14.9807 4.14381 14.9755 3.66636 14.9696C3.52067 14.9707 3.37499 14.9717 3.22489 14.9728C2.16988 14.9543 1.37236 14.6965 0.484775 14.1218C0.0566535 13.6455 -0.00829494 13.2807 0.000777063 12.6496C0.071614 11.9701 0.300872 11.3246 0.503545 10.6746C0.600586 10.3542 0.697365 10.0336 0.7939 9.71301C0.842849 9.55119 0.891798 9.38936 0.94223 9.22264C1.1612 8.48596 1.36331 7.74503 1.56407 7.00327C1.61984 6.7993 1.61984 6.7993 1.67673 6.59121C1.83709 6.00467 1.99584 5.41785 2.14948 4.82953C2.6162 3.09576 3.25703 1.81478 4.68935 0.669455C5.09584 0.451472 5.43933 0.342871 5.89065 0.221043C6.03468 0.180243 6.03468 0.180243 6.18161 0.138619C6.52651 0.063951 6.84202 0.0493812 7.19494 0.0451153Z" fill="#EBAA70"/>
<path d="M24.5242 34.0023C24.6271 34.0017 24.7299 34.0011 24.8359 34.0005C25.1812 33.9991 25.5265 34.0008 25.8719 34.0026C26.1192 34.0022 26.3665 34.0017 26.6137 34.0009C27.2859 33.9996 27.958 34.0009 28.6302 34.0029C29.3327 34.0046 30.0352 34.004 30.7378 34.0037C31.9174 34.0035 33.0971 34.0052 34.2768 34.0079C35.6421 34.011 37.0074 34.0115 38.3727 34.0106C39.6845 34.0098 40.9963 34.0106 42.3082 34.0122C42.8672 34.0129 43.4262 34.013 43.9853 34.0127C44.643 34.0125 45.3008 34.0136 45.9585 34.016C46.2005 34.0166 46.4424 34.0167 46.6843 34.0163C47.0135 34.0158 47.3426 34.0172 47.6718 34.019C47.9486 34.0194 47.9486 34.0194 48.231 34.0199C48.6599 34.0573 48.6599 34.0573 48.9647 34.3512C49.0013 34.6376 49.0013 34.6376 48.9993 34.9916C48.9993 35.1901 48.9993 35.1901 48.9992 35.3927C48.9976 35.5358 48.9961 35.6789 48.9945 35.8264C48.994 35.9728 48.9936 36.1191 48.9931 36.2699C48.9914 36.7386 48.9876 37.2072 48.9837 37.6759C48.9822 37.9931 48.9808 38.3104 48.9796 38.6276C48.9762 39.4064 48.9711 40.1851 48.9647 40.9638C45.6321 40.9707 42.2995 40.9759 38.9669 40.9791C37.4196 40.9806 35.8723 40.9827 34.325 40.986C32.9768 40.9889 31.6286 40.9908 30.2804 40.9915C29.5661 40.9919 28.8519 40.9928 28.1377 40.9949C27.466 40.9969 26.7944 40.9975 26.1228 40.9971C25.8757 40.9972 25.6286 40.9977 25.3815 40.9989C25.0453 41.0003 24.7091 41 24.3729 40.9992C24.1844 40.9994 23.9959 40.9997 23.8017 41C23.3644 40.9638 23.3644 40.9638 23.0596 40.6699C23.0199 40.4033 23.0199 40.4033 23.0178 40.077C23.0163 39.9549 23.0149 39.8328 23.0134 39.707C23.0135 39.5749 23.0136 39.4428 23.0138 39.3067C23.0131 39.1711 23.0125 39.0356 23.0118 38.896C23.0109 38.609 23.0108 38.3221 23.0115 38.0351C23.012 37.5955 23.0084 37.156 23.0046 36.7164C23.0042 36.4379 23.0041 36.1594 23.0043 35.8809C23.0028 35.7491 23.0014 35.6173 23 35.4815C23.0009 35.3589 23.0019 35.2364 23.0029 35.1101C23.0028 35.0023 23.0027 34.8945 23.0026 34.7835C23.1632 33.9796 23.791 34.0022 24.5242 34.0023Z" fill="#EBAA70"/>
<path d="M50.524 34.0047C50.6269 34.004 50.7297 34.0033 50.8357 34.0026C51.181 34.0008 51.5262 34.0022 51.8715 34.0036C52.1188 34.003 52.3661 34.0022 52.6133 34.0013C53.2854 33.9993 53.9574 34 54.6295 34.0014C55.332 34.0026 56.0344 34.0015 56.7368 34.0008C57.9164 34 59.0959 34.0011 60.2755 34.0032C61.6406 34.0056 63.0057 34.0048 64.3709 34.0024C65.5417 34.0004 66.7124 34.0001 67.8832 34.0013C68.5831 34.0019 69.2829 34.002 69.9827 34.0006C70.6404 33.9993 71.2981 34.0002 71.9558 34.0027C72.1977 34.0033 72.4396 34.0031 72.6814 34.0022C73.0106 34.001 73.3397 34.0025 73.6689 34.0047C73.9456 34.0049 73.9456 34.0049 74.228 34.0052C74.3695 34.0235 74.511 34.0418 74.6568 34.0606C74.9721 34.5164 74.9996 34.6127 74.9986 35.1285C74.999 35.2544 74.9995 35.3803 75 35.51C74.9984 35.7131 74.9984 35.7131 74.9967 35.9203C74.9966 36.0595 74.9965 36.1987 74.9965 36.3421C74.996 36.6361 74.9948 36.9301 74.9929 37.2241C74.9901 37.676 74.9898 38.1278 74.9898 38.5796C74.9891 38.8649 74.9882 39.1502 74.9872 39.4355C74.987 39.5714 74.9868 39.7074 74.9866 39.8475C74.9857 39.9725 74.9847 40.0975 74.9837 40.2263C74.9831 40.3368 74.9825 40.4473 74.9819 40.5612C74.9616 40.8156 74.9616 40.8156 74.8092 40.9624C74.4821 40.9773 74.1544 40.9816 73.8269 40.9821C73.7231 40.9824 73.6193 40.9827 73.5123 40.9831C73.1619 40.984 72.8114 40.9839 72.461 40.9838C72.2108 40.9842 71.9606 40.9847 71.7103 40.9853C71.0288 40.9866 70.3473 40.9869 69.6657 40.987C69.0977 40.9871 68.5297 40.9877 67.9618 40.9882C66.6222 40.9894 65.2827 40.9897 63.9432 40.9896C62.5592 40.9896 61.1752 40.9911 59.7912 40.9934C58.6049 40.9953 57.4186 40.9961 56.2323 40.996C55.5229 40.996 54.8136 40.9964 54.1042 40.998C53.4372 40.9994 52.7703 40.9994 52.1034 40.9983C51.8581 40.9982 51.6127 40.9985 51.3674 40.9994C51.0336 41.0005 50.6998 40.9999 50.3659 40.9987C50.0852 40.9989 50.0852 40.9989 49.7988 40.999C49.3643 40.9624 49.3643 40.9624 49.0596 40.6687C49.0199 40.4022 49.0199 40.4022 49.0178 40.0762C49.0163 39.9542 49.0149 39.8322 49.0134 39.7064C49.0135 39.5744 49.0136 39.4424 49.0138 39.3064C49.0131 39.171 49.0125 39.0355 49.0118 38.896C49.0109 38.6092 49.0108 38.3225 49.0115 38.0357C49.012 37.5964 49.0084 37.1572 49.0045 36.7179C49.0042 36.4396 49.0041 36.1613 49.0043 35.883C49.0028 35.7513 49.0014 35.6196 49 35.4839C49.0009 35.3614 49.0019 35.2389 49.0029 35.1127C49.0028 35.005 49.0027 34.8973 49.0026 34.7863C49.1632 33.9833 49.791 34.0053 50.524 34.0047Z" fill="#EBAA70"/>
<path d="M18.7346 25.0529C18.9324 25.0489 19.1301 25.0427 19.3277 25.0343C19.6134 25.0224 19.8995 25.018 20.1854 25.0138C20.3565 25.0093 20.5276 25.0047 20.7039 25C21.2409 25.1411 21.4398 25.341 21.7452 25.8139C22.0772 26.6128 21.9931 27.5017 21.9838 28.3568C21.9841 28.5779 21.9847 28.7991 21.9856 29.0202C21.987 29.6183 21.9839 30.2163 21.98 30.8144C21.9765 31.4406 21.9769 32.0669 21.9769 32.6931C21.9762 33.7438 21.9728 34.7944 21.9675 35.8451C21.9614 37.0606 21.9588 38.2762 21.9584 39.4918C21.9578 40.7859 21.9551 42.0801 21.9515 43.3742C21.9506 43.7474 21.9501 44.1207 21.9496 44.4939C21.9488 45.0792 21.9464 45.6645 21.9428 46.2499C21.9418 46.465 21.9412 46.6802 21.9411 46.8954C21.9409 47.1882 21.9388 47.481 21.9365 47.7738C21.9358 47.9379 21.9352 48.1021 21.9345 48.2711C21.8966 48.6564 21.8966 48.6564 21.6056 48.9581C21.2126 48.9882 20.8349 49.0003 20.4417 48.9982C20.3266 48.9984 20.2114 48.9987 20.0928 48.999C19.8492 48.9992 19.6056 48.9987 19.362 48.9974C18.9883 48.9958 18.6148 48.9974 18.2412 48.9993C18.0048 48.9991 17.7684 48.9987 17.532 48.9982C17.3638 48.9991 17.3638 48.9991 17.1921 49C16.4015 48.9928 16.4015 48.9928 16.0771 48.6564C16.0397 48.2707 16.0397 48.2707 16.0382 47.7728C16.037 47.5846 16.0357 47.3963 16.0344 47.2024C16.0345 46.9926 16.0347 46.7828 16.0348 46.5731C16.034 46.353 16.033 46.133 16.0319 45.913C16.0293 45.3142 16.0286 44.7154 16.0284 44.1166C16.0282 43.6169 16.0271 43.1172 16.0261 42.6174C16.0237 41.4382 16.023 40.2589 16.0232 39.0797C16.0234 37.8633 16.0203 36.647 16.0157 35.4307C16.0119 34.3866 16.0103 33.3426 16.0105 32.2985C16.0106 31.6749 16.0098 31.0513 16.0067 30.4276C16.0039 29.8407 16.0039 29.2538 16.006 28.6669C16.0063 28.4517 16.0056 28.2365 16.0038 28.0214C15.9883 25.9927 15.9883 25.9927 16.6591 25.2731C17.2728 24.9549 18.0594 25.0634 18.7346 25.0529Z" fill="#EBAA70"/>
<path d="M78.7813 25.0098C79.0933 25.0127 79.4042 25.0067 79.7161 25C79.9131 25.0005 80.1101 25.001 80.3131 25.0015C80.493 25.0015 80.673 25.0016 80.8584 25.0017C81.3261 25.1164 81.3261 25.1164 81.6497 25.5156C81.9494 26.069 81.9982 26.3706 81.9969 26.995C81.9979 27.1878 81.9989 27.3806 82 27.5792C81.9981 27.7909 81.9962 28.0026 81.9942 28.2143C81.9943 28.4387 81.9946 28.6631 81.9952 28.8876C81.996 29.4953 81.9931 30.1029 81.9895 30.7106C81.9863 31.3464 81.9864 31.9822 81.9861 32.618C81.9851 33.6849 81.982 34.7517 81.9773 35.8185C81.9712 37.1895 81.9686 38.5605 81.9672 39.9316C81.966 41.1092 81.9634 42.2869 81.9605 43.4645C81.9596 43.8438 81.9588 44.223 81.958 44.6023C81.9567 45.1968 81.9546 45.7912 81.9518 46.3857C81.9509 46.6044 81.9502 46.8232 81.9498 47.0419C81.9492 47.3392 81.9476 47.6365 81.9459 47.9338C81.9453 48.1005 81.9447 48.2673 81.944 48.4391C81.924 48.811 81.924 48.811 81.7745 48.9619C81.3795 48.979 80.9885 48.9867 80.5933 48.9873C80.4748 48.9878 80.3563 48.9883 80.2342 48.9888C79.983 48.9896 79.7318 48.9899 79.4807 48.9899C79.0955 48.9902 78.7104 48.993 78.3253 48.9958C78.0817 48.9963 77.8382 48.9966 77.5946 48.9967C77.4211 48.9983 77.4211 48.9983 77.244 49C76.4278 48.9965 76.4278 48.9965 76.0947 48.6601C76.0558 48.2692 76.0558 48.2692 76.0537 47.7637C76.0522 47.5726 76.0507 47.3816 76.0492 47.1847C76.049 46.9717 76.0489 46.7588 76.0489 46.5458C76.0477 46.3225 76.0465 46.0992 76.0451 45.8758C76.0418 45.2681 76.0405 44.6603 76.0397 44.0526C76.0392 43.673 76.0383 43.2934 76.0372 42.9138C76.0335 41.59 76.0316 40.2661 76.0311 38.9422C76.0305 37.7077 76.026 36.4733 76.0198 35.2388C76.0146 34.1794 76.0123 33.1201 76.0122 32.0608C76.0121 31.4278 76.0108 30.795 76.0065 30.162C76.0026 29.5665 76.0023 28.9712 76.0047 28.3757C76.0049 28.1572 76.0039 27.9387 76.0016 27.7202C75.9985 27.4218 76.0005 27.1233 76.0028 26.8249C76.0025 26.6579 76.0022 26.491 76.0019 26.319C76.3037 24.8621 77.591 24.9949 78.7813 25.0098Z" fill="#EBAA70"/>
</svg>
